Source-HROTx_VROTd_SLENx_SANGn.ufo
<glyph name="quotedbl" format="2">
  <advance width="366"/>
  <unicode hex="0022"/>
  <outline>
    <contour>
      <point x="26" y="344" type="line"/>
      <point x="26" y="518" type="line"/>
      <point x="42" y="518" type="line"/>
      <point x="42" y="344" type="line"/>
    </contour>
    <contour>
      <point x="145" y="391" type="line"/>
      <point x="38" y="337" type="line" smooth="yes"/>
      <point x="30" y="333"/>
      <point x="23" y="341"/>
      <point x="27" y="348" type="curve" smooth="yes"/>
      <point x="62" y="402" type="line"/>
      <point x="76" y="394" type="line"/>
      <point x="41" y="340" type="line" smooth="yes"/>
      <point x="36" y="333"/>
      <point x="23" y="347"/>
      <point x="30" y="351" type="curve" smooth="yes"/>
      <point x="137" y="405" type="line"/>
    </contour>
    <contour>
      <point x="53" y="679" type="line"/>
      <point x="42" y="517" type="line" smooth="yes"/>
      <point x="41" y="510"/>
      <point x="23" y="517"/>
      <point x="28" y="523" type="curve" smooth="yes"/>
      <point x="159" y="685" type="line"/>
      <point x="171" y="675" type="line"/>
      <point x="40" y="513" type="line" smooth="yes"/>
      <point x="35" y="507"/>
      <point x="25" y="511"/>
      <point x="26" y="519" type="curve" smooth="yes"/>
      <point x="37" y="681" type="line"/>
    </contour>
    <contour>
      <point x="182" y="344" type="line"/>
      <point x="182" y="518" type="line"/>
      <point x="198" y="518" type="line"/>
      <point x="198" y="344" type="line"/>
    </contour>
    <contour>
      <point x="301" y="391" type="line"/>
      <point x="194" y="337" type="line" smooth="yes"/>
      <point x="186" y="333"/>
      <point x="179" y="341"/>
      <point x="183" y="348" type="curve" smooth="yes"/>
      <point x="218" y="402" type="line"/>
      <point x="232" y="394" type="line"/>
      <point x="197" y="340" type="line" smooth="yes"/>
      <point x="192" y="333"/>
      <point x="179" y="347"/>
      <point x="186" y="351" type="curve" smooth="yes"/>
      <point x="293" y="405" type="line"/>
    </contour>
    <contour>
      <point x="209" y="679" type="line"/>
      <point x="198" y="517" type="line" smooth="yes"/>
      <point x="197" y="510"/>
      <point x="179" y="517"/>
      <point x="184" y="523" type="curve" smooth="yes"/>
      <point x="315" y="685" type="line"/>
      <point x="327" y="675" type="line"/>
      <point x="196" y="513" type="line" smooth="yes"/>
      <point x="191" y="507"/>
      <point x="181" y="511"/>
      <point x="182" y="519" type="curve" smooth="yes"/>
      <point x="193" y="681" type="line"/>
    </contour>
    <contour>
      <point x="77" y="399" type="line"/>
      <point x="69" y="406" type="line"/>
      <point x="141" y="406" type="line"/>
      <point x="133" y="399" type="line"/>
      <point x="157" y="681" type="line"/>
      <point x="165" y="672" type="line"/>
      <point x="45" y="672" type="line"/>
      <point x="53" y="681" type="line"/>
    </contour>
    <contour>
      <point x="233" y="399" type="line"/>
      <point x="225" y="406" type="line"/>
      <point x="297" y="406" type="line"/>
      <point x="289" y="399" type="line"/>
      <point x="313" y="681" type="line"/>
      <point x="321" y="672" type="line"/>
      <point x="201" y="672" type="line"/>
      <point x="209" y="681" type="line"/>
    </contour>
    <contour>
      <point x="61" y="397" type="curve" smooth="yes"/>
      <point x="37" y="679" type="line" smooth="yes"/>
      <point x="37" y="684"/>
      <point x="40" y="688"/>
      <point x="45" y="688" type="curve" smooth="yes"/>
      <point x="165" y="688" type="line" smooth="yes"/>
      <point x="170" y="688"/>
      <point x="173" y="684"/>
      <point x="173" y="679" type="curve" smooth="yes"/>
      <point x="149" y="397" type="line" smooth="yes"/>
      <point x="149" y="393"/>
      <point x="145" y="390"/>
      <point x="141" y="390" type="curve" smooth="yes"/>
      <point x="69" y="390" type="line" smooth="yes"/>
      <point x="65" y="390"/>
      <point x="61" y="393"/>
    </contour>
    <contour>
      <point x="217" y="397" type="curve" smooth="yes"/>
      <point x="193" y="679" type="line" smooth="yes"/>
      <point x="193" y="684"/>
      <point x="196" y="688"/>
      <point x="201" y="688" type="curve" smooth="yes"/>
      <point x="321" y="688" type="line" smooth="yes"/>
      <point x="326" y="688"/>
      <point x="329" y="684"/>
      <point x="329" y="679" type="curve" smooth="yes"/>
      <point x="305" y="397" type="line" smooth="yes"/>
      <point x="305" y="393"/>
      <point x="301" y="390"/>
      <point x="297" y="390" type="curve" smooth="yes"/>
      <point x="225" y="390" type="line" smooth="yes"/>
      <point x="221" y="390"/>
      <point x="217" y="393"/>
    </contour>
  </outline>
</glyph>
<glyph name="parenright" format="2">
  <advance width="341"/>
  <unicode hex="0029"/>
  <outline>
    <contour>
      <point x="6" y="-156" type="line"/>
      <point x="102" y="-114"/>
      <point x="178" y="15"/>
      <point x="178" y="241" type="curve"/>
      <point x="178" y="241"/>
      <point x="178" y="241"/>
      <point x="178" y="241" type="curve"/>
      <point x="178" y="467"/>
      <point x="102" y="596"/>
      <point x="6" y="638" type="curve"/>
      <point x="12" y="652" type="line"/>
      <point x="112" y="610"/>
      <point x="194" y="475"/>
      <point x="194" y="241" type="curve"/>
      <point x="194" y="241"/>
      <point x="194" y="241"/>
      <point x="194" y="241" type="curve"/>
      <point x="194" y="7"/>
      <point x="112" y="-128"/>
      <point x="12" y="-170" type="curve"/>
    </contour>
    <contour>
      <point x="39" y="-159" type="line"/>
      <point x="12" y="-170" type="line" smooth="yes"/>
      <point x="6" y="-173"/>
      <point x="0" y="-168"/>
      <point x="1" y="-162" type="curve" smooth="yes"/>
      <point x="28" y="4" type="line"/>
      <point x="44" y="2" type="line"/>
      <point x="17" y="-164" type="line" smooth="yes"/>
      <point x="16" y="-170"/>
      <point x="0" y="-158"/>
      <point x="6" y="-156" type="curve" smooth="yes"/>
      <point x="33" y="-145" type="line"/>
    </contour>
    <contour>
      <point x="42" y="674" type="line"/>
      <point x="15" y="640" type="line" smooth="yes"/>
      <point x="10" y="634"/>
      <point x="0" y="638"/>
      <point x="1" y="646" type="curve" smooth="yes"/>
      <point x="28" y="835" type="line"/>
      <point x="44" y="833" type="line"/>
      <point x="17" y="644" type="line" smooth="yes"/>
      <point x="16" y="636"/>
      <point x="-2" y="644"/>
      <point x="3" y="650" type="curve" smooth="yes"/>
      <point x="30" y="684" type="line"/>
    </contour>
    <contour>
      <point x="38" y="-160" type="curve" smooth="yes"/>
      <point x="33" y="-161"/>
      <point x="28" y="-157"/>
      <point x="28" y="-152" type="curve" smooth="yes"/>
      <point x="28" y="3" type="line" smooth="yes"/>
      <point x="28" y="7"/>
      <point x="32" y="11"/>
      <point x="36" y="11" type="curve" smooth="yes"/>
      <point x="141" y="11"/>
      <point x="193" y="120"/>
      <point x="193" y="341" type="curve" smooth="yes"/>
      <point x="193" y="562"/>
      <point x="141" y="671"/>
      <point x="36" y="671" type="curve" smooth="yes"/>
      <point x="32" y="671"/>
      <point x="28" y="675"/>
      <point x="28" y="679" type="curve" smooth="yes"/>
      <point x="28" y="834" type="line" smooth="yes"/>
      <point x="28" y="839"/>
      <point x="33" y="843"/>
      <point x="38" y="842" type="curve" smooth="yes"/>
      <point x="168" y="806"/>
      <point x="320" y="643"/>
      <point x="320" y="341" type="curve" smooth="yes"/>
      <point x="320" y="39"/>
      <point x="168" y="-124"/>
    </contour>
    <contour>
      <point x="34" y="-144" type="line"/>
      <point x="160" y="-110"/>
      <point x="304" y="49"/>
      <point x="304" y="341" type="curve" smooth="yes"/>
      <point x="304" y="633"/>
      <point x="160" y="792"/>
      <point x="34" y="826" type="curve"/>
      <point x="44" y="834" type="line"/>
      <point x="44" y="679" type="line"/>
      <point x="36" y="687" type="line"/>
      <point x="149" y="687"/>
      <point x="209" y="577"/>
      <point x="209" y="341" type="curve" smooth="yes"/>
      <point x="209" y="105"/>
      <point x="149" y="-5"/>
      <point x="36" y="-5" type="curve"/>
      <point x="44" y="3" type="line"/>
      <point x="44" y="-152" type="line"/>
    </contour>
  </outline>
</glyph>
<glyph name="one" format="2">
  <advance width="278"/>
  <unicode hex="0031"/>
  <outline>
    <contour>
      <point x="235" y="688" type="line"/>
      <point x="106" y="508" type="line" smooth="yes"/>
      <point x="99" y="500"/>
      <point x="86" y="509"/>
      <point x="93" y="518" type="curve" smooth="yes"/>
      <point x="107" y="537" type="line"/>
      <point x="119" y="527" type="line"/>
      <point x="105" y="508" type="line" smooth="yes"/>
      <point x="99" y="500"/>
      <point x="86" y="509"/>
      <point x="92" y="518" type="curve" smooth="yes"/>
      <point x="221" y="698" type="line"/>
    </contour>
    <contour>
      <point x="237" y="-8" type="line"/>
      <point x="96" y="-46" type="line" smooth="yes"/>
      <point x="91" y="-47"/>
      <point x="87" y="-44"/>
      <point x="86" y="-39" type="curve" smooth="yes"/>
      <point x="81" y="-1" type="line"/>
      <point x="97" y="1" type="line"/>
      <point x="102" y="-37" type="line" smooth="yes"/>
      <point x="103" y="-42"/>
      <point x="87" y="-32"/>
      <point x="92" y="-30" type="curve" smooth="yes"/>
      <point x="233" y="8" type="line"/>
    </contour>
    <contour>
      <point x="-10" y="481" type="line"/>
      <point x="21" y="495"/>
      <point x="64" y="512"/>
      <point x="97" y="521" type="curve" smooth="yes"/>
      <point x="102" y="522"/>
      <point x="107" y="518"/>
      <point x="107" y="513" type="curve" smooth="yes"/>
      <point x="105" y="463"/>
      <point x="103" y="406"/>
      <point x="103" y="249" type="curve" smooth="yes"/>
      <point x="103" y="249"/>
      <point x="103" y="249"/>
      <point x="103" y="249" type="curve" smooth="yes"/>
      <point x="102" y="-38" type="line"/>
      <point x="86" y="-38" type="line"/>
      <point x="87" y="249" type="line" smooth="yes"/>
      <point x="87" y="249"/>
      <point x="87" y="249"/>
      <point x="87" y="249" type="curve" smooth="yes"/>
      <point x="87" y="406"/>
      <point x="89" y="463"/>
      <point x="91" y="513" type="curve" smooth="yes"/>
      <point x="91" y="519"/>
      <point x="106" y="507"/>
      <point x="101" y="505" type="curve" smooth="yes"/>
      <point x="70" y="496"/>
      <point x="27" y="481"/>
      <point x="-4" y="467" type="curve"/>
    </contour>
    <contour>
      <point x="18" y="460" type="line"/>
      <point x="-9" y="466" type="line" smooth="yes"/>
      <point x="-13" y="467"/>
      <point x="-16" y="471"/>
      <point x="-15" y="475" type="curve" smooth="yes"/>
      <point x="12" y="631" type="line"/>
      <point x="28" y="629" type="line"/>
      <point x="1" y="473" type="line" smooth="yes"/>
      <point x="0" y="468"/>
      <point x="-9" y="483"/>
      <point x="-5" y="482" type="curve" smooth="yes"/>
      <point x="22" y="476" type="line"/>
    </contour>
    <contour>
      <point x="89" y="-8" type="line" smooth="yes"/>
      <point x="83" y="-8"/>
      <point x="79" y="-2"/>
      <point x="82" y="3" type="curve" smooth="yes"/>
      <point x="102" y="46"/>
      <point x="107" y="98"/>
      <point x="107" y="349" type="curve" smooth="yes"/>
      <point x="107" y="429"/>
      <point x="106" y="487"/>
      <point x="105" y="532" type="curve"/>
      <point x="116" y="524" type="line"/>
      <point x="74" y="510"/>
      <point x="50" y="490"/>
      <point x="26" y="463" type="curve" smooth="yes"/>
      <point x="21" y="457"/>
      <point x="12" y="461"/>
      <point x="12" y="468" type="curve"/>
      <point x="12" y="630" type="line"/>
      <point x="12" y="634"/>
      <point x="14" y="637"/>
      <point x="18" y="638" type="curve" smooth="yes"/>
      <point x="226" y="701" type="line" smooth="yes"/>
      <point x="231" y="702"/>
      <point x="237" y="698"/>
      <point x="236" y="692" type="curve" smooth="yes"/>
      <point x="228" y="635"/>
      <point x="224" y="585"/>
      <point x="224" y="349" type="curve" smooth="yes"/>
      <point x="224" y="97"/>
      <point x="229" y="42"/>
      <point x="243" y="3" type="curve" smooth="yes"/>
      <point x="244" y="-3"/>
      <point x="241" y="-8"/>
      <point x="235" y="-8" type="curve" smooth="yes"/>
    </contour>
    <contour>
      <point x="89" y="8" type="line"/>
      <point x="235" y="8" type="line"/>
      <point x="227" y="-3" type="line"/>
      <point x="213" y="38"/>
      <point x="208" y="93"/>
      <point x="208" y="349" type="curve" smooth="yes"/>
      <point x="208" y="587"/>
      <point x="212" y="637"/>
      <point x="220" y="694" type="curve"/>
      <point x="230" y="685" type="line"/>
      <point x="22" y="622" type="line"/>
      <point x="28" y="630" type="line"/>
      <point x="28" y="468" type="line"/>
      <point x="14" y="473" type="line"/>
      <point x="40" y="502"/>
      <point x="66" y="524"/>
      <point x="110" y="540" type="curve" smooth="yes"/>
      <point x="115" y="541"/>
      <point x="121" y="538"/>
      <point x="121" y="532" type="curve" smooth="yes"/>
      <point x="122" y="487"/>
      <point x="123" y="429"/>
      <point x="123" y="349" type="curve" smooth="yes"/>
      <point x="123" y="92"/>
      <point x="116" y="40"/>
      <point x="96" y="-3" type="curve"/>
    </contour>
  </outline>
</glyph>
<glyph name="eight" format="2">
  <advance width="402"/>
  <unicode hex="0038"/>
  <outline>
    <contour>
      <point x="131" y="264" type="curve"/>
      <point x="131" y="264"/>
      <point x="131" y="264"/>
      <point x="131" y="264" type="curve"/>
      <point x="190" y="264"/>
      <point x="232" y="312"/>
      <point x="232" y="398" type="curve"/>
      <point x="232" y="398"/>
      <point x="232" y="398"/>
      <point x="232" y="398" type="curve"/>
      <point x="232" y="473"/>
      <point x="190" y="528"/>
      <point x="131" y="528" type="curve"/>
      <point x="131" y="528"/>
      <point x="131" y="528"/>
      <point x="131" y="528" type="curve"/>
      <point x="71" y="528"/>
      <point x="29" y="473"/>
      <point x="29" y="398" type="curve"/>
      <point x="29" y="398"/>
      <point x="29" y="398"/>
      <point x="29" y="398" type="curve"/>
      <point x="29" y="312"/>
      <point x="72" y="264"/>
    </contour>
    <contour>
      <point x="131" y="-64" type="curve"/>
      <point x="131" y="-64"/>
      <point x="131" y="-64"/>
      <point x="131" y="-64" type="curve"/>
      <point x="56" y="-64"/>
      <point x="0" y="2"/>
      <point x="0" y="96" type="curve"/>
      <point x="0" y="96"/>
      <point x="0" y="96"/>
      <point x="0" y="96" type="curve"/>
      <point x="0" y="203"/>
      <point x="57" y="264"/>
      <point x="131" y="264" type="curve"/>
      <point x="131" y="264"/>
      <point x="131" y="264"/>
      <point x="131" y="264" type="curve"/>
      <point x="204" y="264"/>
      <point x="261" y="203"/>
      <point x="261" y="96" type="curve"/>
      <point x="261" y="96"/>
      <point x="261" y="96"/>
      <point x="261" y="96" type="curve"/>
      <point x="261" y="2"/>
      <point x="205" y="-64"/>
    </contour>
    <contour>
      <point x="131" y="248" type="curve"/>
      <point x="64" y="248"/>
      <point x="13" y="302"/>
      <point x="13" y="398" type="curve"/>
      <point x="13" y="398"/>
      <point x="13" y="398"/>
      <point x="13" y="398" type="curve"/>
      <point x="13" y="483"/>
      <point x="63" y="544"/>
      <point x="131" y="544" type="curve"/>
      <point x="131" y="544"/>
      <point x="131" y="544"/>
      <point x="131" y="544" type="curve"/>
      <point x="198" y="544"/>
      <point x="248" y="483"/>
      <point x="248" y="398" type="curve"/>
      <point x="248" y="398"/>
      <point x="248" y="398"/>
      <point x="248" y="398" type="curve"/>
      <point x="248" y="302"/>
      <point x="198" y="248"/>
      <point x="131" y="248" type="curve"/>
      <point x="131" y="248"/>
      <point x="131" y="248"/>
    </contour>
    <contour>
      <point x="131" y="-48" type="curve"/>
      <point x="197" y="-48"/>
      <point x="245" y="12"/>
      <point x="245" y="96" type="curve"/>
      <point x="245" y="96"/>
      <point x="245" y="96"/>
      <point x="245" y="96" type="curve"/>
      <point x="245" y="193"/>
      <point x="196" y="248"/>
      <point x="131" y="248" type="curve"/>
      <point x="131" y="248"/>
      <point x="131" y="248"/>
      <point x="131" y="248" type="curve"/>
      <point x="65" y="248"/>
      <point x="16" y="193"/>
      <point x="16" y="96" type="curve"/>
      <point x="16" y="96"/>
      <point x="16" y="96"/>
      <point x="16" y="96" type="curve"/>
      <point x="16" y="12"/>
      <point x="64" y="-48"/>
      <point x="131" y="-48" type="curve"/>
      <point x="131" y="-48"/>
      <point x="131" y="-48"/>
    </contour>
    <contour>
      <point x="99" y="361" type="line"/>
      <point x="138" y="259" type="line" smooth="yes"/>
      <point x="140" y="254"/>
      <point x="123" y="261"/>
      <point x="127" y="263" type="curve" smooth="yes"/>
      <point x="307" y="365" type="line"/>
      <point x="315" y="351" type="line"/>
      <point x="135" y="249" type="line" smooth="yes"/>
      <point x="131" y="247"/>
      <point x="125" y="249"/>
      <point x="124" y="253" type="curve" smooth="yes"/>
      <point x="85" y="355" type="line"/>
    </contour>
    <contour>
      <point x="202" y="-26" type="curve" smooth="yes"/>
      <point x="94" y="-26"/>
      <point x="18" y="63"/>
      <point x="18" y="189" type="curve" smooth="yes"/>
      <point x="18" y="270"/>
      <point x="44" y="329"/>
      <point x="87" y="364" type="curve"/>
      <point x="87" y="352" type="line"/>
      <point x="52" y="384"/>
      <point x="31" y="435"/>
      <point x="31" y="503" type="curve" smooth="yes"/>
      <point x="31" y="619"/>
      <point x="104" y="706"/>
      <point x="202" y="706" type="curve" smooth="yes"/>
      <point x="298" y="706"/>
      <point x="371" y="619"/>
      <point x="371" y="503" type="curve" smooth="yes"/>
      <point x="371" y="435"/>
      <point x="350" y="384"/>
      <point x="317" y="352" type="curve"/>
      <point x="316" y="364" type="line"/>
      <point x="358" y="329"/>
      <point x="384" y="270"/>
      <point x="384" y="189" type="curve" smooth="yes"/>
      <point x="384" y="63"/>
      <point x="308" y="-26"/>
    </contour>
    <contour>
      <point x="202" y="420" type="curve" smooth="yes"/>
      <point x="231" y="420"/>
      <point x="250" y="451"/>
      <point x="250" y="493" type="curve" smooth="yes"/>
      <point x="250" y="535"/>
      <point x="231" y="566"/>
      <point x="202" y="566" type="curve" smooth="yes"/>
      <point x="172" y="566"/>
      <point x="152" y="535"/>
      <point x="152" y="493" type="curve" smooth="yes"/>
      <point x="152" y="451"/>
      <point x="172" y="420"/>
    </contour>
    <contour>
      <point x="202" y="114" type="curve" smooth="yes"/>
      <point x="236" y="114"/>
      <point x="262" y="152"/>
      <point x="262" y="204" type="curve" smooth="yes"/>
      <point x="262" y="257"/>
      <point x="236" y="292"/>
      <point x="202" y="292" type="curve" smooth="yes"/>
      <point x="167" y="292"/>
      <point x="140" y="257"/>
      <point x="140" y="204" type="curve" smooth="yes"/>
      <point x="140" y="152"/>
      <point x="167" y="114"/>
    </contour>
    <contour>
      <point x="202" y="-10" type="curve" smooth="yes"/>
      <point x="300" y="-10"/>
      <point x="368" y="73"/>
      <point x="368" y="189" type="curve" smooth="yes"/>
      <point x="368" y="264"/>
      <point x="344" y="319"/>
      <point x="306" y="352" type="curve" smooth="yes"/>
      <point x="302" y="355"/>
      <point x="302" y="360"/>
      <point x="305" y="364" type="curve" smooth="yes"/>
      <point x="336" y="394"/>
      <point x="355" y="441"/>
      <point x="355" y="503" type="curve" smooth="yes"/>
      <point x="355" y="609"/>
      <point x="290" y="690"/>
      <point x="202" y="690" type="curve" smooth="yes"/>
      <point x="112" y="690"/>
      <point x="47" y="609"/>
      <point x="47" y="503" type="curve" smooth="yes"/>
      <point x="47" y="441"/>
      <point x="66" y="394"/>
      <point x="97" y="364" type="curve" smooth="yes"/>
      <point x="101" y="361"/>
      <point x="101" y="355"/>
      <point x="97" y="352" type="curve" smooth="yes"/>
      <point x="58" y="319"/>
      <point x="34" y="264"/>
      <point x="34" y="189" type="curve" smooth="yes"/>
      <point x="34" y="73"/>
      <point x="102" y="-10"/>
    </contour>
    <contour>
      <point x="202" y="404" type="curve" smooth="yes"/>
      <point x="164" y="404"/>
      <point x="136" y="440"/>
      <point x="136" y="493" type="curve" smooth="yes"/>
      <point x="136" y="546"/>
      <point x="164" y="582"/>
      <point x="202" y="582" type="curve" smooth="yes"/>
      <point x="239" y="582"/>
      <point x="266" y="547"/>
      <point x="266" y="493" type="curve" smooth="yes"/>
      <point x="266" y="439"/>
      <point x="239" y="404"/>
    </contour>
    <contour>
      <point x="202" y="98" type="curve" smooth="yes"/>
      <point x="159" y="98"/>
      <point x="124" y="140"/>
      <point x="124" y="204" type="curve" smooth="yes"/>
      <point x="124" y="269"/>
      <point x="159" y="308"/>
      <point x="202" y="308" type="curve" smooth="yes"/>
      <point x="244" y="308"/>
      <point x="278" y="269"/>
      <point x="278" y="204" type="curve" smooth="yes"/>
      <point x="278" y="140"/>
      <point x="244" y="98"/>
    </contour>
  </outline>
</glyph>
<glyph name="semicolon" format="2">
  <advance width="196"/>
  <unicode hex="003B"/>
  <outline>
    <contour>
      <point x="51" y="522" type="line"/>
      <point x="37" y="342" type="line" smooth="yes"/>
      <point x="37" y="337"/>
      <point x="23" y="350"/>
      <point x="28" y="351" type="curve" smooth="yes"/>
      <point x="156" y="370" type="line"/>
      <point x="158" y="354" type="line"/>
      <point x="30" y="335" type="line" smooth="yes"/>
      <point x="25" y="334"/>
      <point x="21" y="338"/>
      <point x="21" y="344" type="curve" smooth="yes"/>
      <point x="35" y="524" type="line"/>
    </contour>
    <contour>
      <point x="49" y="357" type="line"/>
      <point x="35" y="338" type="line" smooth="yes"/>
      <point x="29" y="330"/>
      <point x="16" y="339"/>
      <point x="22" y="348" type="curve" smooth="yes"/>
      <point x="150" y="528" type="line"/>
      <point x="164" y="518" type="line"/>
      <point x="36" y="338" type="line" smooth="yes"/>
      <point x="29" y="330"/>
      <point x="16" y="339"/>
      <point x="23" y="348" type="curve" smooth="yes"/>
      <point x="37" y="367" type="line"/>
    </contour>
    <contour>
      <point x="13" y="-124" type="line"/>
      <point x="50" y="-90"/>
      <point x="46" y="-51"/>
      <point x="27" y="-4" type="curve"/>
      <point x="41" y="2" type="line"/>
      <point x="64" y="-51"/>
      <point x="66" y="-96"/>
      <point x="23" y="-136" type="curve"/>
    </contour>
    <contour>
      <point x="51" y="161" type="line"/>
      <point x="42" y="-1" type="line" smooth="yes"/>
      <point x="42" y="-9"/>
      <point x="23" y="-2"/>
      <point x="28" y="4" type="curve" smooth="yes"/>
      <point x="155" y="166" type="line"/>
      <point x="167" y="156" type="line"/>
      <point x="40" y="-6" type="line" smooth="yes"/>
      <point x="35" y="-12"/>
      <point x="26" y="-8"/>
      <point x="26" y="-1" type="curve" smooth="yes"/>
      <point x="35" y="161" type="line"/>
    </contour>
    <contour>
      <point x="43" y="354" type="line" smooth="yes"/>
      <point x="39" y="354"/>
      <point x="35" y="358"/>
      <point x="35" y="362" type="curve" smooth="yes"/>
      <point x="35" y="523" type="line" smooth="yes"/>
      <point x="35" y="527"/>
      <point x="39" y="531"/>
      <point x="43" y="531" type="curve" smooth="yes"/>
      <point x="157" y="531" type="line" smooth="yes"/>
      <point x="161" y="531"/>
      <point x="165" y="527"/>
      <point x="165" y="523" type="curve" smooth="yes"/>
      <point x="165" y="362" type="line" smooth="yes"/>
      <point x="165" y="358"/>
      <point x="161" y="354"/>
      <point x="157" y="354" type="curve" smooth="yes"/>
    </contour>
    <contour>
      <point x="43" y="153" type="line"/>
      <point x="51" y="163" type="line"/>
      <point x="68" y="72"/>
      <point x="67" y="-12"/>
      <point x="26" y="-133" type="curve"/>
      <point x="15" y="-123" type="line"/>
      <point x="126" y="-74"/>
      <point x="160" y="53"/>
      <point x="153" y="160" type="curve"/>
      <point x="161" y="153" type="line"/>
    </contour>
    <contour>
      <point x="43" y="370" type="line"/>
      <point x="157" y="370" type="line"/>
      <point x="149" y="362" type="line"/>
      <point x="149" y="523" type="line"/>
      <point x="157" y="515" type="line"/>
      <point x="43" y="515" type="line"/>
      <point x="51" y="523" type="line"/>
      <point x="51" y="362" type="line"/>
    </contour>
    <contour>
      <point x="43" y="169" type="curve" smooth="yes"/>
      <point x="161" y="169" type="line" smooth="yes"/>
      <point x="165" y="169"/>
      <point x="169" y="166"/>
      <point x="169" y="162" type="curve" smooth="yes"/>
      <point x="176" y="47"/>
      <point x="139" y="-86"/>
      <point x="21" y="-137" type="curve" smooth="yes"/>
      <point x="15" y="-140"/>
      <point x="8" y="-134"/>
      <point x="10" y="-127" type="curve" smooth="yes"/>
      <point x="51" y="-10"/>
      <point x="52" y="72"/>
      <point x="35" y="159" type="curve" smooth="yes"/>
      <point x="34" y="164"/>
      <point x="38" y="169"/>
    </contour>
  </outline>
</glyph>
<glyph name="E" format="2">
  <advance width="389"/>
  <unicode hex="0045"/>
  <outline>
    <contour>
      <point x="221" y="503" type="line"/>
      <point x="172" y="508"/>
      <point x="89" y="512"/>
      <point x="40" y="510" type="curve" smooth="yes"/>
      <point x="36" y="510"/>
      <point x="48" y="522"/>
      <point x="48" y="518" type="curve" smooth="yes"/>
      <point x="48" y="-38" type="line" smooth="yes"/>
      <point x="48" y="-42"/>
      <point x="36" y="-30"/>
      <point x="40" y="-30" type="curve" smooth="yes"/>
      <point x="90" y="-32"/>
      <point x="170" y="-29"/>
      <point x="220" y="-23" type="curve"/>
      <point x="222" y="-39" type="line"/>
      <point x="172" y="-45"/>
      <point x="90" y="-48"/>
      <point x="40" y="-46" type="curve" smooth="yes"/>
      <point x="35" y="-46"/>
      <point x="32" y="-42"/>
      <point x="32" y="-38" type="curve" smooth="yes"/>
      <point x="32" y="518" type="line" smooth="yes"/>
      <point x="32" y="522"/>
      <point x="35" y="526"/>
      <point x="40" y="526" type="curve" smooth="yes"/>
      <point x="89" y="528"/>
      <point x="172" y="524"/>
      <point x="223" y="519" type="curve"/>
    </contour>
    <contour>
      <point x="203" y="242" type="line"/>
      <point x="40" y="242" type="line"/>
      <point x="40" y="258" type="line"/>
      <point x="203" y="258" type="line"/>
    </contour>
    <contour>
      <point x="170" y="120" type="line"/>
      <point x="46" y="-43" type="line" smooth="yes"/>
      <point x="42" y="-49"/>
      <point x="32" y="-46"/>
      <point x="32" y="-38" type="curve" smooth="yes"/>
      <point x="33" y="0" type="line"/>
      <point x="49" y="0" type="line"/>
      <point x="48" y="-38" type="line" smooth="yes"/>
      <point x="48" y="-46"/>
      <point x="29" y="-39"/>
      <point x="34" y="-33" type="curve" smooth="yes"/>
      <point x="158" y="130" type="line"/>
    </contour>
    <contour>
      <point x="49" y="680" type="line"/>
      <point x="48" y="518" type="line" smooth="yes"/>
      <point x="48" y="513"/>
      <point x="33" y="524"/>
      <point x="38" y="526" type="curve" smooth="yes"/>
      <point x="162" y="563" type="line"/>
      <point x="166" y="547" type="line"/>
      <point x="42" y="510" type="line" smooth="yes"/>
      <point x="37" y="509"/>
      <point x="32" y="513"/>
      <point x="32" y="518" type="curve" smooth="yes"/>
      <point x="33" y="680" type="line"/>
    </contour>
    <contour>
      <point x="344" y="675" type="line"/>
      <point x="229" y="506" type="line" smooth="yes"/>
      <point x="225" y="501"/>
      <point x="214" y="518"/>
      <point x="221" y="519" type="curve" smooth="yes"/>
      <point x="336" y="532" type="line"/>
      <point x="338" y="516" type="line"/>
      <point x="223" y="503" type="line" smooth="yes"/>
      <point x="216" y="502"/>
      <point x="212" y="510"/>
      <point x="215" y="516" type="curve" smooth="yes"/>
      <point x="330" y="685" type="line"/>
    </contour>
    <contour>
      <point x="357" y="162" type="line"/>
      <point x="228" y="-35" type="line" smooth="yes"/>
      <point x="224" y="-42"/>
      <point x="212" y="-25"/>
      <point x="219" y="-23" type="curve" smooth="yes"/>
      <point x="334" y="8" type="line"/>
      <point x="338" y="-8" type="line"/>
      <point x="223" y="-39" type="line" smooth="yes"/>
      <point x="216" y="-41"/>
      <point x="210" y="-33"/>
      <point x="214" y="-27" type="curve" smooth="yes"/>
      <point x="343" y="170" type="line"/>
    </contour>
    <contour>
      <point x="325" y="428" type="line"/>
      <point x="210" y="246" type="line" smooth="yes"/>
      <point x="206" y="240"/>
      <point x="195" y="257"/>
      <point x="202" y="258" type="curve" smooth="yes"/>
      <point x="317" y="277" type="line"/>
      <point x="319" y="261" type="line"/>
      <point x="204" y="242" type="line" smooth="yes"/>
      <point x="197" y="241"/>
      <point x="193" y="248"/>
      <point x="196" y="254" type="curve" smooth="yes"/>
      <point x="311" y="436" type="line"/>
    </contour>
    <contour>
      <point x="167" y="405" type="line"/>
      <point x="46" y="245" type="line" smooth="yes"/>
      <point x="42" y="239"/>
      <point x="30" y="255"/>
      <point x="37" y="258" type="curve" smooth="yes"/>
      <point x="158" y="298" type="line"/>
      <point x="164" y="282" type="line"/>
      <point x="43" y="242" type="line" smooth="yes"/>
      <point x="35" y="240"/>
      <point x="29" y="249"/>
      <point x="34" y="255" type="curve" smooth="yes"/>
      <point x="155" y="415" type="line"/>
    </contour>
    <contour>
      <point x="41" y="-8" type="line" smooth="yes"/>
      <point x="35" y="-8"/>
      <point x="32" y="-3"/>
      <point x="33" y="3" type="curve" smooth="yes"/>
      <point x="47" y="42"/>
      <point x="52" y="97"/>
      <point x="52" y="349" type="curve" smooth="yes"/>
      <point x="52" y="587"/>
      <point x="47" y="639"/>
      <point x="33" y="677" type="curve" smooth="yes"/>
      <point x="32" y="683"/>
      <point x="35" y="688"/>
      <point x="41" y="688" type="curve" smooth="yes"/>
      <point x="337" y="688" type="line" smooth="yes"/>
      <point x="341" y="688"/>
      <point x="345" y="684"/>
      <point x="345" y="680" type="curve" smooth="yes"/>
      <point x="345" y="524" type="line" smooth="yes"/>
      <point x="345" y="517"/>
      <point x="338" y="514"/>
      <point x="332" y="518" type="curve" smooth="yes"/>
      <point x="310" y="534"/>
      <point x="282" y="550"/>
      <point x="164" y="547" type="curve"/>
      <point x="172" y="555" type="line"/>
      <point x="170" y="519"/>
      <point x="170" y="472"/>
      <point x="169" y="410" type="curve"/>
      <point x="161" y="418" type="line"/>
      <point x="268" y="419"/>
      <point x="293" y="423"/>
      <point x="313" y="438" type="curve" smooth="yes"/>
      <point x="318" y="442"/>
      <point x="326" y="439"/>
      <point x="326" y="432" type="curve" smooth="yes"/>
      <point x="326" y="269" type="line" smooth="yes"/>
      <point x="326" y="262"/>
      <point x="319" y="259"/>
      <point x="313" y="262" type="curve" smooth="yes"/>
      <point x="293" y="277"/>
      <point x="269" y="281"/>
      <point x="161" y="282" type="curve"/>
      <point x="169" y="290" type="line"/>
      <point x="170" y="218"/>
      <point x="170" y="165"/>
      <point x="172" y="125" type="curve"/>
      <point x="164" y="133" type="line"/>
      <point x="285" y="130"/>
      <point x="319" y="143"/>
      <point x="344" y="171" type="curve" smooth="yes"/>
      <point x="349" y="177"/>
      <point x="359" y="173"/>
      <point x="358" y="165" type="curve" smooth="yes"/>
      <point x="344" y="-1" type="line" smooth="yes"/>
      <point x="344" y="-5"/>
      <point x="340" y="-8"/>
      <point x="336" y="-8" type="curve" smooth="yes"/>
    </contour>
    <contour>
      <point x="41" y="8" type="line"/>
      <point x="336" y="8" type="line"/>
      <point x="328" y="1" type="line"/>
      <point x="342" y="167" type="line"/>
      <point x="356" y="161" type="line"/>
      <point x="329" y="131"/>
      <point x="295" y="114"/>
      <point x="164" y="117" type="curve" smooth="yes"/>
      <point x="160" y="117"/>
      <point x="156" y="120"/>
      <point x="156" y="125" type="curve" smooth="yes"/>
      <point x="154" y="165"/>
      <point x="154" y="218"/>
      <point x="153" y="290" type="curve" smooth="yes"/>
      <point x="153" y="294"/>
      <point x="157" y="298"/>
      <point x="161" y="298" type="curve" smooth="yes"/>
      <point x="279" y="297"/>
      <point x="301" y="291"/>
      <point x="323" y="276" type="curve"/>
      <point x="310" y="269" type="line"/>
      <point x="310" y="432" type="line"/>
      <point x="323" y="426" type="line"/>
      <point x="301" y="409"/>
      <point x="279" y="403"/>
      <point x="161" y="402" type="curve" smooth="yes"/>
      <point x="157" y="402"/>
      <point x="153" y="406"/>
      <point x="153" y="410" type="curve" smooth="yes"/>
      <point x="154" y="472"/>
      <point x="154" y="519"/>
      <point x="156" y="555" type="curve" smooth="yes"/>
      <point x="156" y="560"/>
      <point x="160" y="563"/>
      <point x="164" y="563" type="curve" smooth="yes"/>
      <point x="288" y="566"/>
      <point x="318" y="548"/>
      <point x="342" y="530" type="curve"/>
      <point x="329" y="524" type="line"/>
      <point x="329" y="680" type="line"/>
      <point x="337" y="672" type="line"/>
      <point x="41" y="672" type="line"/>
      <point x="49" y="683" type="line"/>
      <point x="63" y="643"/>
      <point x="68" y="591"/>
      <point x="68" y="349" type="curve" smooth="yes"/>
      <point x="68" y="93"/>
      <point x="63" y="38"/>
      <point x="49" y="-3" type="curve"/>
    </contour>
  </outline>
</glyph>
<glyph name="K" format="2">
  <advance width="466"/>
  <unicode hex="004B"/>
  <outline>
    <contour>
      <point x="48" y="518" type="line"/>
      <point x="48" y="241" type="line"/>
      <point x="48" y="241"/>
      <point x="48" y="241"/>
      <point x="48" y="241" type="curve"/>
      <point x="48" y="-38" type="line"/>
      <point x="32" y="-38" type="line"/>
      <point x="32" y="241" type="line"/>
      <point x="32" y="241"/>
      <point x="32" y="241"/>
      <point x="32" y="241" type="curve"/>
      <point x="32" y="518" type="line"/>
    </contour>
    <contour>
      <point x="287" y="514" type="line"/>
      <point x="142" y="294" type="line" smooth="yes"/>
      <point x="142" y="294"/>
      <point x="142" y="294"/>
      <point x="142" y="294" type="curve" smooth="yes"/>
      <point x="109" y="244"/>
      <point x="88" y="236"/>
      <point x="41" y="233" type="curve" smooth="yes"/>
      <point x="30" y="232"/>
      <point x="29" y="248"/>
      <point x="39" y="249" type="curve" smooth="yes"/>
      <point x="87" y="252"/>
      <point x="110" y="243"/>
      <point x="137" y="200" type="curve" smooth="yes"/>
      <point x="137" y="200"/>
      <point x="137" y="200"/>
      <point x="137" y="200" type="curve" smooth="yes"/>
      <point x="287" y="-34" type="line"/>
      <point x="273" y="-42" type="line"/>
      <point x="123" y="192" type="line" smooth="yes"/>
      <point x="123" y="192"/>
      <point x="123" y="192"/>
      <point x="123" y="192" type="curve" smooth="yes"/>
      <point x="100" y="229"/>
      <point x="83" y="236"/>
      <point x="41" y="233" type="curve" smooth="yes"/>
      <point x="30" y="232"/>
      <point x="29" y="248"/>
      <point x="39" y="249" type="curve" smooth="yes"/>
      <point x="82" y="252"/>
      <point x="99" y="258"/>
      <point x="128" y="302" type="curve" smooth="yes"/>
      <point x="128" y="302"/>
      <point x="128" y="302"/>
      <point x="128" y="302" type="curve" smooth="yes"/>
      <point x="273" y="522" type="line"/>
    </contour>
    <contour>
      <point x="168" y="412" type="line"/>
      <point x="47" y="236" type="line" smooth="yes"/>
      <point x="43" y="231"/>
      <point x="32" y="248"/>
      <point x="39" y="249" type="curve" smooth="yes"/>
      <point x="160" y="269" type="line"/>
      <point x="162" y="253" type="line"/>
      <point x="41" y="233" type="line" smooth="yes"/>
      <point x="34" y="232"/>
      <point x="29" y="240"/>
      <point x="33" y="246" type="curve" smooth="yes"/>
      <point x="154" y="422" type="line"/>
    </contour>
    <contour>
      <point x="182" y="-8" type="line"/>
      <point x="42" y="-46" type="line" smooth="yes"/>
      <point x="37" y="-47"/>
      <point x="32" y="-43"/>
      <point x="32" y="-38" type="curve" smooth="yes"/>
      <point x="33" y="0" type="line"/>
      <point x="49" y="0" type="line"/>
      <point x="48" y="-38" type="line" smooth="yes"/>
      <point x="48" y="-44"/>
      <point x="33" y="-32"/>
      <point x="38" y="-30" type="curve" smooth="yes"/>
      <point x="178" y="8" type="line"/>
    </contour>
    <contour>
      <point x="49" y="680" type="line"/>
      <point x="48" y="518" type="line" smooth="yes"/>
      <point x="48" y="511"/>
      <point x="29" y="518"/>
      <point x="34" y="523" type="curve" smooth="yes"/>
      <point x="174" y="685" type="line"/>
      <point x="186" y="675" type="line"/>
      <point x="46" y="513" type="line" smooth="yes"/>
      <point x="41" y="507"/>
      <point x="32" y="511"/>
      <point x="32" y="518" type="curve" smooth="yes"/>
      <point x="33" y="680" type="line"/>
    </contour>
    <contour>
      <point x="475" y="-8" type="line"/>
      <point x="282" y="-46" type="line" smooth="yes"/>
      <point x="274" y="-47"/>
      <point x="269" y="-39"/>
      <point x="274" y="-33" type="curve" smooth="yes"/>
      <point x="302" y="5" type="line"/>
      <point x="314" y="-5" type="line"/>
      <point x="286" y="-43" type="line" smooth="yes"/>
      <point x="282" y="-49"/>
      <point x="271" y="-32"/>
      <point x="278" y="-30" type="curve" smooth="yes"/>
      <point x="471" y="8" type="line"/>
    </contour>
    <contour>
      <point x="324" y="678" type="line"/>
      <point x="288" y="516" type="line" smooth="yes"/>
      <point x="286" y="509"/>
      <point x="269" y="519"/>
      <point x="275" y="524" type="curve" smooth="yes"/>
      <point x="462" y="686" type="line"/>
      <point x="472" y="674" type="line"/>
      <point x="285" y="512" type="line" smooth="yes"/>
      <point x="279" y="507"/>
      <point x="271" y="512"/>
      <point x="272" y="520" type="curve" smooth="yes"/>
      <point x="308" y="682" type="line"/>
    </contour>
    <contour>
      <point x="40" y="249" type="line"/>
      <point x="79" y="251"/>
      <point x="116" y="254"/>
      <point x="224" y="354" type="curve"/>
      <point x="234" y="342" type="line"/>
      <point x="122" y="238"/>
      <point x="81" y="235"/>
      <point x="40" y="233" type="curve"/>
    </contour>
    <contour>
      <point x="41" y="-8" type="line" smooth="yes"/>
      <point x="35" y="-8"/>
      <point x="32" y="-3"/>
      <point x="33" y="3" type="curve" smooth="yes"/>
      <point x="47" y="42"/>
      <point x="52" y="97"/>
      <point x="52" y="349" type="curve" smooth="yes"/>
      <point x="52" y="587"/>
      <point x="47" y="639"/>
      <point x="33" y="677" type="curve" smooth="yes"/>
      <point x="32" y="683"/>
      <point x="35" y="688"/>
      <point x="41" y="688" type="curve" smooth="yes"/>
      <point x="180" y="688" type="line" smooth="yes"/>
      <point x="186" y="688"/>
      <point x="189" y="682"/>
      <point x="187" y="677" type="curve" smooth="yes"/>
      <point x="175" y="643"/>
      <point x="170" y="597"/>
      <point x="169" y="417" type="curve"/>
      <point x="154" y="421" type="line"/>
      <point x="277" y="607"/>
      <point x="301" y="646"/>
      <point x="308" y="682" type="curve" smooth="yes"/>
      <point x="309" y="685"/>
      <point x="312" y="688"/>
      <point x="316" y="688" type="curve" smooth="yes"/>
      <point x="467" y="688" type="line" smooth="yes"/>
      <point x="474" y="688"/>
      <point x="478" y="679"/>
      <point x="473" y="674" type="curve" smooth="yes"/>
      <point x="433" y="635"/>
      <point x="398" y="587"/>
      <point x="236" y="344" type="curve"/>
      <point x="236" y="352" type="line"/>
      <point x="393" y="98"/>
      <point x="441" y="44"/>
      <point x="479" y="6" type="curve" smooth="yes"/>
      <point x="484" y="1"/>
      <point x="480" y="-8"/>
      <point x="473" y="-8" type="curve" smooth="yes"/>
      <point x="308" y="-8" type="line" smooth="yes"/>
      <point x="304" y="-8"/>
      <point x="301" y="-5"/>
      <point x="300" y="-2" type="curve" smooth="yes"/>
      <point x="292" y="33"/>
      <point x="267" y="79"/>
      <point x="154" y="257" type="curve"/>
      <point x="169" y="261" type="line"/>
      <point x="170" y="82"/>
      <point x="176" y="37"/>
      <point x="188" y="3" type="curve" smooth="yes"/>
      <point x="189" y="-3"/>
      <point x="185" y="-8"/>
      <point x="180" y="-8" type="curve" smooth="yes"/>
    </contour>
    <contour>
      <point x="41" y="8" type="line"/>
      <point x="180" y="8" type="line"/>
      <point x="172" y="-3" type="line"/>
      <point x="160" y="33"/>
      <point x="154" y="80"/>
      <point x="153" y="261" type="curve" smooth="yes"/>
      <point x="153" y="269"/>
      <point x="163" y="272"/>
      <point x="168" y="265" type="curve" smooth="yes"/>
      <point x="283" y="83"/>
      <point x="308" y="37"/>
      <point x="316" y="2" type="curve"/>
      <point x="308" y="8" type="line"/>
      <point x="473" y="8" type="line"/>
      <point x="467" y="-6" type="line"/>
      <point x="429" y="34"/>
      <point x="381" y="88"/>
      <point x="222" y="344" type="curve" smooth="yes"/>
      <point x="221" y="346"/>
      <point x="221" y="350"/>
      <point x="222" y="352" type="curve" smooth="yes"/>
      <point x="386" y="597"/>
      <point x="421" y="647"/>
      <point x="461" y="686" type="curve"/>
      <point x="467" y="672" type="line"/>
      <point x="316" y="672" type="line"/>
      <point x="324" y="678" type="line"/>
      <point x="317" y="642"/>
      <point x="295" y="603"/>
      <point x="168" y="413" type="curve" smooth="yes"/>
      <point x="163" y="406"/>
      <point x="153" y="409"/>
      <point x="153" y="417" type="curve" smooth="yes"/>
      <point x="154" y="601"/>
      <point x="159" y="647"/>
      <point x="173" y="683" type="curve"/>
      <point x="180" y="672" type="line"/>
      <point x="41" y="672" type="line"/>
      <point x="49" y="683" type="line"/>
      <point x="63" y="643"/>
      <point x="68" y="591"/>
      <point x="68" y="349" type="curve" smooth="yes"/>
      <point x="68" y="93"/>
      <point x="63" y="38"/>
      <point x="49" y="-3" type="curve"/>
    </contour>
  </outline>
</glyph>
<glyph name="N" format="2">
  <advance width="495"/>
  <unicode hex="004E"/>
  <outline>
    <contour>
      <point x="175" y="-8" type="line"/>
      <point x="38" y="-46" type="line" smooth="yes"/>
      <point x="33" y="-47"/>
      <point x="27" y="-43"/>
      <point x="28" y="-37" type="curve" smooth="yes"/>
      <point x="33" y="1" type="line"/>
      <point x="49" y="-1" type="line"/>
      <point x="44" y="-39" type="line" smooth="yes"/>
      <point x="43" y="-45"/>
      <point x="28" y="-32"/>
      <point x="34" y="-30" type="curve" smooth="yes"/>
      <point x="171" y="8" type="line"/>
    </contour>
    <contour>
      <point x="330" y="680" type="line"/>
      <point x="325" y="518" type="line" smooth="yes"/>
      <point x="325" y="510"/>
      <point x="306" y="517"/>
      <point x="311" y="523" type="curve" smooth="yes"/>
      <point x="448" y="685" type="line"/>
      <point x="460" y="675" type="line"/>
      <point x="323" y="513" type="line" smooth="yes"/>
      <point x="318" y="507"/>
      <point x="309" y="511"/>
      <point x="309" y="518" type="curve" smooth="yes"/>
      <point x="314" y="680" type="line"/>
    </contour>
    <contour>
      <point x="49" y="680" type="line"/>
      <point x="44" y="528" type="line" smooth="yes"/>
      <point x="44" y="520"/>
      <point x="25" y="527"/>
      <point x="30" y="533" type="curve" smooth="yes"/>
      <point x="145" y="685" type="line"/>
      <point x="157" y="675" type="line"/>
      <point x="42" y="523" type="line" smooth="yes"/>
      <point x="38" y="517"/>
      <point x="28" y="520"/>
      <point x="28" y="528" type="curve" smooth="yes"/>
      <point x="33" y="680" type="line"/>
    </contour>
    <contour>
      <point x="450" y="-8" type="line"/>
      <point x="320" y="-51" type="line" smooth="yes"/>
      <point x="312" y="-53"/>
      <point x="306" y="-44"/>
      <point x="311" y="-38" type="curve" smooth="yes"/>
      <point x="345" y="5" type="line"/>
      <point x="357" y="-5" type="line"/>
      <point x="323" y="-48" type="line" smooth="yes"/>
      <point x="318" y="-54"/>
      <point x="307" y="-38"/>
      <point x="314" y="-35" type="curve" smooth="yes"/>
      <point x="444" y="8" type="line"/>
    </contour>
    <contour>
      <point x="28" y="-38" type="line"/>
      <point x="28" y="528" type="line" smooth="yes"/>
      <point x="28" y="536"/>
      <point x="39" y="539"/>
      <point x="43" y="532" type="curve" smooth="yes"/>
      <point x="67" y="489"/>
      <point x="96" y="437"/>
      <point x="139" y="345" type="curve" smooth="yes"/>
      <point x="139" y="345"/>
      <point x="139" y="345"/>
      <point x="139" y="345" type="curve" smooth="yes"/>
      <point x="247" y="115" type="line" smooth="yes"/>
      <point x="247" y="115"/>
      <point x="247" y="115"/>
      <point x="247" y="115" type="curve" smooth="yes"/>
      <point x="285" y="37"/>
      <point x="306" y="-5"/>
      <point x="324" y="-39" type="curve" smooth="yes"/>
      <point x="328" y="-47"/>
      <point x="309" y="-51"/>
      <point x="309" y="-43" type="curve" smooth="yes"/>
      <point x="309" y="518" type="line"/>
      <point x="325" y="518" type="line"/>
      <point x="325" y="-43" type="line" smooth="yes"/>
      <point x="325" y="-51"/>
      <point x="314" y="-54"/>
      <point x="310" y="-47" type="curve" smooth="yes"/>
      <point x="292" y="-13"/>
      <point x="271" y="29"/>
      <point x="233" y="109" type="curve" smooth="yes"/>
      <point x="233" y="109"/>
      <point x="233" y="109"/>
      <point x="233" y="109" type="curve" smooth="yes"/>
      <point x="125" y="339" type="line" smooth="yes"/>
      <point x="125" y="339"/>
      <point x="125" y="339"/>
      <point x="125" y="339" type="curve" smooth="yes"/>
      <point x="82" y="429"/>
      <point x="53" y="481"/>
      <point x="29" y="524" type="curve" smooth="yes"/>
      <point x="25" y="531"/>
      <point x="44" y="536"/>
      <point x="44" y="528" type="curve" smooth="yes"/>
      <point x="44" y="-38" type="line"/>
    </contour>
    <contour>
      <point x="349" y="278" type="line"/>
      <point x="325" y="-44" type="line"/>
      <point x="309" y="-42" type="line"/>
      <point x="333" y="280" type="line"/>
    </contour>
    <contour>
      <point x="42" y="534" type="line"/>
      <point x="160" y="420" type="line"/>
      <point x="148" y="408" type="line"/>
      <point x="30" y="522" type="line"/>
    </contour>
    <contour>
      <point x="455" y="1" type="curve" smooth="yes"/>
      <point x="456" y="-4"/>
      <point x="452" y="-8"/>
      <point x="447" y="-8" type="curve" smooth="yes"/>
      <point x="351" y="-8" type="line" smooth="yes"/>
      <point x="348" y="-8"/>
      <point x="345" y="-6"/>
      <point x="344" y="-3" type="curve" smooth="yes"/>
      <point x="147" y="411" type="line"/>
      <point x="162" y="414" type="line"/>
      <point x="162" y="349" type="line" smooth="yes"/>
      <point x="162" y="97"/>
      <point x="167" y="42"/>
      <point x="181" y="3" type="curve" smooth="yes"/>
      <point x="182" y="-3"/>
      <point x="179" y="-8"/>
      <point x="173" y="-8" type="curve" smooth="yes"/>
      <point x="41" y="-8" type="line" smooth="yes"/>
      <point x="35" y="-8"/>
      <point x="32" y="-3"/>
      <point x="33" y="3" type="curve" smooth="yes"/>
      <point x="47" y="42"/>
      <point x="52" y="97"/>
      <point x="52" y="349" type="curve" smooth="yes"/>
      <point x="52" y="587"/>
      <point x="47" y="639"/>
      <point x="33" y="677" type="curve" smooth="yes"/>
      <point x="32" y="683"/>
      <point x="35" y="688"/>
      <point x="41" y="688" type="curve" smooth="yes"/>
      <point x="151" y="688" type="line" smooth="yes"/>
      <point x="154" y="688"/>
      <point x="157" y="686"/>
      <point x="158" y="683" type="curve" smooth="yes"/>
      <point x="348" y="282" type="line"/>
      <point x="333" y="279" type="line"/>
      <point x="333" y="349" type="line" smooth="yes"/>
      <point x="333" y="587"/>
      <point x="328" y="639"/>
      <point x="314" y="677" type="curve" smooth="yes"/>
      <point x="313" y="683"/>
      <point x="316" y="688"/>
      <point x="322" y="688" type="curve" smooth="yes"/>
      <point x="454" y="688" type="line" smooth="yes"/>
      <point x="460" y="688"/>
      <point x="463" y="683"/>
      <point x="462" y="677" type="curve" smooth="yes"/>
      <point x="448" y="639"/>
      <point x="443" y="587"/>
      <point x="443" y="349" type="curve" smooth="yes"/>
      <point x="443" y="96"/>
      <point x="447" y="51"/>
    </contour>
    <contour>
      <point x="439" y="-1" type="line"/>
      <point x="431" y="49"/>
      <point x="427" y="94"/>
      <point x="427" y="349" type="curve" smooth="yes"/>
      <point x="427" y="591"/>
      <point x="432" y="643"/>
      <point x="446" y="683" type="curve"/>
      <point x="454" y="672" type="line"/>
      <point x="322" y="672" type="line"/>
      <point x="330" y="683" type="line"/>
      <point x="344" y="643"/>
      <point x="349" y="591"/>
      <point x="349" y="349" type="curve" smooth="yes"/>
      <point x="349" y="279" type="line" smooth="yes"/>
      <point x="349" y="270"/>
      <point x="337" y="268"/>
      <point x="334" y="276" type="curve" smooth="yes"/>
      <point x="144" y="677" type="line"/>
      <point x="151" y="672" type="line"/>
      <point x="41" y="672" type="line"/>
      <point x="49" y="683" type="line"/>
      <point x="63" y="643"/>
      <point x="68" y="591"/>
      <point x="68" y="349" type="curve" smooth="yes"/>
      <point x="68" y="93"/>
      <point x="63" y="38"/>
      <point x="49" y="-3" type="curve"/>
      <point x="41" y="8" type="line"/>
      <point x="173" y="8" type="line"/>
      <point x="165" y="-3" type="line"/>
      <point x="151" y="38"/>
      <point x="146" y="93"/>
      <point x="146" y="349" type="curve" smooth="yes"/>
      <point x="146" y="414" type="line" smooth="yes"/>
      <point x="146" y="423"/>
      <point x="158" y="425"/>
      <point x="161" y="417" type="curve" smooth="yes"/>
      <point x="358" y="3" type="line"/>
      <point x="351" y="8" type="line"/>
      <point x="447" y="8" type="line"/>
    </contour>
  </outline>
</glyph>
<glyph name="R" format="2">
  <advance width="455"/>
  <unicode hex="0052"/>
  <outline>
    <contour>
      <point x="32" y="-38" type="line"/>
      <point x="32" y="207" type="line"/>
      <point x="32" y="207"/>
      <point x="32" y="207"/>
      <point x="32" y="207" type="curve"/>
      <point x="32" y="518" type="line" smooth="yes"/>
      <point x="32" y="522"/>
      <point x="36" y="526"/>
      <point x="40" y="526" type="curve" smooth="yes"/>
      <point x="154" y="526" type="line"/>
      <point x="154" y="526"/>
      <point x="154" y="526"/>
      <point x="154" y="526" type="curve"/>
      <point x="231" y="526"/>
      <point x="280" y="461"/>
      <point x="280" y="362" type="curve"/>
      <point x="280" y="362"/>
      <point x="280" y="362"/>
      <point x="280" y="362" type="curve"/>
      <point x="280" y="273"/>
      <point x="239" y="210"/>
      <point x="179" y="199" type="curve" smooth="yes"/>
      <point x="179" y="199"/>
      <point x="178" y="199"/>
      <point x="178" y="199" type="curve" smooth="yes"/>
      <point x="40" y="199" type="line"/>
      <point x="40" y="215" type="line"/>
      <point x="178" y="215" type="line" smooth="yes"/>
      <point x="178" y="215"/>
      <point x="176" y="215"/>
      <point x="177" y="215" type="curve" smooth="yes"/>
      <point x="229" y="224"/>
      <point x="264" y="283"/>
      <point x="264" y="362" type="curve"/>
      <point x="264" y="362"/>
      <point x="264" y="362"/>
      <point x="264" y="362" type="curve"/>
      <point x="264" y="451"/>
      <point x="223" y="510"/>
      <point x="154" y="510" type="curve"/>
      <point x="154" y="510"/>
      <point x="154" y="510"/>
      <point x="154" y="510" type="curve"/>
      <point x="40" y="510" type="line" smooth="yes"/>
      <point x="36" y="510"/>
      <point x="48" y="522"/>
      <point x="48" y="518" type="curve" smooth="yes"/>
      <point x="48" y="207" type="line"/>
      <point x="48" y="207"/>
      <point x="48" y="207"/>
      <point x="48" y="207" type="curve"/>
      <point x="48" y="-38" type="line"/>
    </contour>
    <contour>
      <point x="185" y="210" type="line"/>
      <point x="299" y="-35" type="line"/>
      <point x="285" y="-41" type="line"/>
      <point x="171" y="204" type="line"/>
    </contour>
    <contour>
      <point x="167" y="362" type="line"/>
      <point x="46" y="202" type="line" smooth="yes"/>
      <point x="42" y="196"/>
      <point x="30" y="212"/>
      <point x="37" y="215" type="curve" smooth="yes"/>
      <point x="158" y="255" type="line"/>
      <point x="164" y="239" type="line"/>
      <point x="43" y="199" type="line" smooth="yes"/>
      <point x="35" y="197"/>
      <point x="29" y="206"/>
      <point x="34" y="212" type="curve" smooth="yes"/>
      <point x="155" y="372" type="line"/>
    </contour>
    <contour>
      <point x="182" y="-8" type="line"/>
      <point x="42" y="-46" type="line" smooth="yes"/>
      <point x="37" y="-47"/>
      <point x="32" y="-43"/>
      <point x="32" y="-38" type="curve" smooth="yes"/>
      <point x="32" y="0" type="line"/>
      <point x="48" y="0" type="line"/>
      <point x="48" y="-38" type="line" smooth="yes"/>
      <point x="48" y="-43"/>
      <point x="33" y="-32"/>
      <point x="38" y="-30" type="curve" smooth="yes"/>
      <point x="178" y="8" type="line"/>
    </contour>
    <contour>
      <point x="48" y="680" type="line"/>
      <point x="48" y="518" type="line" smooth="yes"/>
      <point x="48" y="513"/>
      <point x="33" y="524"/>
      <point x="38" y="526" type="curve" smooth="yes"/>
      <point x="162" y="563" type="line"/>
      <point x="166" y="547" type="line"/>
      <point x="42" y="510" type="line" smooth="yes"/>
      <point x="37" y="509"/>
      <point x="32" y="513"/>
      <point x="32" y="518" type="curve" smooth="yes"/>
      <point x="32" y="680" type="line"/>
    </contour>
    <contour>
      <point x="228" y="241" type="line"/>
      <point x="183" y="201" type="line" smooth="yes"/>
      <point x="176" y="195"/>
      <point x="166" y="210"/>
      <point x="174" y="214" type="curve" smooth="yes"/>
      <point x="316" y="284" type="line"/>
      <point x="324" y="270" type="line"/>
      <point x="182" y="200" type="line" smooth="yes"/>
      <point x="173" y="196"/>
      <point x="166" y="207"/>
      <point x="173" y="213" type="curve" smooth="yes"/>
      <point x="218" y="253" type="line"/>
    </contour>
    <contour>
      <point x="471" y="-8" type="line"/>
      <point x="294" y="-46" type="line" smooth="yes"/>
      <point x="287" y="-47"/>
      <point x="282" y="-40"/>
      <point x="285" y="-34" type="curve" smooth="yes"/>
      <point x="306" y="4" type="line"/>
      <point x="320" y="-4" type="line"/>
      <point x="299" y="-42" type="line" smooth="yes"/>
      <point x="296" y="-48"/>
      <point x="284" y="-32"/>
      <point x="290" y="-30" type="curve" smooth="yes"/>
      <point x="467" y="8" type="line"/>
    </contour>
    <contour>
      <point x="40" y="-8" type="line" smooth="yes"/>
      <point x="34" y="-8"/>
      <point x="31" y="-2"/>
      <point x="33" y="3" type="curve" smooth="yes"/>
      <point x="47" y="43"/>
      <point x="52" y="97"/>
      <point x="52" y="349" type="curve" smooth="yes"/>
      <point x="52" y="587"/>
      <point x="47" y="638"/>
      <point x="33" y="677" type="curve" smooth="yes"/>
      <point x="31" y="682"/>
      <point x="34" y="688"/>
      <point x="40" y="688" type="curve" smooth="yes"/>
      <point x="224" y="688" type="line" smooth="yes"/>
      <point x="334" y="688"/>
      <point x="403" y="598"/>
      <point x="403" y="464" type="curve" smooth="yes"/>
      <point x="403" y="377"/>
      <point x="373" y="308"/>
      <point x="325" y="271" type="curve"/>
      <point x="327" y="280" type="line"/>
      <point x="419" y="88"/>
      <point x="446" y="41"/>
      <point x="475" y="5" type="curve" smooth="yes"/>
      <point x="479" y="0"/>
      <point x="476" y="-8"/>
      <point x="469" y="-8" type="curve" smooth="yes"/>
      <point x="313" y="-8" type="line" smooth="yes"/>
      <point x="309" y="-8"/>
      <point x="305" y="-5"/>
      <point x="305" y="0" type="curve" smooth="yes"/>
      <point x="303" y="33"/>
      <point x="288" y="78"/>
      <point x="216" y="244" type="curve"/>
      <point x="223" y="239" type="line"/>
      <point x="161" y="239" type="line"/>
      <point x="169" y="247" type="line"/>
      <point x="170" y="81"/>
      <point x="176" y="36"/>
      <point x="188" y="3" type="curve" smooth="yes"/>
      <point x="189" y="-3"/>
      <point x="186" y="-8"/>
      <point x="180" y="-8" type="curve" smooth="yes"/>
    </contour>
    <contour>
      <point x="225" y="547" type="curve" smooth="yes"/>
      <point x="164" y="547" type="line"/>
      <point x="172" y="554" type="line"/>
      <point x="169" y="511"/>
      <point x="169" y="452"/>
      <point x="169" y="367" type="curve"/>
      <point x="161" y="375" type="line"/>
      <point x="232" y="375" type="line" smooth="yes"/>
      <point x="262" y="375"/>
      <point x="282" y="410"/>
      <point x="282" y="461" type="curve" smooth="yes"/>
      <point x="282" y="512"/>
      <point x="262" y="547"/>
    </contour>
    <contour>
      <point x="40" y="8" type="line"/>
      <point x="180" y="8" type="line"/>
      <point x="172" y="-3" type="line"/>
      <point x="160" y="32"/>
      <point x="154" y="77"/>
      <point x="153" y="247" type="curve" smooth="yes"/>
      <point x="153" y="251"/>
      <point x="157" y="255"/>
      <point x="161" y="255" type="curve" smooth="yes"/>
      <point x="223" y="255" type="line" smooth="yes"/>
      <point x="226" y="255"/>
      <point x="229" y="253"/>
      <point x="230" y="250" type="curve" smooth="yes"/>
      <point x="304" y="80"/>
      <point x="319" y="35"/>
      <point x="321" y="0" type="curve"/>
      <point x="313" y="8" type="line"/>
      <point x="469" y="8" type="line"/>
      <point x="463" y="-5" type="line"/>
      <point x="434" y="31"/>
      <point x="405" y="80"/>
      <point x="313" y="274" type="curve" smooth="yes"/>
      <point x="311" y="277"/>
      <point x="312" y="281"/>
      <point x="315" y="283" type="curve" smooth="yes"/>
      <point x="359" y="318"/>
      <point x="387" y="383"/>
      <point x="387" y="464" type="curve" smooth="yes"/>
      <point x="387" y="588"/>
      <point x="326" y="672"/>
      <point x="224" y="672" type="curve" smooth="yes"/>
      <point x="40" y="672" type="line"/>
      <point x="47" y="683" type="line"/>
      <point x="63" y="644"/>
      <point x="68" y="591"/>
      <point x="68" y="349" type="curve" smooth="yes"/>
      <point x="68" y="93"/>
      <point x="63" y="37"/>
      <point x="47" y="-3" type="curve"/>
    </contour>
    <contour>
      <point x="225" y="563" type="line" smooth="yes"/>
      <point x="270" y="563"/>
      <point x="298" y="524"/>
      <point x="298" y="461" type="curve" smooth="yes"/>
      <point x="298" y="398"/>
      <point x="270" y="359"/>
      <point x="232" y="359" type="curve" smooth="yes"/>
      <point x="161" y="359" type="line" smooth="yes"/>
      <point x="157" y="359"/>
      <point x="153" y="363"/>
      <point x="153" y="367" type="curve" smooth="yes"/>
      <point x="153" y="452"/>
      <point x="153" y="511"/>
      <point x="156" y="556" type="curve" smooth="yes"/>
      <point x="156" y="560"/>
      <point x="160" y="563"/>
      <point x="164" y="563" type="curve" smooth="yes"/>
    </contour>
  </outline>
</glyph>
<glyph name="T" format="2">
  <advance width="389"/>
  <unicode hex="0054"/>
  <outline>
    <contour>
      <point x="256" y="508" type="line"/>
      <point x="123" y="508" type="line"/>
      <point x="123" y="508"/>
      <point x="123" y="508"/>
      <point x="123" y="508" type="curve"/>
      <point x="-9" y="508" type="line"/>
      <point x="-9" y="524" type="line"/>
      <point x="123" y="524" type="line"/>
      <point x="123" y="524"/>
      <point x="123" y="524"/>
      <point x="123" y="524" type="curve"/>
      <point x="256" y="524" type="line"/>
    </contour>
    <contour>
      <point x="131" y="516" type="line"/>
      <point x="131" y="-38" type="line"/>
      <point x="115" y="-38" type="line"/>
      <point x="115" y="516" type="line"/>
    </contour>
    <contour>
      <point x="266" y="-8" type="line"/>
      <point x="125" y="-46" type="line" smooth="yes"/>
      <point x="120" y="-47"/>
      <point x="115" y="-43"/>
      <point x="115" y="-38" type="curve" smooth="yes"/>
      <point x="117" y="0" type="line"/>
      <point x="133" y="0" type="line"/>
      <point x="131" y="-38" type="line" smooth="yes"/>
      <point x="131" y="-44"/>
      <point x="116" y="-32"/>
      <point x="121" y="-30" type="curve" smooth="yes"/>
      <point x="262" y="8" type="line"/>
    </contour>
    <contour>
      <point x="378" y="675" type="line"/>
      <point x="263" y="511" type="line" smooth="yes"/>
      <point x="259" y="506"/>
      <point x="249" y="524"/>
      <point x="255" y="524" type="curve" smooth="yes"/>
      <point x="370" y="532" type="line"/>
      <point x="372" y="516" type="line"/>
      <point x="257" y="508" type="line" smooth="yes"/>
      <point x="250" y="508"/>
      <point x="246" y="515"/>
      <point x="249" y="521" type="curve" smooth="yes"/>
      <point x="364" y="685" type="line"/>
    </contour>
    <contour>
      <point x="20" y="516" type="line"/>
      <point x="-7" y="508" type="line" smooth="yes"/>
      <point x="-12" y="507"/>
      <point x="-18" y="511"/>
      <point x="-17" y="517" type="curve" smooth="yes"/>
      <point x="10" y="681" type="line"/>
      <point x="26" y="679" type="line"/>
      <point x="-1" y="515" type="line" smooth="yes"/>
      <point x="-2" y="509"/>
      <point x="-17" y="522"/>
      <point x="-11" y="524" type="curve" smooth="yes"/>
      <point x="16" y="532" type="line"/>
    </contour>
    <contour>
      <point x="149" y="549" type="line"/>
      <point x="130" y="512" type="line" smooth="yes"/>
      <point x="127" y="506"/>
      <point x="114" y="522"/>
      <point x="121" y="524" type="curve" smooth="yes"/>
      <point x="245" y="561" type="line"/>
      <point x="249" y="545" type="line"/>
      <point x="125" y="508" type="line" smooth="yes"/>
      <point x="119" y="506"/>
      <point x="113" y="513"/>
      <point x="116" y="520" type="curve" smooth="yes"/>
      <point x="135" y="557" type="line"/>
    </contour>
    <contour>
      <point x="125" y="-8" type="line" smooth="yes"/>
      <point x="119" y="-8"/>
      <point x="116" y="-3"/>
      <point x="117" y="3" type="curve" smooth="yes"/>
      <point x="131" y="42"/>
      <point x="136" y="97"/>
      <point x="136" y="349" type="curve" smooth="yes"/>
      <point x="136" y="442"/>
      <point x="135" y="506"/>
      <point x="134" y="553" type="curve"/>
      <point x="142" y="545" type="line"/>
      <point x="69" y="542"/>
      <point x="43" y="532"/>
      <point x="23" y="517" type="curve" smooth="yes"/>
      <point x="17" y="514"/>
      <point x="10" y="517"/>
      <point x="10" y="524" type="curve"/>
      <point x="10" y="680" type="line"/>
      <point x="10" y="684"/>
      <point x="14" y="688"/>
      <point x="18" y="688" type="curve" smooth="yes"/>
      <point x="371" y="688" type="line" smooth="yes"/>
      <point x="375" y="688"/>
      <point x="379" y="684"/>
      <point x="379" y="680" type="curve" smooth="yes"/>
      <point x="379" y="524" type="line" smooth="yes"/>
      <point x="379" y="517"/>
      <point x="372" y="514"/>
      <point x="366" y="517" type="curve" smooth="yes"/>
      <point x="346" y="532"/>
      <point x="319" y="542"/>
      <point x="247" y="545" type="curve"/>
      <point x="255" y="553" type="line"/>
      <point x="254" y="506"/>
      <point x="253" y="442"/>
      <point x="253" y="349" type="curve" smooth="yes"/>
      <point x="253" y="97"/>
      <point x="258" y="42"/>
      <point x="272" y="3" type="curve" smooth="yes"/>
      <point x="273" y="-3"/>
      <point x="270" y="-8"/>
      <point x="264" y="-8" type="curve" smooth="yes"/>
    </contour>
    <contour>
      <point x="125" y="8" type="line"/>
      <point x="264" y="8" type="line"/>
      <point x="256" y="-3" type="line"/>
      <point x="242" y="38"/>
      <point x="237" y="93"/>
      <point x="237" y="349" type="curve" smooth="yes"/>
      <point x="237" y="442"/>
      <point x="238" y="506"/>
      <point x="239" y="553" type="curve" smooth="yes"/>
      <point x="239" y="558"/>
      <point x="243" y="561"/>
      <point x="247" y="561" type="curve" smooth="yes"/>
      <point x="325" y="558"/>
      <point x="354" y="546"/>
      <point x="376" y="531" type="curve"/>
      <point x="363" y="524" type="line"/>
      <point x="363" y="680" type="line"/>
      <point x="371" y="672" type="line"/>
      <point x="18" y="672" type="line"/>
      <point x="26" y="680" type="line"/>
      <point x="26" y="524" type="line"/>
      <point x="13" y="531" type="line"/>
      <point x="35" y="546"/>
      <point x="63" y="558"/>
      <point x="142" y="561" type="curve" smooth="yes"/>
      <point x="146" y="561"/>
      <point x="150" y="558"/>
      <point x="150" y="553" type="curve" smooth="yes"/>
      <point x="151" y="506"/>
      <point x="152" y="442"/>
      <point x="152" y="349" type="curve" smooth="yes"/>
      <point x="152" y="93"/>
      <point x="147" y="38"/>
      <point x="133" y="-3" type="curve"/>
    </contour>
  </outline>
</glyph>
<glyph name="W" format="2">
  <advance width="660"/>
  <unicode hex="0057"/>
  <outline>
    <contour>
      <point x="252" y="-8" type="line"/>
      <point x="145" y="-36" type="line" smooth="yes"/>
      <point x="137" y="-38"/>
      <point x="132" y="-28"/>
      <point x="137" y="-22" type="curve" smooth="yes"/>
      <point x="165" y="6" type="line"/>
      <point x="177" y="-6" type="line"/>
      <point x="149" y="-34" type="line" smooth="yes"/>
      <point x="143" y="-39"/>
      <point x="133" y="-22"/>
      <point x="141" y="-20" type="curve" smooth="yes"/>
      <point x="248" y="8" type="line"/>
    </contour>
    <contour>
      <point x="18" y="681" type="line"/>
      <point x="32" y="519" type="line" smooth="yes"/>
      <point x="33" y="512"/>
      <point x="13" y="518"/>
      <point x="18" y="523" type="curve" smooth="yes"/>
      <point x="159" y="685" type="line"/>
      <point x="171" y="675" type="line"/>
      <point x="30" y="513" type="line" smooth="yes"/>
      <point x="25" y="507"/>
      <point x="17" y="510"/>
      <point x="16" y="517" type="curve" smooth="yes"/>
      <point x="2" y="679" type="line"/>
    </contour>
    <contour>
      <point x="491" y="-8" type="line"/>
      <point x="380" y="-36" type="line" smooth="yes"/>
      <point x="372" y="-38"/>
      <point x="366" y="-28"/>
      <point x="373" y="-22" type="curve" smooth="yes"/>
      <point x="403" y="6" type="line"/>
      <point x="413" y="-6" type="line"/>
      <point x="383" y="-34" type="line" smooth="yes"/>
      <point x="377" y="-39"/>
      <point x="368" y="-22"/>
      <point x="376" y="-20" type="curve" smooth="yes"/>
      <point x="487" y="8" type="line"/>
    </contour>
    <contour>
      <point x="293" y="679" type="line"/>
      <point x="271" y="507" type="line" smooth="yes"/>
      <point x="270" y="499"/>
      <point x="252" y="506"/>
      <point x="257" y="513" type="curve" smooth="yes"/>
      <point x="381" y="685" type="line"/>
      <point x="393" y="675" type="line"/>
      <point x="269" y="503" type="line" smooth="yes"/>
      <point x="265" y="497"/>
      <point x="254" y="501"/>
      <point x="255" y="509" type="curve" smooth="yes"/>
      <point x="277" y="681" type="line"/>
    </contour>
    <contour>
      <point x="511" y="680" type="line"/>
      <point x="508" y="518" type="line" smooth="yes"/>
      <point x="508" y="511"/>
      <point x="489" y="518"/>
      <point x="494" y="523" type="curve" smooth="yes"/>
      <point x="644" y="685" type="line"/>
      <point x="656" y="675" type="line"/>
      <point x="506" y="513" type="line" smooth="yes"/>
      <point x="501" y="507"/>
      <point x="492" y="511"/>
      <point x="492" y="518" type="curve" smooth="yes"/>
      <point x="495" y="680" type="line"/>
    </contour>
    <contour>
      <point x="508" y="516" type="line"/>
      <point x="386" y="-30" type="line" smooth="yes"/>
      <point x="384" y="-38"/>
      <point x="372" y="-38"/>
      <point x="370" y="-30" type="curve" smooth="yes"/>
      <point x="255" y="506" type="line" smooth="yes"/>
      <point x="253" y="515"/>
      <point x="273" y="515"/>
      <point x="271" y="506" type="curve" smooth="yes"/>
      <point x="151" y="-30" type="line" smooth="yes"/>
      <point x="149" y="-38"/>
      <point x="137" y="-38"/>
      <point x="135" y="-30" type="curve" smooth="yes"/>
      <point x="16" y="516" type="line"/>
      <point x="32" y="520" type="line"/>
      <point x="151" y="-26" type="line" smooth="yes"/>
      <point x="153" y="-35"/>
      <point x="133" y="-35"/>
      <point x="135" y="-26" type="curve" smooth="yes"/>
      <point x="255" y="510" type="line" smooth="yes"/>
      <point x="257" y="518"/>
      <point x="269" y="518"/>
      <point x="271" y="510" type="curve" smooth="yes"/>
      <point x="386" y="-26" type="line" smooth="yes"/>
      <point x="388" y="-35"/>
      <point x="368" y="-35"/>
      <point x="370" y="-26" type="curve" smooth="yes"/>
      <point x="492" y="520" type="line"/>
    </contour>
    <contour>
      <point x="226" y="284" type="line"/>
      <point x="151" y="-30" type="line"/>
      <point x="135" y="-26" type="line"/>
      <point x="210" y="288" type="line"/>
    </contour>
    <contour>
      <point x="459" y="286" type="line"/>
      <point x="386" y="-30" type="line"/>
      <point x="370" y="-26" type="line"/>
      <point x="443" y="290" type="line"/>
    </contour>
    <contour>
      <point x="270" y="512" type="line"/>
      <point x="337" y="394" type="line"/>
      <point x="323" y="386" type="line"/>
      <point x="256" y="504" type="line"/>
    </contour>
    <contour>
      <point x="408" y="-8" type="line" smooth="yes"/>
      <point x="404" y="-8"/>
      <point x="400" y="-5"/>
      <point x="400" y="0" type="curve" smooth="yes"/>
      <point x="398" y="41"/>
      <point x="374" y="168"/>
      <point x="322" y="388" type="curve"/>
      <point x="338" y="388" type="line"/>
      <point x="286" y="155"/>
      <point x="257" y="42"/>
      <point x="258" y="0" type="curve" smooth="yes"/>
      <point x="258" y="-4"/>
      <point x="254" y="-8"/>
      <point x="250" y="-8" type="curve" smooth="yes"/>
      <point x="171" y="-8" type="line" smooth="yes"/>
      <point x="167" y="-8"/>
      <point x="163" y="-5"/>
      <point x="163" y="-1" type="curve" smooth="yes"/>
      <point x="159" y="38"/>
      <point x="150" y="91"/>
      <point x="95" y="329" type="curve" smooth="yes"/>
      <point x="36" y="582"/>
      <point x="22" y="637"/>
      <point x="3" y="677" type="curve" smooth="yes"/>
      <point x="0" y="682"/>
      <point x="4" y="688"/>
      <point x="10" y="688" type="curve" smooth="yes"/>
      <point x="165" y="688" type="line" smooth="yes"/>
      <point x="170" y="688"/>
      <point x="174" y="683"/>
      <point x="173" y="678" type="curve" smooth="yes"/>
      <point x="157" y="629"/>
      <point x="162" y="584"/>
      <point x="226" y="288" type="curve"/>
      <point x="210" y="288" type="line"/>
      <point x="276" y="586"/>
      <point x="279" y="631"/>
      <point x="277" y="680" type="curve" smooth="yes"/>
      <point x="277" y="684"/>
      <point x="280" y="688"/>
      <point x="285" y="688" type="curve" smooth="yes"/>
      <point x="387" y="688" type="line" smooth="yes"/>
      <point x="392" y="688"/>
      <point x="395" y="684"/>
      <point x="395" y="680" type="curve" smooth="yes"/>
      <point x="392" y="631"/>
      <point x="394" y="585"/>
      <point x="459" y="290" type="curve"/>
      <point x="443" y="290" type="line"/>
      <point x="507" y="581"/>
      <point x="512" y="629"/>
      <point x="495" y="677" type="curve" smooth="yes"/>
      <point x="494" y="683"/>
      <point x="497" y="688"/>
      <point x="503" y="688" type="curve" smooth="yes"/>
      <point x="650" y="688" type="line" smooth="yes"/>
      <point x="656" y="688"/>
      <point x="660" y="682"/>
      <point x="657" y="677" type="curve" smooth="yes"/>
      <point x="638" y="637"/>
      <point x="624" y="582"/>
      <point x="565" y="329" type="curve" smooth="yes"/>
      <point x="510" y="91"/>
      <point x="497" y="39"/>
      <point x="497" y="0" type="curve" smooth="yes"/>
      <point x="497" y="-4"/>
      <point x="493" y="-8"/>
      <point x="489" y="-8" type="curve" smooth="yes"/>
    </contour>
    <contour>
      <point x="408" y="8" type="line"/>
      <point x="489" y="8" type="line"/>
      <point x="481" y="0" type="line"/>
      <point x="481" y="39"/>
      <point x="494" y="93"/>
      <point x="549" y="333" type="curve" smooth="yes"/>
      <point x="608" y="588"/>
      <point x="624" y="643"/>
      <point x="643" y="683" type="curve"/>
      <point x="650" y="672" type="line"/>
      <point x="503" y="672" type="line"/>
      <point x="511" y="683" type="line"/>
      <point x="528" y="633"/>
      <point x="525" y="586"/>
      <point x="459" y="286" type="curve" smooth="yes"/>
      <point x="457" y="278"/>
      <point x="445" y="278"/>
      <point x="443" y="286" type="curve" smooth="yes"/>
      <point x="378" y="584"/>
      <point x="376" y="631"/>
      <point x="379" y="680" type="curve"/>
      <point x="387" y="672" type="line"/>
      <point x="285" y="672" type="line"/>
      <point x="293" y="680" type="line"/>
      <point x="295" y="631"/>
      <point x="292" y="584"/>
      <point x="226" y="284" type="curve" smooth="yes"/>
      <point x="224" y="276"/>
      <point x="212" y="276"/>
      <point x="210" y="284" type="curve" smooth="yes"/>
      <point x="144" y="588"/>
      <point x="141" y="633"/>
      <point x="157" y="682" type="curve"/>
      <point x="165" y="672" type="line"/>
      <point x="10" y="672" type="line"/>
      <point x="17" y="683" type="line"/>
      <point x="36" y="643"/>
      <point x="52" y="588"/>
      <point x="111" y="333" type="curve" smooth="yes"/>
      <point x="166" y="93"/>
      <point x="175" y="40"/>
      <point x="179" y="1" type="curve"/>
      <point x="171" y="8" type="line"/>
      <point x="250" y="8" type="line"/>
      <point x="242" y="0" type="line"/>
      <point x="241" y="42"/>
      <point x="270" y="157"/>
      <point x="322" y="392" type="curve" smooth="yes"/>
      <point x="324" y="400"/>
      <point x="336" y="400"/>
      <point x="338" y="392" type="curve" smooth="yes"/>
      <point x="390" y="170"/>
      <point x="414" y="43"/>
      <point x="416" y="0" type="curve"/>
    </contour>
  </outline>
</glyph>
<glyph name="bracketleft" format="2">
  <advance width="323"/>
  <unicode hex="005B"/>
  <outline>
    <contour>
      <point x="313" y="-143" type="line"/>
      <point x="228" y="-149"/>
      <point x="136" y="-153"/>
      <point x="59" y="-153" type="curve" smooth="yes"/>
      <point x="55" y="-153"/>
      <point x="51" y="-149"/>
      <point x="51" y="-145" type="curve" smooth="yes"/>
      <point x="51" y="625" type="line" smooth="yes"/>
      <point x="51" y="629"/>
      <point x="54" y="632"/>
      <point x="58" y="633" type="curve" smooth="yes"/>
      <point x="133" y="646"/>
      <point x="224" y="715"/>
      <point x="306" y="820" type="curve"/>
      <point x="318" y="810" type="line"/>
      <point x="234" y="701"/>
      <point x="139" y="630"/>
      <point x="60" y="617" type="curve" smooth="yes"/>
      <point x="56" y="616"/>
      <point x="67" y="629"/>
      <point x="67" y="625" type="curve" smooth="yes"/>
      <point x="67" y="-145" type="line" smooth="yes"/>
      <point x="67" y="-149"/>
      <point x="55" y="-137"/>
      <point x="59" y="-137" type="curve" smooth="yes"/>
      <point x="136" y="-137"/>
      <point x="228" y="-133"/>
      <point x="311" y="-127" type="curve"/>
    </contour>
    <contour>
      <point x="68" y="795" type="line"/>
      <point x="67" y="625" type="line" smooth="yes"/>
      <point x="67" y="620"/>
      <point x="51" y="631"/>
      <point x="57" y="633" type="curve" smooth="yes"/>
      <point x="181" y="671" type="line"/>
      <point x="185" y="655" type="line"/>
      <point x="61" y="617" type="line" smooth="yes"/>
      <point x="56" y="616"/>
      <point x="51" y="620"/>
      <point x="51" y="625" type="curve" smooth="yes"/>
      <point x="52" y="795" type="line"/>
    </contour>
    <contour>
      <point x="189" y="12" type="line"/>
      <point x="65" y="-150" type="line" smooth="yes"/>
      <point x="61" y="-156"/>
      <point x="51" y="-153"/>
      <point x="51" y="-145" type="curve" smooth="yes"/>
      <point x="52" y="-115" type="line"/>
      <point x="68" y="-115" type="line"/>
      <point x="67" y="-145" type="line" smooth="yes"/>
      <point x="67" y="-153"/>
      <point x="48" y="-146"/>
      <point x="53" y="-140" type="curve" smooth="yes"/>
      <point x="177" y="22" type="line"/>
    </contour>
    <contour>
      <point x="61" y="-123" type="curve" smooth="yes"/>
      <point x="55" y="-124"/>
      <point x="51" y="-118"/>
      <point x="52" y="-112" type="curve" smooth="yes"/>
      <point x="70" y="-62"/>
      <point x="71" y="11"/>
      <point x="71" y="340" type="curve" smooth="yes"/>
      <point x="71" y="669"/>
      <point x="70" y="742"/>
      <point x="52" y="792" type="curve" smooth="yes"/>
      <point x="51" y="798"/>
      <point x="55" y="804"/>
      <point x="61" y="803" type="curve" smooth="yes"/>
      <point x="138" y="795"/>
      <point x="227" y="801"/>
      <point x="310" y="823" type="curve" smooth="yes"/>
      <point x="316" y="824"/>
      <point x="321" y="819"/>
      <point x="320" y="814" type="curve" smooth="yes"/>
      <point x="305" y="733"/>
      <point x="254" y="676"/>
      <point x="185" y="655" type="curve"/>
      <point x="191" y="663" type="line"/>
      <point x="188" y="605"/>
      <point x="188" y="511"/>
      <point x="188" y="340" type="curve" smooth="yes"/>
      <point x="188" y="169"/>
      <point x="188" y="75"/>
      <point x="191" y="17" type="curve"/>
      <point x="185" y="25" type="line"/>
      <point x="254" y="4"/>
      <point x="305" y="-53"/>
      <point x="320" y="-134" type="curve" smooth="yes"/>
      <point x="321" y="-139"/>
      <point x="316" y="-144"/>
      <point x="310" y="-143" type="curve" smooth="yes"/>
      <point x="227" y="-121"/>
      <point x="138" y="-115"/>
    </contour>
    <contour>
      <point x="59" y="-107" type="line"/>
      <point x="138" y="-99"/>
      <point x="229" y="-105"/>
      <point x="314" y="-127" type="curve"/>
      <point x="304" y="-136" type="line"/>
      <point x="291" y="-63"/>
      <point x="244" y="-10"/>
      <point x="181" y="9" type="curve" smooth="yes"/>
      <point x="177" y="10"/>
      <point x="175" y="13"/>
      <point x="175" y="17" type="curve" smooth="yes"/>
      <point x="172" y="75"/>
      <point x="172" y="169"/>
      <point x="172" y="340" type="curve" smooth="yes"/>
      <point x="172" y="511"/>
      <point x="172" y="605"/>
      <point x="175" y="663" type="curve" smooth="yes"/>
      <point x="175" y="667"/>
      <point x="177" y="670"/>
      <point x="181" y="671" type="curve" smooth="yes"/>
      <point x="244" y="690"/>
      <point x="291" y="743"/>
      <point x="304" y="816" type="curve"/>
      <point x="314" y="807" type="line"/>
      <point x="229" y="785"/>
      <point x="138" y="779"/>
      <point x="59" y="787" type="curve"/>
      <point x="68" y="798" type="line"/>
      <point x="86" y="746"/>
      <point x="87" y="673"/>
      <point x="87" y="340" type="curve" smooth="yes"/>
      <point x="87" y="7"/>
      <point x="86" y="-66"/>
      <point x="68" y="-118" type="curve"/>
    </contour>
  </outline>
</glyph>
<glyph name="asciicircum" format="2">
  <advance width="396"/>
  <unicode hex="005E"/>
  <outline>
    <contour>
      <point x="22" y="228" type="line"/>
      <point x="120" y="471" type="line" smooth="yes"/>
      <point x="122" y="478"/>
      <point x="132" y="478"/>
      <point x="134" y="471" type="curve" smooth="yes"/>
      <point x="231" y="228" type="line"/>
      <point x="217" y="222" type="line"/>
      <point x="120" y="465" type="line" smooth="yes"/>
      <point x="117" y="472"/>
      <point x="137" y="472"/>
      <point x="134" y="465" type="curve" smooth="yes"/>
      <point x="36" y="222" type="line"/>
    </contour>
    <contour>
      <point x="130" y="256" type="line"/>
      <point x="32" y="218" type="line" smooth="yes"/>
      <point x="27" y="216"/>
      <point x="22" y="219"/>
      <point x="21" y="224" type="curve" smooth="yes"/>
      <point x="15" y="262" type="line"/>
      <point x="31" y="264" type="line"/>
      <point x="37" y="226" type="line" smooth="yes"/>
      <point x="38" y="221"/>
      <point x="21" y="231"/>
      <point x="26" y="232" type="curve" smooth="yes"/>
      <point x="124" y="270" type="line"/>
    </contour>
    <contour>
      <point x="373" y="255" type="line"/>
      <point x="226" y="217" type="line" smooth="yes"/>
      <point x="218" y="215"/>
      <point x="212" y="226"/>
      <point x="219" y="231" type="curve" smooth="yes"/>
      <point x="263" y="269" type="line"/>
      <point x="273" y="257" type="line"/>
      <point x="229" y="219" type="line" smooth="yes"/>
      <point x="223" y="213"/>
      <point x="214" y="231"/>
      <point x="222" y="233" type="curve" smooth="yes"/>
      <point x="369" y="271" type="line"/>
    </contour>
    <contour>
      <point x="205" y="692" type="line"/>
      <point x="135" y="466" type="line" smooth="yes"/>
      <point x="133" y="462"/>
      <point x="126" y="477"/>
      <point x="130" y="475" type="curve" smooth="yes"/>
      <point x="200" y="449" type="line"/>
      <point x="194" y="435" type="line"/>
      <point x="124" y="461" type="line" smooth="yes"/>
      <point x="120" y="462"/>
      <point x="118" y="466"/>
      <point x="119" y="470" type="curve" smooth="yes"/>
      <point x="189" y="696" type="line"/>
    </contour>
    <contour>
      <point x="134" y="260" type="line" smooth="yes"/>
      <point x="133" y="257"/>
      <point x="130" y="255"/>
      <point x="127" y="255" type="curve" smooth="yes"/>
      <point x="23" y="255" type="line" smooth="yes"/>
      <point x="17" y="255"/>
      <point x="13" y="261"/>
      <point x="16" y="266" type="curve" smooth="yes"/>
      <point x="190" y="697" type="line" smooth="yes"/>
      <point x="192" y="704"/>
      <point x="202" y="704"/>
      <point x="204" y="697" type="curve" smooth="yes"/>
      <point x="378" y="266" type="line" smooth="yes"/>
      <point x="381" y="261"/>
      <point x="377" y="255"/>
      <point x="371" y="255" type="curve" smooth="yes"/>
      <point x="268" y="255" type="line" smooth="yes"/>
      <point x="265" y="255"/>
      <point x="262" y="257"/>
      <point x="261" y="260" type="curve" smooth="yes"/>
      <point x="190" y="439" type="line"/>
      <point x="204" y="439" type="line"/>
    </contour>
    <contour>
      <point x="120" y="266" type="line"/>
      <point x="190" y="445" type="line" smooth="yes"/>
      <point x="192" y="452"/>
      <point x="202" y="452"/>
      <point x="204" y="445" type="curve" smooth="yes"/>
      <point x="275" y="266" type="line"/>
      <point x="268" y="271" type="line"/>
      <point x="371" y="271" type="line"/>
      <point x="364" y="260" type="line"/>
      <point x="190" y="691" type="line"/>
      <point x="204" y="691" type="line"/>
      <point x="30" y="260" type="line"/>
      <point x="23" y="271" type="line"/>
      <point x="127" y="271" type="line"/>
    </contour>
  </outline>
</glyph>
<glyph name="cent" format="2">
  <advance width="331"/>
  <unicode hex="00A2"/>
  <outline>
    <contour>
      <point x="128" y="523" type="line"/>
      <point x="123" y="409" type="line"/>
      <point x="107" y="409" type="line"/>
      <point x="112" y="523" type="line"/>
    </contour>
    <contour>
      <point x="178" y="392" type="line"/>
      <point x="157" y="401"/>
      <point x="135" y="404"/>
      <point x="116" y="401" type="curve" smooth="yes"/>
      <point x="116" y="401"/>
      <point x="116" y="401"/>
      <point x="116" y="401" type="curve" smooth="yes"/>
      <point x="51" y="390"/>
      <point x="8" y="318"/>
      <point x="8" y="213" type="curve"/>
      <point x="8" y="213"/>
      <point x="8" y="213"/>
      <point x="8" y="213" type="curve"/>
      <point x="8" y="116"/>
      <point x="44" y="47"/>
      <point x="102" y="29" type="curve" smooth="yes"/>
      <point x="102" y="29"/>
      <point x="102" y="29"/>
      <point x="102" y="29" type="curve" smooth="yes"/>
      <point x="127" y="21"/>
      <point x="153" y="23"/>
      <point x="178" y="34" type="curve"/>
      <point x="184" y="20" type="line"/>
      <point x="157" y="7"/>
      <point x="125" y="5"/>
      <point x="98" y="13" type="curve" smooth="yes"/>
      <point x="98" y="13"/>
      <point x="98" y="13"/>
      <point x="98" y="13" type="curve" smooth="yes"/>
      <point x="34" y="33"/>
      <point x="-8" y="106"/>
      <point x="-8" y="213" type="curve"/>
      <point x="-8" y="213"/>
      <point x="-8" y="213"/>
      <point x="-8" y="213" type="curve"/>
      <point x="-8" y="328"/>
      <point x="42" y="404"/>
      <point x="114" y="417" type="curve" smooth="yes"/>
      <point x="114" y="417"/>
      <point x="114" y="417"/>
      <point x="114" y="417" type="curve" smooth="yes"/>
      <point x="135" y="420"/>
      <point x="161" y="417"/>
      <point x="184" y="406" type="curve"/>
    </contour>
    <contour>
      <point x="108" y="21" type="line"/>
      <point x="103" y="-93" type="line"/>
      <point x="87" y="-93" type="line"/>
      <point x="92" y="21" type="line"/>
    </contour>
    <contour>
      <point x="302" y="537" type="line"/>
      <point x="187" y="394" type="line" smooth="yes"/>
      <point x="183" y="389"/>
      <point x="174" y="407"/>
      <point x="181" y="407" type="curve" smooth="yes"/>
      <point x="296" y="408" type="line"/>
      <point x="296" y="392" type="line"/>
      <point x="181" y="391" type="line" smooth="yes"/>
      <point x="174" y="391"/>
      <point x="171" y="399"/>
      <point x="175" y="404" type="curve" smooth="yes"/>
      <point x="290" y="547" type="line"/>
    </contour>
    <contour>
      <point x="303" y="222" type="line"/>
      <point x="188" y="23" type="line" smooth="yes"/>
      <point x="184" y="16"/>
      <point x="170" y="31"/>
      <point x="177" y="34" type="curve" smooth="yes"/>
      <point x="292" y="91" type="line"/>
      <point x="300" y="77" type="line"/>
      <point x="185" y="20" type="line" smooth="yes"/>
      <point x="177" y="16"/>
      <point x="170" y="24"/>
      <point x="174" y="31" type="curve" smooth="yes"/>
      <point x="289" y="230" type="line"/>
    </contour>
    <contour>
      <point x="157" y="679" type="line"/>
      <point x="128" y="522" type="line" smooth="yes"/>
      <point x="126" y="513"/>
      <point x="109" y="521"/>
      <point x="114" y="528" type="curve" smooth="yes"/>
      <point x="231" y="685" type="line"/>
      <point x="243" y="675" type="line"/>
      <point x="126" y="518" type="line" smooth="yes"/>
      <point x="121" y="511"/>
      <point x="111" y="516"/>
      <point x="112" y="524" type="curve" smooth="yes"/>
      <point x="141" y="681" type="line"/>
    </contour>
    <contour>
      <point x="151" y="555" type="line"/>
      <point x="123" y="408" type="line" smooth="yes"/>
      <point x="121" y="399"/>
      <point x="104" y="407"/>
      <point x="109" y="414" type="curve" smooth="yes"/>
      <point x="226" y="570" type="line"/>
      <point x="238" y="560" type="line"/>
      <point x="121" y="404" type="line" smooth="yes"/>
      <point x="116" y="397"/>
      <point x="106" y="402"/>
      <point x="107" y="410" type="curve" smooth="yes"/>
      <point x="135" y="557" type="line"/>
    </contour>
    <contour>
      <point x="211" y="-57" type="line"/>
      <point x="98" y="-100" type="line" smooth="yes"/>
      <point x="91" y="-103"/>
      <point x="84" y="-96"/>
      <point x="88" y="-89" type="curve" smooth="yes"/>
      <point x="112" y="-46" type="line"/>
      <point x="126" y="-54" type="line"/>
      <point x="102" y="-97" type="line" smooth="yes"/>
      <point x="98" y="-103"/>
      <point x="85" y="-88"/>
      <point x="92" y="-86" type="curve" smooth="yes"/>
      <point x="205" y="-43" type="line"/>
    </contour>
    <contour>
      <point x="216" y="51" type="line"/>
      <point x="103" y="13" type="line" smooth="yes"/>
      <point x="96" y="11"/>
      <point x="90" y="18"/>
      <point x="93" y="24" type="curve" smooth="yes"/>
      <point x="118" y="83" type="line"/>
      <point x="132" y="77" type="line"/>
      <point x="107" y="18" type="line" smooth="yes"/>
      <point x="105" y="12"/>
      <point x="91" y="26"/>
      <point x="97" y="29" type="curve" smooth="yes"/>
      <point x="210" y="67" type="line"/>
    </contour>
    <contour>
      <point x="119" y="-58" type="line" smooth="yes"/>
      <point x="114" y="-58"/>
      <point x="111" y="-54"/>
      <point x="111" y="-50" type="curve" smooth="yes"/>
      <point x="117" y="80" type="line"/>
      <point x="121" y="73" type="line"/>
      <point x="54" y="111"/>
      <point x="11" y="200"/>
      <point x="11" y="313" type="curve" smooth="yes"/>
      <point x="11" y="439"/>
      <point x="63" y="531"/>
      <point x="140" y="563" type="curve"/>
      <point x="135" y="556" type="line"/>
      <point x="141" y="680" type="line" smooth="yes"/>
      <point x="141" y="685"/>
      <point x="145" y="688"/>
      <point x="149" y="688" type="curve" smooth="yes"/>
      <point x="237" y="688" type="line" smooth="yes"/>
      <point x="242" y="688"/>
      <point x="245" y="684"/>
      <point x="245" y="680" type="curve" smooth="yes"/>
      <point x="240" y="565" type="line"/>
      <point x="233" y="573" type="line"/>
      <point x="258" y="569"/>
      <point x="282" y="561"/>
      <point x="300" y="549" type="curve" smooth="yes"/>
      <point x="303" y="547"/>
      <point x="304" y="545"/>
      <point x="304" y="542" type="curve" smooth="yes"/>
      <point x="304" y="400" type="line" smooth="yes"/>
      <point x="304" y="393"/>
      <point x="295" y="389"/>
      <point x="290" y="395" type="curve" smooth="yes"/>
      <point x="267" y="422"/>
      <point x="235" y="445"/>
      <point x="204" y="445" type="curve" smooth="yes"/>
      <point x="159" y="445"/>
      <point x="131" y="393"/>
      <point x="131" y="313" type="curve" smooth="yes"/>
      <point x="131" y="233"/>
      <point x="159" y="181"/>
      <point x="204" y="181" type="curve" smooth="yes"/>
      <point x="235" y="181"/>
      <point x="267" y="204"/>
      <point x="290" y="231" type="curve" smooth="yes"/>
      <point x="295" y="237"/>
      <point x="304" y="233"/>
      <point x="304" y="226" type="curve" smooth="yes"/>
      <point x="304" y="84" type="line" smooth="yes"/>
      <point x="304" y="81"/>
      <point x="303" y="79"/>
      <point x="300" y="77" type="curve" smooth="yes"/>
      <point x="275" y="62"/>
      <point x="244" y="53"/>
      <point x="214" y="51" type="curve"/>
      <point x="221" y="59" type="line"/>
      <point x="216" y="-50" type="line" smooth="yes"/>
      <point x="216" y="-55"/>
      <point x="212" y="-58"/>
      <point x="208" y="-58" type="curve" smooth="yes"/>
    </contour>
    <contour>
      <point x="119" y="-42" type="line"/>
      <point x="208" y="-42" type="line"/>
      <point x="200" y="-50" type="line"/>
      <point x="205" y="59" type="line" smooth="yes"/>
      <point x="205" y="63"/>
      <point x="208" y="67"/>
      <point x="212" y="67" type="curve" smooth="yes"/>
      <point x="240" y="69"/>
      <point x="269" y="76"/>
      <point x="292" y="91" type="curve"/>
      <point x="288" y="84" type="line"/>
      <point x="288" y="226" type="line"/>
      <point x="302" y="221" type="line"/>
      <point x="275" y="190"/>
      <point x="239" y="165"/>
      <point x="204" y="165" type="curve" smooth="yes"/>
      <point x="151" y="165"/>
      <point x="115" y="219"/>
      <point x="115" y="313" type="curve" smooth="yes"/>
      <point x="115" y="407"/>
      <point x="151" y="461"/>
      <point x="204" y="461" type="curve" smooth="yes"/>
      <point x="239" y="461"/>
      <point x="275" y="436"/>
      <point x="302" y="405" type="curve"/>
      <point x="288" y="400" type="line"/>
      <point x="288" y="542" type="line"/>
      <point x="292" y="535" type="line"/>
      <point x="274" y="547"/>
      <point x="252" y="553"/>
      <point x="231" y="557" type="curve" smooth="yes"/>
      <point x="227" y="558"/>
      <point x="224" y="561"/>
      <point x="224" y="565" type="curve" smooth="yes"/>
      <point x="229" y="680" type="line"/>
      <point x="237" y="672" type="line"/>
      <point x="149" y="672" type="line"/>
      <point x="157" y="680" type="line"/>
      <point x="151" y="556" type="line" smooth="yes"/>
      <point x="151" y="553"/>
      <point x="149" y="550"/>
      <point x="146" y="549" type="curve" smooth="yes"/>
      <point x="73" y="519"/>
      <point x="27" y="431"/>
      <point x="27" y="313" type="curve" smooth="yes"/>
      <point x="27" y="206"/>
      <point x="66" y="123"/>
      <point x="129" y="87" type="curve" smooth="yes"/>
      <point x="132" y="85"/>
      <point x="133" y="83"/>
      <point x="133" y="80" type="curve" smooth="yes"/>
      <point x="127" y="-50" type="line"/>
    </contour>
  </outline>
</glyph>
<glyph name="brokenbar" format="2">
  <advance width="273"/>
  <unicode hex="00A6"/>
  <outline>
    <contour>
      <point x="73" y="588" type="line"/>
      <point x="73" y="332" type="line"/>
      <point x="57" y="332" type="line"/>
      <point x="57" y="588" type="line"/>
    </contour>
    <contour>
      <point x="57" y="-113" type="line"/>
      <point x="57" y="143" type="line"/>
      <point x="73" y="143" type="line"/>
      <point x="73" y="-113" type="line"/>
    </contour>
    <contour>
      <point x="188" y="-83" type="line"/>
      <point x="67" y="-121" type="line" smooth="yes"/>
      <point x="60" y="-123"/>
      <point x="54" y="-115"/>
      <point x="58" y="-109" type="curve" smooth="yes"/>
      <point x="80" y="-71" type="line"/>
      <point x="94" y="-79" type="line"/>
      <point x="72" y="-117" type="line" smooth="yes"/>
      <point x="68" y="-123"/>
      <point x="56" y="-108"/>
      <point x="63" y="-105" type="curve" smooth="yes"/>
      <point x="184" y="-67" type="line"/>
    </contour>
    <contour>
      <point x="95" y="749" type="line"/>
      <point x="73" y="587" type="line" smooth="yes"/>
      <point x="72" y="579"/>
      <point x="54" y="586"/>
      <point x="59" y="593" type="curve" smooth="yes"/>
      <point x="180" y="755" type="line"/>
      <point x="192" y="745" type="line"/>
      <point x="71" y="583" type="line" smooth="yes"/>
      <point x="66" y="577"/>
      <point x="56" y="581"/>
      <point x="57" y="589" type="curve" smooth="yes"/>
      <point x="79" y="751" type="line"/>
    </contour>
    <contour>
      <point x="188" y="362" type="line"/>
      <point x="67" y="324" type="line" smooth="yes"/>
      <point x="60" y="322"/>
      <point x="54" y="330"/>
      <point x="58" y="336" type="curve" smooth="yes"/>
      <point x="80" y="374" type="line"/>
      <point x="94" y="366" type="line"/>
      <point x="72" y="328" type="line" smooth="yes"/>
      <point x="68" y="322"/>
      <point x="56" y="337"/>
      <point x="63" y="340" type="curve" smooth="yes"/>
      <point x="184" y="378" type="line"/>
    </contour>
    <contour>
      <point x="95" y="304" type="line"/>
      <point x="73" y="142" type="line" smooth="yes"/>
      <point x="72" y="134"/>
      <point x="54" y="141"/>
      <point x="59" y="148" type="curve" smooth="yes"/>
      <point x="180" y="310" type="line"/>
      <point x="192" y="300" type="line"/>
      <point x="71" y="138" type="line" smooth="yes"/>
      <point x="66" y="132"/>
      <point x="56" y="136"/>
      <point x="57" y="144" type="curve" smooth="yes"/>
      <point x="79" y="306" type="line"/>
    </contour>
    <contour>
      <point x="87" y="362" type="line" smooth="yes"/>
      <point x="83" y="362"/>
      <point x="79" y="366"/>
      <point x="79" y="370" type="curve" smooth="yes"/>
      <point x="79" y="750" type="line" smooth="yes"/>
      <point x="79" y="754"/>
      <point x="83" y="758"/>
      <point x="87" y="758" type="curve" smooth="yes"/>
      <point x="186" y="758" type="line" smooth="yes"/>
      <point x="190" y="758"/>
      <point x="194" y="754"/>
      <point x="194" y="750" type="curve" smooth="yes"/>
      <point x="194" y="370" type="line" smooth="yes"/>
      <point x="194" y="366"/>
      <point x="190" y="362"/>
      <point x="186" y="362" type="curve" smooth="yes"/>
    </contour>
    <contour>
      <point x="87" y="297" type="line"/>
      <point x="95" y="305" type="line"/>
      <point x="95" y="-75" type="line"/>
      <point x="87" y="-67" type="line"/>
      <point x="186" y="-67" type="line"/>
      <point x="178" y="-75" type="line"/>
      <point x="178" y="305" type="line"/>
      <point x="186" y="297" type="line"/>
    </contour>
    <contour>
      <point x="87" y="378" type="line"/>
      <point x="186" y="378" type="line"/>
      <point x="178" y="370" type="line"/>
      <point x="178" y="750" type="line"/>
      <point x="186" y="742" type="line"/>
      <point x="87" y="742" type="line"/>
      <point x="95" y="750" type="line"/>
      <point x="95" y="370" type="line"/>
    </contour>
    <contour>
      <point x="87" y="313" type="curve" smooth="yes"/>
      <point x="186" y="313" type="line" smooth="yes"/>
      <point x="190" y="313"/>
      <point x="194" y="309"/>
      <point x="194" y="305" type="curve" smooth="yes"/>
      <point x="194" y="-75" type="line" smooth="yes"/>
      <point x="194" y="-79"/>
      <point x="190" y="-83"/>
      <point x="186" y="-83" type="curve" smooth="yes"/>
      <point x="87" y="-83" type="line" smooth="yes"/>
      <point x="83" y="-83"/>
      <point x="79" y="-79"/>
      <point x="79" y="-75" type="curve" smooth="yes"/>
      <point x="79" y="305" type="line" smooth="yes"/>
      <point x="79" y="309"/>
      <point x="83" y="313"/>
    </contour>
  </outline>
</glyph>
<glyph name="ordfeminine" format="2">
  <advance width="351"/>
  <unicode hex="00AA"/>
  <outline>
    <contour>
      <point x="206" y="386" type="curve"/>
      <point x="206" y="386"/>
      <point x="206" y="386"/>
      <point x="206" y="386" type="curve"/>
      <point x="206" y="290"/>
      <point x="159" y="224"/>
      <point x="100" y="224" type="curve"/>
      <point x="100" y="224"/>
      <point x="100" y="224"/>
      <point x="100" y="224" type="curve"/>
      <point x="41" y="224"/>
      <point x="-3" y="289"/>
      <point x="-3" y="388" type="curve"/>
      <point x="-3" y="388"/>
      <point x="-3" y="388"/>
      <point x="-3" y="388" type="curve"/>
      <point x="-3" y="488"/>
      <point x="42" y="552"/>
      <point x="102" y="552" type="curve"/>
      <point x="102" y="552"/>
      <point x="102" y="552"/>
      <point x="102" y="552" type="curve"/>
      <point x="160" y="552"/>
      <point x="206" y="486"/>
    </contour>
    <contour>
      <point x="203" y="60" type="line"/>
      <point x="13" y="60" type="line"/>
      <point x="13" y="76" type="line"/>
      <point x="203" y="76" type="line"/>
    </contour>
    <contour>
      <point x="53" y="108" type="line"/>
      <point x="19" y="63" type="line" smooth="yes"/>
      <point x="14" y="56"/>
      <point x="3" y="61"/>
      <point x="5" y="70" type="curve" smooth="yes"/>
      <point x="39" y="224" type="line"/>
      <point x="55" y="220" type="line"/>
      <point x="21" y="66" type="line" smooth="yes"/>
      <point x="19" y="58"/>
      <point x="1" y="66"/>
      <point x="7" y="73" type="curve" smooth="yes"/>
      <point x="41" y="118" type="line"/>
    </contour>
    <contour>
      <point x="318" y="217" type="line"/>
      <point x="210" y="63" type="line" smooth="yes"/>
      <point x="205" y="57"/>
      <point x="193" y="72"/>
      <point x="200" y="75" type="curve" smooth="yes"/>
      <point x="308" y="120" type="line"/>
      <point x="314" y="106" type="line"/>
      <point x="206" y="61" type="line" smooth="yes"/>
      <point x="199" y="58"/>
      <point x="192" y="66"/>
      <point x="196" y="73" type="curve" smooth="yes"/>
      <point x="304" y="227" type="line"/>
    </contour>
    <contour>
      <point x="190" y="386" type="curve"/>
      <point x="190" y="473"/>
      <point x="152" y="536"/>
      <point x="102" y="536" type="curve"/>
      <point x="102" y="536"/>
      <point x="102" y="536"/>
      <point x="102" y="536" type="curve"/>
      <point x="50" y="536"/>
      <point x="13" y="476"/>
      <point x="13" y="388" type="curve"/>
      <point x="13" y="388"/>
      <point x="13" y="388"/>
      <point x="13" y="388" type="curve"/>
      <point x="13" y="301"/>
      <point x="49" y="240"/>
      <point x="100" y="240" type="curve"/>
      <point x="100" y="240"/>
      <point x="100" y="240"/>
      <point x="100" y="240" type="curve"/>
      <point x="151" y="240"/>
      <point x="190" y="302"/>
      <point x="190" y="386" type="curve"/>
      <point x="190" y="386"/>
      <point x="190" y="386"/>
    </contour>
    <contour>
      <point x="206" y="538" type="line"/>
      <point x="206" y="237" type="line"/>
      <point x="190" y="237" type="line"/>
      <point x="190" y="538" type="line"/>
    </contour>
    <contour>
      <point x="315" y="288" type="line"/>
      <point x="202" y="230" type="line" smooth="yes"/>
      <point x="195" y="226"/>
      <point x="187" y="234"/>
      <point x="191" y="241" type="curve" smooth="yes"/>
      <point x="220" y="299" type="line"/>
      <point x="234" y="291" type="line"/>
      <point x="205" y="233" type="line" smooth="yes"/>
      <point x="202" y="227"/>
      <point x="187" y="241"/>
      <point x="194" y="244" type="curve" smooth="yes"/>
      <point x="307" y="302" type="line"/>
    </contour>
    <contour>
      <point x="235" y="678" type="line"/>
      <point x="206" y="536" type="line" smooth="yes"/>
      <point x="204" y="528"/>
      <point x="187" y="536"/>
      <point x="192" y="543" type="curve" smooth="yes"/>
      <point x="305" y="685" type="line"/>
      <point x="317" y="675" type="line"/>
      <point x="204" y="533" type="line" smooth="yes"/>
      <point x="199" y="526"/>
      <point x="188" y="531"/>
      <point x="190" y="540" type="curve" smooth="yes"/>
      <point x="219" y="682" type="line"/>
    </contour>
    <contour>
      <point x="47" y="105" type="line" smooth="yes"/>
      <point x="43" y="105"/>
      <point x="39" y="109"/>
      <point x="39" y="113" type="curve" smooth="yes"/>
      <point x="39" y="222" type="line" smooth="yes"/>
      <point x="39" y="226"/>
      <point x="43" y="230"/>
      <point x="47" y="230" type="curve" smooth="yes"/>
      <point x="311" y="230" type="line" smooth="yes"/>
      <point x="315" y="230"/>
      <point x="319" y="226"/>
      <point x="319" y="222" type="curve" smooth="yes"/>
      <point x="319" y="113" type="line" smooth="yes"/>
      <point x="319" y="109"/>
      <point x="315" y="105"/>
      <point x="311" y="105" type="curve" smooth="yes"/>
    </contour>
    <contour>
      <point x="227" y="287" type="line" smooth="yes"/>
      <point x="223" y="287"/>
      <point x="219" y="291"/>
      <point x="219" y="295" type="curve" smooth="yes"/>
      <point x="219" y="321" type="line"/>
      <point x="233" y="316" type="line"/>
      <point x="214" y="291"/>
      <point x="188" y="276"/>
      <point x="160" y="276" type="curve" smooth="yes"/>
      <point x="87" y="276"/>
      <point x="25" y="361"/>
      <point x="25" y="488" type="curve" smooth="yes"/>
      <point x="25" y="617"/>
      <point x="87" y="700"/>
      <point x="160" y="700" type="curve" smooth="yes"/>
      <point x="188" y="700"/>
      <point x="214" y="685"/>
      <point x="233" y="659" type="curve"/>
      <point x="219" y="654" type="line"/>
      <point x="219" y="680" type="line" smooth="yes"/>
      <point x="219" y="684"/>
      <point x="223" y="688"/>
      <point x="227" y="688" type="curve" smooth="yes"/>
      <point x="311" y="688" type="line" smooth="yes"/>
      <point x="315" y="688"/>
      <point x="319" y="684"/>
      <point x="319" y="680" type="curve" smooth="yes"/>
      <point x="319" y="295" type="line" smooth="yes"/>
      <point x="319" y="291"/>
      <point x="315" y="287"/>
      <point x="311" y="287" type="curve" smooth="yes"/>
    </contour>
    <contour>
      <point x="173" y="388" type="curve" smooth="yes"/>
      <point x="203" y="388"/>
      <point x="222" y="431"/>
      <point x="222" y="488" type="curve" smooth="yes"/>
      <point x="222" y="545"/>
      <point x="203" y="587"/>
      <point x="173" y="587" type="curve" smooth="yes"/>
      <point x="143" y="587"/>
      <point x="125" y="546"/>
      <point x="125" y="488" type="curve" smooth="yes"/>
      <point x="125" y="431"/>
      <point x="143" y="388"/>
    </contour>
    <contour>
      <point x="47" y="121" type="line"/>
      <point x="311" y="121" type="line"/>
      <point x="303" y="113" type="line"/>
      <point x="303" y="222" type="line"/>
      <point x="311" y="214" type="line"/>
      <point x="47" y="214" type="line"/>
      <point x="55" y="222" type="line"/>
      <point x="55" y="113" type="line"/>
    </contour>
    <contour>
      <point x="227" y="303" type="line"/>
      <point x="311" y="303" type="line"/>
      <point x="303" y="295" type="line"/>
      <point x="303" y="680" type="line"/>
      <point x="311" y="672" type="line"/>
      <point x="227" y="672" type="line"/>
      <point x="235" y="680" type="line"/>
      <point x="235" y="654" type="line" smooth="yes"/>
      <point x="235" y="646"/>
      <point x="225" y="643"/>
      <point x="221" y="649" type="curve" smooth="yes"/>
      <point x="204" y="671"/>
      <point x="184" y="684"/>
      <point x="160" y="684" type="curve" smooth="yes"/>
      <point x="95" y="684"/>
      <point x="41" y="605"/>
      <point x="41" y="488" type="curve" smooth="yes"/>
      <point x="41" y="373"/>
      <point x="95" y="292"/>
      <point x="160" y="292" type="curve" smooth="yes"/>
      <point x="184" y="292"/>
      <point x="204" y="305"/>
      <point x="221" y="326" type="curve" smooth="yes"/>
      <point x="225" y="332"/>
      <point x="235" y="329"/>
      <point x="235" y="321" type="curve" smooth="yes"/>
      <point x="235" y="295" type="line"/>
    </contour>
    <contour>
      <point x="173" y="372" type="curve" smooth="yes"/>
      <point x="135" y="372"/>
      <point x="109" y="416"/>
      <point x="109" y="488" type="curve" smooth="yes"/>
      <point x="109" y="561"/>
      <point x="135" y="603"/>
      <point x="173" y="603" type="curve" smooth="yes"/>
      <point x="211" y="603"/>
      <point x="238" y="560"/>
      <point x="238" y="488" type="curve" smooth="yes"/>
      <point x="238" y="416"/>
      <point x="211" y="372"/>
    </contour>
  </outline>
</glyph>
<glyph name="guillemetleft" format="2">
  <advance width="532"/>
  <unicode hex="00AB"/>
  <outline>
    <contour>
      <point x="284" y="576" type="line"/>
      <point x="201" y="424"/>
      <point x="117" y="303"/>
      <point x="27" y="198" type="curve" smooth="yes"/>
      <point x="24" y="194"/>
      <point x="21" y="212"/>
      <point x="25" y="210" type="curve" smooth="yes"/>
      <point x="114" y="160"/>
      <point x="199" y="104"/>
      <point x="282" y="32" type="curve"/>
      <point x="272" y="20" type="line"/>
      <point x="189" y="92"/>
      <point x="106" y="146"/>
      <point x="17" y="196" type="curve" smooth="yes"/>
      <point x="13" y="198"/>
      <point x="12" y="204"/>
      <point x="15" y="208" type="curve" smooth="yes"/>
      <point x="105" y="313"/>
      <point x="187" y="432"/>
      <point x="270" y="584" type="curve"/>
    </contour>
    <contour>
      <point x="12" y="304" type="line"/>
      <point x="29" y="204" type="line" smooth="yes"/>
      <point x="30" y="199"/>
      <point x="12" y="207"/>
      <point x="17" y="210" type="curve" smooth="yes"/>
      <point x="176" y="310" type="line"/>
      <point x="184" y="296" type="line"/>
      <point x="25" y="196" type="line" smooth="yes"/>
      <point x="20" y="193"/>
      <point x="14" y="196"/>
      <point x="13" y="202" type="curve" smooth="yes"/>
      <point x="-4" y="302" type="line"/>
    </contour>
    <contour>
      <point x="511" y="576" type="line"/>
      <point x="427" y="424"/>
      <point x="343" y="303"/>
      <point x="254" y="198" type="curve" smooth="yes"/>
      <point x="251" y="194"/>
      <point x="248" y="212"/>
      <point x="252" y="210" type="curve" smooth="yes"/>
      <point x="341" y="160"/>
      <point x="425" y="104"/>
      <point x="509" y="32" type="curve"/>
      <point x="499" y="20" type="line"/>
      <point x="415" y="92"/>
      <point x="333" y="146"/>
      <point x="244" y="196" type="curve" smooth="yes"/>
      <point x="240" y="198"/>
      <point x="239" y="204"/>
      <point x="242" y="208" type="curve" smooth="yes"/>
      <point x="331" y="313"/>
      <point x="413" y="432"/>
      <point x="497" y="584" type="curve"/>
    </contour>
    <contour>
      <point x="238" y="304" type="line"/>
      <point x="256" y="204" type="line" smooth="yes"/>
      <point x="257" y="199"/>
      <point x="239" y="207"/>
      <point x="244" y="210" type="curve" smooth="yes"/>
      <point x="403" y="310" type="line"/>
      <point x="411" y="296" type="line"/>
      <point x="252" y="196" type="line" smooth="yes"/>
      <point x="247" y="193"/>
      <point x="241" y="196"/>
      <point x="240" y="202" type="curve" smooth="yes"/>
      <point x="222" y="302" type="line"/>
    </contour>
    <contour>
      <point x="187" y="299" type="curve"/>
      <point x="187" y="307" type="line"/>
      <point x="223" y="233"/>
      <point x="258" y="140"/>
      <point x="285" y="28" type="curve" smooth="yes"/>
      <point x="287" y="19"/>
      <point x="276" y="14"/>
      <point x="271" y="21" type="curve" smooth="yes"/>
      <point x="189" y="135"/>
      <point x="103" y="217"/>
      <point x="-1" y="297" type="curve" smooth="yes"/>
      <point x="-5" y="300"/>
      <point x="-5" y="306"/>
      <point x="-1" y="309" type="curve" smooth="yes"/>
      <point x="103" y="389"/>
      <point x="189" y="471"/>
      <point x="271" y="585" type="curve" smooth="yes"/>
      <point x="276" y="592"/>
      <point x="287" y="587"/>
      <point x="285" y="578" type="curve" smooth="yes"/>
      <point x="258" y="466"/>
      <point x="223" y="373"/>
    </contour>
    <contour>
      <point x="414" y="300" type="curve"/>
      <point x="414" y="306" type="line"/>
      <point x="449" y="233"/>
      <point x="485" y="140"/>
      <point x="512" y="28" type="curve" smooth="yes"/>
      <point x="514" y="19"/>
      <point x="503" y="14"/>
      <point x="498" y="21" type="curve" smooth="yes"/>
      <point x="415" y="135"/>
      <point x="330" y="217"/>
      <point x="225" y="297" type="curve" smooth="yes"/>
      <point x="221" y="300"/>
      <point x="221" y="306"/>
      <point x="225" y="309" type="curve" smooth="yes"/>
      <point x="330" y="389"/>
      <point x="415" y="471"/>
      <point x="498" y="585" type="curve" smooth="yes"/>
      <point x="503" y="592"/>
      <point x="514" y="587"/>
      <point x="512" y="578" type="curve" smooth="yes"/>
      <point x="485" y="466"/>
      <point x="449" y="373"/>
    </contour>
    <contour>
      <point x="173" y="307" type="curve" smooth="yes"/>
      <point x="209" y="379"/>
      <point x="242" y="472"/>
      <point x="269" y="582" type="curve"/>
      <point x="283" y="575" type="line"/>
      <point x="201" y="461"/>
      <point x="114" y="377"/>
      <point x="9" y="297" type="curve"/>
      <point x="9" y="309" type="line"/>
      <point x="114" y="229"/>
      <point x="201" y="145"/>
      <point x="283" y="31" type="curve"/>
      <point x="269" y="24" type="line"/>
      <point x="242" y="134"/>
      <point x="209" y="227"/>
      <point x="173" y="299" type="curve" smooth="yes"/>
      <point x="172" y="302"/>
      <point x="172" y="304"/>
    </contour>
    <contour>
      <point x="400" y="306" type="curve" smooth="yes"/>
      <point x="435" y="379"/>
      <point x="469" y="472"/>
      <point x="496" y="582" type="curve"/>
      <point x="510" y="575" type="line"/>
      <point x="427" y="461"/>
      <point x="340" y="377"/>
      <point x="235" y="297" type="curve"/>
      <point x="235" y="309" type="line"/>
      <point x="340" y="229"/>
      <point x="427" y="145"/>
      <point x="510" y="31" type="curve"/>
      <point x="496" y="24" type="line"/>
      <point x="469" y="134"/>
      <point x="435" y="227"/>
      <point x="400" y="300" type="curve" smooth="yes"/>
      <point x="399" y="302"/>
      <point x="399" y="304"/>
    </contour>
  </outline>
</glyph>
<glyph name="logicalnot" format="2">
  <advance width="346"/>
  <unicode hex="00AC"/>
  <outline>
    <contour>
      <point x="1" y="290" type="line"/>
      <point x="202" y="290" type="line" smooth="yes"/>
      <point x="206" y="290"/>
      <point x="210" y="286"/>
      <point x="210" y="282" type="curve" smooth="yes"/>
      <point x="210" y="136" type="line"/>
      <point x="194" y="136" type="line"/>
      <point x="194" y="282" type="line" smooth="yes"/>
      <point x="194" y="286"/>
      <point x="206" y="274"/>
      <point x="202" y="274" type="curve" smooth="yes"/>
      <point x="1" y="274" type="line"/>
    </contour>
    <contour>
      <point x="34" y="314" type="line"/>
      <point x="7" y="277" type="line" smooth="yes"/>
      <point x="2" y="270"/>
      <point x="-8" y="275"/>
      <point x="-7" y="283" type="curve" smooth="yes"/>
      <point x="20" y="447" type="line"/>
      <point x="36" y="445" type="line"/>
      <point x="9" y="281" type="line" smooth="yes"/>
      <point x="8" y="272"/>
      <point x="-10" y="280"/>
      <point x="-5" y="287" type="curve" smooth="yes"/>
      <point x="22" y="324" type="line"/>
    </contour>
    <contour>
      <point x="320" y="166" type="line"/>
      <point x="204" y="128" type="line" smooth="yes"/>
      <point x="197" y="126"/>
      <point x="191" y="134"/>
      <point x="195" y="140" type="curve" smooth="yes"/>
      <point x="220" y="178" type="line"/>
      <point x="234" y="170" type="line"/>
      <point x="209" y="132" type="line" smooth="yes"/>
      <point x="205" y="125"/>
      <point x="192" y="141"/>
      <point x="200" y="144" type="curve" smooth="yes"/>
      <point x="316" y="182" type="line"/>
    </contour>
    <contour>
      <point x="234" y="315" type="line"/>
      <point x="209" y="278" type="line" smooth="yes"/>
      <point x="203" y="269"/>
      <point x="189" y="278"/>
      <point x="195" y="287" type="curve" smooth="yes"/>
      <point x="311" y="451" type="line"/>
      <point x="325" y="441" type="line"/>
      <point x="209" y="277" type="line" smooth="yes"/>
      <point x="202" y="269"/>
      <point x="189" y="278"/>
      <point x="195" y="286" type="curve" smooth="yes"/>
      <point x="220" y="323" type="line"/>
    </contour>
    <contour>
      <point x="28" y="311" type="line" smooth="yes"/>
      <point x="24" y="311"/>
      <point x="20" y="315"/>
      <point x="20" y="319" type="curve" smooth="yes"/>
      <point x="20" y="446" type="line" smooth="yes"/>
      <point x="20" y="450"/>
      <point x="24" y="454"/>
      <point x="28" y="454" type="curve" smooth="yes"/>
      <point x="318" y="454" type="line" smooth="yes"/>
      <point x="322" y="454"/>
      <point x="326" y="450"/>
      <point x="326" y="446" type="curve" smooth="yes"/>
      <point x="326" y="174" type="line" smooth="yes"/>
      <point x="326" y="170"/>
      <point x="322" y="166"/>
      <point x="318" y="166" type="curve" smooth="yes"/>
      <point x="227" y="166" type="line" smooth="yes"/>
      <point x="223" y="166"/>
      <point x="219" y="170"/>
      <point x="219" y="174" type="curve" smooth="yes"/>
      <point x="219" y="319" type="line"/>
      <point x="227" y="311" type="line"/>
    </contour>
    <contour>
      <point x="28" y="327" type="line"/>
      <point x="227" y="327" type="line" smooth="yes"/>
      <point x="231" y="327"/>
      <point x="235" y="323"/>
      <point x="235" y="319" type="curve" smooth="yes"/>
      <point x="235" y="174" type="line"/>
      <point x="227" y="182" type="line"/>
      <point x="318" y="182" type="line"/>
      <point x="310" y="174" type="line"/>
      <point x="310" y="446" type="line"/>
      <point x="318" y="438" type="line"/>
      <point x="28" y="438" type="line"/>
      <point x="36" y="446" type="line"/>
      <point x="36" y="319" type="line"/>
    </contour>
  </outline>
</glyph>
<glyph name="twosuperior" format="2">
  <advance width="289"/>
  <unicode hex="00B2"/>
  <outline>
    <contour>
      <point x="139" y="215" type="line"/>
      <point x="110" y="211"/>
      <point x="70" y="210"/>
      <point x="11" y="212" type="curve" smooth="yes"/>
      <point x="5" y="212"/>
      <point x="2" y="217"/>
      <point x="3" y="223" type="curve" smooth="yes"/>
      <point x="41" y="337"/>
      <point x="127" y="370"/>
      <point x="127" y="462" type="curve"/>
      <point x="127" y="462"/>
      <point x="127" y="462"/>
      <point x="127" y="462" type="curve"/>
      <point x="127" y="511"/>
      <point x="99" y="534"/>
      <point x="53" y="534" type="curve"/>
      <point x="53" y="534"/>
      <point x="53" y="534"/>
      <point x="53" y="534" type="curve"/>
      <point x="38" y="534"/>
      <point x="23" y="531"/>
      <point x="9" y="526" type="curve"/>
      <point x="3" y="542" type="line"/>
      <point x="19" y="547"/>
      <point x="36" y="550"/>
      <point x="53" y="550" type="curve"/>
      <point x="53" y="550"/>
      <point x="53" y="550"/>
      <point x="53" y="550" type="curve"/>
      <point x="107" y="550"/>
      <point x="143" y="521"/>
      <point x="143" y="462" type="curve"/>
      <point x="143" y="462"/>
      <point x="143" y="462"/>
      <point x="143" y="462" type="curve"/>
      <point x="143" y="365"/>
      <point x="55" y="326"/>
      <point x="19" y="217" type="curve" smooth="yes"/>
      <point x="17" y="212"/>
      <point x="6" y="228"/>
      <point x="11" y="228" type="curve" smooth="yes"/>
      <point x="70" y="226"/>
      <point x="108" y="227"/>
      <point x="137" y="231" type="curve"/>
    </contour>
    <contour>
      <point x="45" y="549" type="line"/>
      <point x="10" y="527" type="line" smooth="yes"/>
      <point x="4" y="523"/>
      <point x="-3" y="529"/>
      <point x="-2" y="536" type="curve" smooth="yes"/>
      <point x="33" y="678" type="line"/>
      <point x="49" y="674" type="line"/>
      <point x="14" y="532" type="line" smooth="yes"/>
      <point x="12" y="525"/>
      <point x="-4" y="537"/>
      <point x="2" y="541" type="curve" smooth="yes"/>
      <point x="37" y="563" type="line"/>
    </contour>
    <contour>
      <point x="261" y="387" type="line"/>
      <point x="145" y="218" type="line" smooth="yes"/>
      <point x="140" y="212"/>
      <point x="127" y="227"/>
      <point x="135" y="230" type="curve" smooth="yes"/>
      <point x="241" y="278" type="line"/>
      <point x="247" y="264" type="line"/>
      <point x="141" y="216" type="line" smooth="yes"/>
      <point x="134" y="212"/>
      <point x="127" y="221"/>
      <point x="131" y="228" type="curve" smooth="yes"/>
      <point x="247" y="397" type="line"/>
    </contour>
    <contour>
      <point x="153" y="362" type="line"/>
      <point x="17" y="215" type="line" smooth="yes"/>
      <point x="11" y="208"/>
      <point x="0" y="215"/>
      <point x="4" y="223" type="curve" smooth="yes"/>
      <point x="23" y="274" type="line"/>
      <point x="37" y="268" type="line"/>
      <point x="18" y="217" type="line" smooth="yes"/>
      <point x="15" y="209"/>
      <point x="-1" y="219"/>
      <point x="5" y="225" type="curve" smooth="yes"/>
      <point x="141" y="372" type="line"/>
    </contour>
    <contour>
      <point x="30" y="263" type="line" smooth="yes"/>
      <point x="25" y="263"/>
      <point x="21" y="267"/>
      <point x="22" y="272" type="curve" smooth="yes"/>
      <point x="45" y="433"/>
      <point x="154" y="474"/>
      <point x="154" y="552" type="curve" smooth="yes"/>
      <point x="154" y="573"/>
      <point x="142" y="585"/>
      <point x="119" y="585" type="curve" smooth="yes"/>
      <point x="95" y="585"/>
      <point x="70" y="573"/>
      <point x="47" y="550" type="curve" smooth="yes"/>
      <point x="41" y="545"/>
      <point x="33" y="549"/>
      <point x="33" y="556" type="curve" smooth="yes"/>
      <point x="33" y="676" type="line" smooth="yes"/>
      <point x="33" y="679"/>
      <point x="35" y="682"/>
      <point x="38" y="684" type="curve" smooth="yes"/>
      <point x="69" y="695"/>
      <point x="99" y="700"/>
      <point x="129" y="700" type="curve" smooth="yes"/>
      <point x="205" y="700"/>
      <point x="258" y="659"/>
      <point x="258" y="571" type="curve" smooth="yes"/>
      <point x="258" y="468"/>
      <point x="197" y="435"/>
      <point x="154" y="363" type="curve"/>
      <point x="147" y="375" type="line"/>
      <point x="209" y="375"/>
      <point x="233" y="383"/>
      <point x="249" y="398" type="curve" smooth="yes"/>
      <point x="254" y="403"/>
      <point x="263" y="399"/>
      <point x="262" y="391" type="curve" smooth="yes"/>
      <point x="252" y="270" type="line" smooth="yes"/>
      <point x="252" y="266"/>
      <point x="248" y="263"/>
      <point x="244" y="263" type="curve" smooth="yes"/>
    </contour>
    <contour>
      <point x="30" y="279" type="line"/>
      <point x="244" y="279" type="line"/>
      <point x="236" y="272" type="line"/>
      <point x="246" y="393" type="line"/>
      <point x="259" y="386" type="line"/>
      <point x="242" y="369"/>
      <point x="217" y="359"/>
      <point x="147" y="359" type="curve" smooth="yes"/>
      <point x="141" y="359"/>
      <point x="137" y="366"/>
      <point x="140" y="371" type="curve" smooth="yes"/>
      <point x="181" y="439"/>
      <point x="242" y="475"/>
      <point x="242" y="571" type="curve" smooth="yes"/>
      <point x="242" y="649"/>
      <point x="197" y="684"/>
      <point x="129" y="684" type="curve" smooth="yes"/>
      <point x="101" y="684"/>
      <point x="73" y="679"/>
      <point x="44" y="668" type="curve"/>
      <point x="49" y="676" type="line"/>
      <point x="49" y="556" type="line"/>
      <point x="35" y="562" type="line"/>
      <point x="62" y="587"/>
      <point x="91" y="601"/>
      <point x="119" y="601" type="curve" smooth="yes"/>
      <point x="152" y="601"/>
      <point x="170" y="581"/>
      <point x="170" y="552" type="curve" smooth="yes"/>
      <point x="170" y="470"/>
      <point x="59" y="422"/>
      <point x="38" y="270" type="curve"/>
    </contour>
  </outline>
</glyph>
<glyph name="mu.math" format="2">
  <advance width="419"/>
  <unicode hex="00B5"/>
  <outline>
    <contour>
      <point x="13" y="-198" type="line"/>
      <point x="13" y="355" type="line"/>
      <point x="29" y="355" type="line"/>
      <point x="29" y="-198" type="line"/>
    </contour>
    <contour>
      <point x="244" y="-38" type="line"/>
      <point x="244" y="355" type="line"/>
      <point x="260" y="355" type="line"/>
      <point x="260" y="-38" type="line"/>
    </contour>
    <contour>
      <point x="29" y="131" type="line"/>
      <point x="29" y="27"/>
      <point x="74" y="-41"/>
      <point x="136" y="-41" type="curve"/>
      <point x="136" y="-41"/>
      <point x="136" y="-41"/>
      <point x="136" y="-41" type="curve"/>
      <point x="199" y="-41"/>
      <point x="244" y="27"/>
      <point x="244" y="131" type="curve"/>
      <point x="260" y="131" type="line"/>
      <point x="260" y="15"/>
      <point x="207" y="-57"/>
      <point x="136" y="-57" type="curve"/>
      <point x="136" y="-57"/>
      <point x="136" y="-57"/>
      <point x="136" y="-57" type="curve"/>
      <point x="66" y="-57"/>
      <point x="13" y="15"/>
      <point x="13" y="131" type="curve"/>
    </contour>
    <contour>
      <point x="275" y="21" type="line"/>
      <point x="277" y="20"/>
      <point x="271" y="-62"/>
      <point x="244" y="130" type="curve"/>
      <point x="260" y="132" type="line"/>
      <point x="263" y="112"/>
      <point x="293" y="-6"/>
      <point x="267" y="7" type="curve"/>
    </contour>
    <contour>
      <point x="29" y="132" type="line"/>
      <point x="41" y="45"/>
      <point x="86" y="20"/>
      <point x="143" y="23" type="curve"/>
      <point x="143" y="7" type="line"/>
      <point x="80" y="4"/>
      <point x="27" y="33"/>
      <point x="13" y="130" type="curve"/>
    </contour>
    <contour>
      <point x="145" y="-168" type="line"/>
      <point x="23" y="-206" type="line" smooth="yes"/>
      <point x="17" y="-208"/>
      <point x="11" y="-201"/>
      <point x="14" y="-194" type="curve" smooth="yes"/>
      <point x="33" y="-156" type="line"/>
      <point x="47" y="-164" type="line"/>
      <point x="28" y="-202" type="line" smooth="yes"/>
      <point x="25" y="-208"/>
      <point x="12" y="-192"/>
      <point x="19" y="-190" type="curve" smooth="yes"/>
      <point x="141" y="-152" type="line"/>
    </contour>
    <contour>
      <point x="375" y="-8" type="line"/>
      <point x="254" y="-46" type="line" smooth="yes"/>
      <point x="248" y="-48"/>
      <point x="242" y="-41"/>
      <point x="245" y="-34" type="curve" smooth="yes"/>
      <point x="264" y="4" type="line"/>
      <point x="278" y="-4" type="line"/>
      <point x="259" y="-42" type="line" smooth="yes"/>
      <point x="256" y="-48"/>
      <point x="243" y="-32"/>
      <point x="250" y="-30" type="curve" smooth="yes"/>
      <point x="371" y="8" type="line"/>
    </contour>
    <contour>
      <point x="48" y="516" type="line"/>
      <point x="29" y="354" type="line" smooth="yes"/>
      <point x="28" y="346"/>
      <point x="10" y="353"/>
      <point x="15" y="360" type="curve" smooth="yes"/>
      <point x="137" y="522" type="line"/>
      <point x="149" y="512" type="line"/>
      <point x="27" y="350" type="line" smooth="yes"/>
      <point x="22" y="344"/>
      <point x="12" y="348"/>
      <point x="13" y="356" type="curve" smooth="yes"/>
      <point x="32" y="518" type="line"/>
    </contour>
    <contour>
      <point x="279" y="516" type="line"/>
      <point x="260" y="354" type="line" smooth="yes"/>
      <point x="259" y="346"/>
      <point x="241" y="353"/>
      <point x="246" y="360" type="curve" smooth="yes"/>
      <point x="367" y="522" type="line"/>
      <point x="379" y="512" type="line"/>
      <point x="258" y="350" type="line" smooth="yes"/>
      <point x="254" y="344"/>
      <point x="243" y="348"/>
      <point x="244" y="356" type="curve" smooth="yes"/>
      <point x="263" y="518" type="line"/>
    </contour>
    <contour>
      <point x="265" y="19" type="curve" smooth="yes"/>
      <point x="270" y="25"/>
      <point x="279" y="21"/>
      <point x="279" y="14" type="curve" smooth="yes"/>
      <point x="279" y="0" type="line"/>
      <point x="271" y="8" type="line"/>
      <point x="373" y="8" type="line"/>
      <point x="365" y="0" type="line"/>
      <point x="365" y="517" type="line"/>
      <point x="373" y="509" type="line"/>
      <point x="271" y="509" type="line"/>
      <point x="279" y="517" type="line"/>
      <point x="279" y="205" type="line" smooth="yes"/>
      <point x="279" y="143"/>
      <point x="250" y="108"/>
      <point x="204" y="108" type="curve" smooth="yes"/>
      <point x="158" y="108"/>
      <point x="135" y="147"/>
      <point x="135" y="205" type="curve" smooth="yes"/>
      <point x="135" y="517" type="line"/>
      <point x="143" y="509" type="line"/>
      <point x="40" y="509" type="line"/>
      <point x="48" y="517" type="line"/>
      <point x="48" y="-160" type="line"/>
      <point x="40" y="-152" type="line"/>
      <point x="143" y="-152" type="line"/>
      <point x="135" y="-160" type="line"/>
      <point x="135" y="15" type="line" smooth="yes"/>
      <point x="135" y="22"/>
      <point x="144" y="26"/>
      <point x="149" y="20" type="curve" smooth="yes"/>
      <point x="181" y="-14"/>
      <point x="234" y="-13"/>
    </contour>
    <contour>
      <point x="277" y="9" type="line"/>
      <point x="240" y="-31"/>
      <point x="175" y="-32"/>
      <point x="137" y="10" type="curve"/>
      <point x="151" y="15" type="line"/>
      <point x="151" y="-160" type="line" smooth="yes"/>
      <point x="151" y="-164"/>
      <point x="147" y="-168"/>
      <point x="143" y="-168" type="curve" smooth="yes"/>
      <point x="40" y="-168" type="line" smooth="yes"/>
      <point x="36" y="-168"/>
      <point x="32" y="-164"/>
      <point x="32" y="-160" type="curve" smooth="yes"/>
      <point x="32" y="517" type="line" smooth="yes"/>
      <point x="32" y="521"/>
      <point x="36" y="525"/>
      <point x="40" y="525" type="curve" smooth="yes"/>
      <point x="143" y="525" type="line" smooth="yes"/>
      <point x="147" y="525"/>
      <point x="151" y="521"/>
      <point x="151" y="517" type="curve" smooth="yes"/>
      <point x="151" y="205" type="line" smooth="yes"/>
      <point x="151" y="157"/>
      <point x="166" y="124"/>
      <point x="204" y="124" type="curve" smooth="yes"/>
      <point x="242" y="124"/>
      <point x="263" y="153"/>
      <point x="263" y="205" type="curve" smooth="yes"/>
      <point x="263" y="517" type="line" smooth="yes"/>
      <point x="263" y="521"/>
      <point x="267" y="525"/>
      <point x="271" y="525" type="curve" smooth="yes"/>
      <point x="373" y="525" type="line" smooth="yes"/>
      <point x="377" y="525"/>
      <point x="381" y="521"/>
      <point x="381" y="517" type="curve" smooth="yes"/>
      <point x="381" y="0" type="line" smooth="yes"/>
      <point x="381" y="-4"/>
      <point x="377" y="-8"/>
      <point x="373" y="-8" type="curve" smooth="yes"/>
      <point x="271" y="-8" type="line" smooth="yes"/>
      <point x="267" y="-8"/>
      <point x="263" y="-4"/>
      <point x="263" y="0" type="curve" smooth="yes"/>
      <point x="263" y="14" type="line"/>
    </contour>
  </outline>
</glyph>
<glyph name="cedilla" format="2">
  <advance width="294"/>
  <unicode hex="00B8"/>
  <outline>
    <contour>
      <point x="49" y="-233" type="line"/>
      <point x="22" y="-292" type="line" smooth="yes"/>
      <point x="18" y="-301"/>
      <point x="6" y="-297"/>
      <point x="7" y="-288" type="curve" smooth="yes"/>
      <point x="34" y="-103" type="line"/>
      <point x="50" y="-105" type="line"/>
      <point x="23" y="-290" type="line" smooth="yes"/>
      <point x="22" y="-299"/>
      <point x="4" y="-294"/>
      <point x="8" y="-286" type="curve" smooth="yes"/>
      <point x="35" y="-227" type="line"/>
    </contour>
    <contour>
      <point x="64" y="-59" type="line"/>
      <point x="62" y="-166"/>
      <point x="142" y="-144"/>
      <point x="142" y="-228" type="curve"/>
      <point x="142" y="-228"/>
      <point x="142" y="-228"/>
      <point x="142" y="-228" type="curve"/>
      <point x="142" y="-299"/>
      <point x="89" y="-327"/>
      <point x="12" y="-296" type="curve"/>
      <point x="18" y="-282" type="line"/>
      <point x="83" y="-307"/>
      <point x="126" y="-289"/>
      <point x="126" y="-228" type="curve"/>
      <point x="126" y="-228"/>
      <point x="126" y="-228"/>
      <point x="126" y="-228" type="curve"/>
      <point x="126" y="-152"/>
      <point x="46" y="-176"/>
      <point x="48" y="-59" type="curve"/>
    </contour>
    <contour>
      <point x="168" y="49" type="line" smooth="yes"/>
      <point x="173" y="49"/>
      <point x="176" y="45"/>
      <point x="176" y="40" type="curve" smooth="yes"/>
      <point x="170" y="-42"/>
      <point x="260" y="-13"/>
      <point x="260" y="-124" type="curve" smooth="yes"/>
      <point x="260" y="-243"/>
      <point x="169" y="-291"/>
      <point x="39" y="-237" type="curve" smooth="yes"/>
      <point x="36" y="-236"/>
      <point x="34" y="-233"/>
      <point x="34" y="-230" type="curve" smooth="yes"/>
      <point x="34" y="-104" type="line" smooth="yes"/>
      <point x="34" y="-97"/>
      <point x="43" y="-93"/>
      <point x="48" y="-98" type="curve" smooth="yes"/>
      <point x="101" y="-152"/>
      <point x="150" y="-169"/>
      <point x="150" y="-131" type="curve" smooth="yes"/>
      <point x="150" y="-81"/>
      <point x="78" y="-104"/>
      <point x="78" y="41" type="curve" smooth="yes"/>
      <point x="78" y="45"/>
      <point x="82" y="49"/>
      <point x="86" y="49" type="curve" smooth="yes"/>
    </contour>
    <contour>
      <point x="168" y="33" type="line"/>
      <point x="86" y="33" type="line"/>
      <point x="94" y="41" type="line"/>
      <point x="94" y="-91"/>
      <point x="166" y="-77"/>
      <point x="166" y="-131" type="curve" smooth="yes"/>
      <point x="166" y="-182"/>
      <point x="108" y="-183"/>
      <point x="36" y="-110" type="curve"/>
      <point x="50" y="-104" type="line"/>
      <point x="50" y="-230" type="line"/>
      <point x="45" y="-223" type="line"/>
      <point x="163" y="-271"/>
      <point x="244" y="-233"/>
      <point x="244" y="-124" type="curve" smooth="yes"/>
      <point x="244" y="-23"/>
      <point x="154" y="-50"/>
      <point x="160" y="42" type="curve"/>
    </contour>
  </outline>
</glyph>
<glyph name="ordmasculine" format="2">
  <advance width="348"/>
  <unicode hex="00BA"/>
  <outline>
    <contour>
      <point x="103" y="240" type="curve"/>
      <point x="103" y="240"/>
      <point x="103" y="240"/>
      <point x="103" y="240" type="curve"/>
      <point x="157" y="240"/>
      <point x="194" y="304"/>
      <point x="194" y="388" type="curve"/>
      <point x="194" y="388"/>
      <point x="194" y="388"/>
      <point x="194" y="388" type="curve"/>
      <point x="194" y="473"/>
      <point x="157" y="536"/>
      <point x="103" y="536" type="curve"/>
      <point x="103" y="536"/>
      <point x="103" y="536"/>
      <point x="103" y="536" type="curve"/>
      <point x="49" y="536"/>
      <point x="12" y="473"/>
      <point x="12" y="388" type="curve"/>
      <point x="12" y="388"/>
      <point x="12" y="388"/>
      <point x="12" y="388" type="curve"/>
      <point x="12" y="304"/>
      <point x="49" y="240"/>
    </contour>
    <contour>
      <point x="103" y="224" type="curve"/>
      <point x="41" y="224"/>
      <point x="-4" y="292"/>
      <point x="-4" y="388" type="curve"/>
      <point x="-4" y="388"/>
      <point x="-4" y="388"/>
      <point x="-4" y="388" type="curve"/>
      <point x="-4" y="485"/>
      <point x="41" y="552"/>
      <point x="103" y="552" type="curve"/>
      <point x="103" y="552"/>
      <point x="103" y="552"/>
      <point x="103" y="552" type="curve"/>
      <point x="165" y="552"/>
      <point x="210" y="485"/>
      <point x="210" y="388" type="curve"/>
      <point x="210" y="388"/>
      <point x="210" y="388"/>
      <point x="210" y="388" type="curve"/>
      <point x="210" y="292"/>
      <point x="165" y="224"/>
      <point x="103" y="224" type="curve"/>
      <point x="103" y="224"/>
      <point x="103" y="224"/>
    </contour>
    <contour>
      <point x="194" y="60" type="line"/>
      <point x="13" y="60" type="line"/>
      <point x="13" y="76" type="line"/>
      <point x="194" y="76" type="line"/>
    </contour>
    <contour>
      <point x="53" y="108" type="line"/>
      <point x="19" y="63" type="line" smooth="yes"/>
      <point x="14" y="56"/>
      <point x="3" y="61"/>
      <point x="5" y="70" type="curve" smooth="yes"/>
      <point x="39" y="224" type="line"/>
      <point x="55" y="220" type="line"/>
      <point x="21" y="66" type="line" smooth="yes"/>
      <point x="19" y="58"/>
      <point x="1" y="66"/>
      <point x="7" y="73" type="curve" smooth="yes"/>
      <point x="41" y="118" type="line"/>
    </contour>
    <contour>
      <point x="308" y="217" type="line"/>
      <point x="201" y="63" type="line" smooth="yes"/>
      <point x="196" y="57"/>
      <point x="184" y="72"/>
      <point x="191" y="75" type="curve" smooth="yes"/>
      <point x="298" y="120" type="line"/>
      <point x="304" y="106" type="line"/>
      <point x="197" y="61" type="line" smooth="yes"/>
      <point x="190" y="58"/>
      <point x="183" y="66"/>
      <point x="187" y="73" type="curve" smooth="yes"/>
      <point x="294" y="227" type="line"/>
    </contour>
    <contour>
      <point x="174" y="373" type="curve" smooth="yes"/>
      <point x="135" y="373"/>
      <point x="109" y="418"/>
      <point x="109" y="488" type="curve" smooth="yes"/>
      <point x="109" y="559"/>
      <point x="135" y="603"/>
      <point x="174" y="603" type="curve" smooth="yes"/>
      <point x="213" y="603"/>
      <point x="239" y="559"/>
      <point x="239" y="488" type="curve" smooth="yes"/>
      <point x="239" y="418"/>
      <point x="213" y="373"/>
    </contour>
    <contour>
      <point x="174" y="290" type="curve" smooth="yes"/>
      <point x="251" y="290"/>
      <point x="307" y="376"/>
      <point x="307" y="488" type="curve" smooth="yes"/>
      <point x="307" y="600"/>
      <point x="251" y="686"/>
      <point x="174" y="686" type="curve" smooth="yes"/>
      <point x="97" y="686"/>
      <point x="41" y="600"/>
      <point x="41" y="488" type="curve" smooth="yes"/>
      <point x="41" y="376"/>
      <point x="97" y="290"/>
    </contour>
    <contour>
      <point x="47" y="105" type="line" smooth="yes"/>
      <point x="43" y="105"/>
      <point x="39" y="109"/>
      <point x="39" y="113" type="curve" smooth="yes"/>
      <point x="39" y="222" type="line" smooth="yes"/>
      <point x="39" y="226"/>
      <point x="43" y="230"/>
      <point x="47" y="230" type="curve" smooth="yes"/>
      <point x="301" y="230" type="line" smooth="yes"/>
      <point x="305" y="230"/>
      <point x="309" y="226"/>
      <point x="309" y="222" type="curve" smooth="yes"/>
      <point x="309" y="113" type="line" smooth="yes"/>
      <point x="309" y="109"/>
      <point x="305" y="105"/>
      <point x="301" y="105" type="curve" smooth="yes"/>
    </contour>
    <contour>
      <point x="174" y="389" type="curve" smooth="yes"/>
      <point x="205" y="389"/>
      <point x="223" y="432"/>
      <point x="223" y="488" type="curve" smooth="yes"/>
      <point x="223" y="545"/>
      <point x="205" y="587"/>
      <point x="174" y="587" type="curve" smooth="yes"/>
      <point x="143" y="587"/>
      <point x="125" y="545"/>
      <point x="125" y="488" type="curve" smooth="yes"/>
      <point x="125" y="432"/>
      <point x="143" y="389"/>
    </contour>
    <contour>
      <point x="174" y="274" type="curve" smooth="yes"/>
      <point x="89" y="274"/>
      <point x="25" y="365"/>
      <point x="25" y="488" type="curve" smooth="yes"/>
      <point x="25" y="611"/>
      <point x="89" y="702"/>
      <point x="174" y="702" type="curve" smooth="yes"/>
      <point x="259" y="702"/>
      <point x="323" y="611"/>
      <point x="323" y="488" type="curve" smooth="yes"/>
      <point x="323" y="365"/>
      <point x="259" y="274"/>
    </contour>
    <contour>
      <point x="47" y="121" type="line"/>
      <point x="301" y="121" type="line"/>
      <point x="293" y="113" type="line"/>
      <point x="293" y="222" type="line"/>
      <point x="301" y="214" type="line"/>
      <point x="47" y="214" type="line"/>
      <point x="55" y="222" type="line"/>
      <point x="55" y="113" type="line"/>
    </contour>
  </outline>
</glyph>
<glyph name="questiondown" format="2">
  <advance width="369"/>
  <unicode hex="00BF"/>
  <outline>
    <contour>
      <point x="263" y="511" type="line"/>
      <point x="136" y="491" type="line" smooth="yes"/>
      <point x="131" y="490"/>
      <point x="127" y="494"/>
      <point x="127" y="500" type="curve" smooth="yes"/>
      <point x="140" y="681" type="line"/>
      <point x="156" y="679" type="line"/>
      <point x="143" y="498" type="line" smooth="yes"/>
      <point x="143" y="493"/>
      <point x="129" y="506"/>
      <point x="134" y="507" type="curve" smooth="yes"/>
      <point x="261" y="527" type="line"/>
    </contour>
    <contour>
      <point x="269" y="675" type="line"/>
      <point x="142" y="494" type="line" smooth="yes"/>
      <point x="136" y="486"/>
      <point x="123" y="495"/>
      <point x="128" y="503" type="curve" smooth="yes"/>
      <point x="141" y="523" type="line"/>
      <point x="155" y="515" type="line"/>
      <point x="142" y="495" type="line" smooth="yes"/>
      <point x="136" y="486"/>
      <point x="122" y="495"/>
      <point x="128" y="504" type="curve" smooth="yes"/>
      <point x="255" y="685" type="line"/>
    </contour>
    <contour>
      <point x="175" y="421" type="line"/>
      <point x="137" y="275" type="line" smooth="yes"/>
      <point x="135" y="267"/>
      <point x="117" y="275"/>
      <point x="123" y="282" type="curve" smooth="yes"/>
      <point x="237" y="428" type="line"/>
      <point x="249" y="418" type="line"/>
      <point x="135" y="272" type="line" smooth="yes"/>
      <point x="130" y="265"/>
      <point x="119" y="271"/>
      <point x="121" y="279" type="curve" smooth="yes"/>
      <point x="159" y="425" type="line"/>
    </contour>
    <contour>
      <point x="137" y="275" type="line"/>
      <point x="112" y="193"/>
      <point x="15" y="174"/>
      <point x="15" y="74" type="curve"/>
      <point x="15" y="74"/>
      <point x="15" y="74"/>
      <point x="15" y="74" type="curve"/>
      <point x="15" y="0"/>
      <point x="62" y="-40"/>
      <point x="136" y="-40" type="curve"/>
      <point x="136" y="-40"/>
      <point x="136" y="-40"/>
      <point x="136" y="-40" type="curve"/>
      <point x="163" y="-40"/>
      <point x="192" y="-32"/>
      <point x="220" y="-19" type="curve"/>
      <point x="226" y="-33" type="line"/>
      <point x="196" y="-48"/>
      <point x="165" y="-56"/>
      <point x="136" y="-56" type="curve"/>
      <point x="136" y="-56"/>
      <point x="136" y="-56"/>
      <point x="136" y="-56" type="curve"/>
      <point x="54" y="-56"/>
      <point x="-1" y="-8"/>
      <point x="-1" y="74" type="curve"/>
      <point x="-1" y="74"/>
      <point x="-1" y="74"/>
      <point x="-1" y="74" type="curve"/>
      <point x="-1" y="182"/>
      <point x="98" y="203"/>
      <point x="121" y="279" type="curve"/>
    </contour>
    <contour>
      <point x="345" y="182" type="line"/>
      <point x="230" y="-30" type="line" smooth="yes"/>
      <point x="227" y="-36"/>
      <point x="213" y="-21"/>
      <point x="220" y="-18" type="curve" smooth="yes"/>
      <point x="335" y="23" type="line"/>
      <point x="341" y="7" type="line"/>
      <point x="226" y="-34" type="line" smooth="yes"/>
      <point x="219" y="-36"/>
      <point x="212" y="-29"/>
      <point x="216" y="-22" type="curve" smooth="yes"/>
      <point x="331" y="190" type="line"/>
    </contour>
    <contour>
      <point x="159" y="423" type="curve" smooth="yes"/>
      <point x="159" y="427"/>
      <point x="163" y="431"/>
      <point x="167" y="431" type="curve" smooth="yes"/>
      <point x="243" y="431" type="line" smooth="yes"/>
      <point x="247" y="431"/>
      <point x="251" y="428"/>
      <point x="251" y="424" type="curve" smooth="yes"/>
      <point x="257" y="338"/>
      <point x="221" y="295"/>
      <point x="189" y="261" type="curve" smooth="yes"/>
      <point x="165" y="235"/>
      <point x="141" y="213"/>
      <point x="141" y="179" type="curve" smooth="yes"/>
      <point x="141" y="144"/>
      <point x="167" y="124"/>
      <point x="207" y="124" type="curve" smooth="yes"/>
      <point x="251" y="124"/>
      <point x="295" y="151"/>
      <point x="332" y="191" type="curve" smooth="yes"/>
      <point x="337" y="197"/>
      <point x="346" y="193"/>
      <point x="346" y="186" type="curve" smooth="yes"/>
      <point x="346" y="15" type="line" smooth="yes"/>
      <point x="346" y="12"/>
      <point x="344" y="9"/>
      <point x="341" y="8" type="curve" smooth="yes"/>
      <point x="294" y="-12"/>
      <point x="247" y="-20"/>
      <point x="206" y="-20" type="curve" smooth="yes"/>
      <point x="91" y="-20"/>
      <point x="16" y="46"/>
      <point x="16" y="170" type="curve" smooth="yes"/>
      <point x="16" y="262"/>
      <point x="61" y="304"/>
      <point x="101" y="338" type="curve" smooth="yes"/>
      <point x="130" y="363"/>
      <point x="159" y="385"/>
    </contour>
    <contour>
      <point x="262" y="688" type="line" smooth="yes"/>
      <point x="266" y="688"/>
      <point x="270" y="684"/>
      <point x="270" y="680" type="curve" smooth="yes"/>
      <point x="270" y="519" type="line" smooth="yes"/>
      <point x="270" y="515"/>
      <point x="266" y="511"/>
      <point x="262" y="511" type="curve" smooth="yes"/>
      <point x="148" y="511" type="line" smooth="yes"/>
      <point x="144" y="511"/>
      <point x="140" y="515"/>
      <point x="140" y="519" type="curve" smooth="yes"/>
      <point x="140" y="680" type="line" smooth="yes"/>
      <point x="140" y="684"/>
      <point x="144" y="688"/>
      <point x="148" y="688" type="curve" smooth="yes"/>
    </contour>
    <contour>
      <point x="175" y="423" type="line"/>
      <point x="175" y="379"/>
      <point x="145" y="355"/>
      <point x="111" y="326" type="curve" smooth="yes"/>
      <point x="73" y="294"/>
      <point x="32" y="256"/>
      <point x="32" y="170" type="curve" smooth="yes"/>
      <point x="32" y="56"/>
      <point x="99" y="-4"/>
      <point x="206" y="-4" type="curve" smooth="yes"/>
      <point x="245" y="-4"/>
      <point x="290" y="4"/>
      <point x="335" y="22" type="curve"/>
      <point x="330" y="15" type="line"/>
      <point x="330" y="186" type="line"/>
      <point x="344" y="181" type="line"/>
      <point x="303" y="137"/>
      <point x="255" y="108"/>
      <point x="207" y="108" type="curve" smooth="yes"/>
      <point x="157" y="108"/>
      <point x="125" y="136"/>
      <point x="125" y="179" type="curve" smooth="yes"/>
      <point x="125" y="219"/>
      <point x="149" y="241"/>
      <point x="177" y="271" type="curve" smooth="yes"/>
      <point x="207" y="303"/>
      <point x="241" y="342"/>
      <point x="235" y="422" type="curve"/>
      <point x="243" y="415" type="line"/>
      <point x="167" y="415" type="line"/>
    </contour>
    <contour>
      <point x="262" y="672" type="line"/>
      <point x="148" y="672" type="line"/>
      <point x="156" y="680" type="line"/>
      <point x="156" y="519" type="line"/>
      <point x="148" y="527" type="line"/>
      <point x="262" y="527" type="line"/>
      <point x="254" y="519" type="line"/>
      <point x="254" y="680" type="line"/>
    </contour>
  </outline>
</glyph>
<glyph name="Eth" format="2">
  <advance width="495"/>
  <unicode hex="00D0"/>
  <outline>
    <contour>
      <point x="54" y="-38" type="line" smooth="yes"/>
      <point x="54" y="-42"/>
      <point x="42" y="-30"/>
      <point x="46" y="-30" type="curve" smooth="yes"/>
      <point x="152" y="-30" type="line"/>
      <point x="152" y="-30"/>
      <point x="152" y="-30"/>
      <point x="152" y="-30" type="curve"/>
      <point x="262" y="-30"/>
      <point x="337" y="77"/>
      <point x="337" y="241" type="curve"/>
      <point x="337" y="241"/>
      <point x="337" y="241"/>
      <point x="337" y="241" type="curve"/>
      <point x="337" y="404"/>
      <point x="262" y="510"/>
      <point x="152" y="510" type="curve"/>
      <point x="152" y="510"/>
      <point x="152" y="510"/>
      <point x="152" y="510" type="curve"/>
      <point x="46" y="510" type="line" smooth="yes"/>
      <point x="42" y="510"/>
      <point x="54" y="522"/>
      <point x="54" y="518" type="curve" smooth="yes"/>
    </contour>
    <contour>
      <point x="176" y="120" type="line"/>
      <point x="52" y="-43" type="line" smooth="yes"/>
      <point x="48" y="-49"/>
      <point x="38" y="-46"/>
      <point x="38" y="-38" type="curve" smooth="yes"/>
      <point x="39" y="0" type="line"/>
      <point x="55" y="0" type="line"/>
      <point x="54" y="-38" type="line" smooth="yes"/>
      <point x="54" y="-46"/>
      <point x="35" y="-39"/>
      <point x="40" y="-33" type="curve" smooth="yes"/>
      <point x="164" y="130" type="line"/>
    </contour>
    <contour>
      <point x="55" y="680" type="line"/>
      <point x="54" y="518" type="line" smooth="yes"/>
      <point x="54" y="513"/>
      <point x="39" y="524"/>
      <point x="44" y="526" type="curve" smooth="yes"/>
      <point x="168" y="563" type="line"/>
      <point x="172" y="547" type="line"/>
      <point x="48" y="510" type="line" smooth="yes"/>
      <point x="43" y="509"/>
      <point x="38" y="513"/>
      <point x="38" y="518" type="curve" smooth="yes"/>
      <point x="39" y="680" type="line"/>
    </contour>
    <contour>
      <point x="38" y="-38" type="curve" smooth="yes"/>
      <point x="38" y="518" type="line" smooth="yes"/>
      <point x="38" y="522"/>
      <point x="42" y="526"/>
      <point x="46" y="526" type="curve" smooth="yes"/>
      <point x="152" y="526" type="line"/>
      <point x="152" y="526"/>
      <point x="152" y="526"/>
      <point x="152" y="526" type="curve"/>
      <point x="270" y="526"/>
      <point x="353" y="414"/>
      <point x="353" y="241" type="curve"/>
      <point x="353" y="241"/>
      <point x="353" y="241"/>
      <point x="353" y="241" type="curve"/>
      <point x="353" y="67"/>
      <point x="270" y="-46"/>
      <point x="152" y="-46" type="curve"/>
      <point x="152" y="-46"/>
      <point x="152" y="-46"/>
      <point x="152" y="-46" type="curve"/>
      <point x="46" y="-46" type="line" smooth="yes"/>
      <point x="42" y="-46"/>
      <point x="38" y="-42"/>
    </contour>
    <contour>
      <point x="143" y="232" type="line"/>
      <point x="-10" y="232" type="line"/>
      <point x="-10" y="248" type="line"/>
      <point x="143" y="248" type="line"/>
    </contour>
    <contour>
      <point x="23" y="272" type="line"/>
      <point x="-4" y="235" type="line" smooth="yes"/>
      <point x="-9" y="228"/>
      <point x="-19" y="233"/>
      <point x="-18" y="241" type="curve" smooth="yes"/>
      <point x="9" y="405" type="line"/>
      <point x="25" y="403" type="line"/>
      <point x="-2" y="239" type="line" smooth="yes"/>
      <point x="-3" y="230"/>
      <point x="-21" y="238"/>
      <point x="-16" y="245" type="curve" smooth="yes"/>
      <point x="11" y="282" type="line"/>
    </contour>
    <contour>
      <point x="265" y="399" type="line"/>
      <point x="150" y="235" type="line" smooth="yes"/>
      <point x="145" y="229"/>
      <point x="133" y="245"/>
      <point x="141" y="248" type="curve" smooth="yes"/>
      <point x="256" y="285" type="line"/>
      <point x="260" y="269" type="line"/>
      <point x="145" y="232" type="line" smooth="yes"/>
      <point x="138" y="230"/>
      <point x="132" y="238"/>
      <point x="136" y="245" type="curve" smooth="yes"/>
      <point x="251" y="409" type="line"/>
    </contour>
    <contour>
      <point x="173" y="399" type="line"/>
      <point x="52" y="235" type="line" smooth="yes"/>
      <point x="47" y="227"/>
      <point x="34" y="235"/>
      <point x="39" y="244" type="curve" smooth="yes"/>
      <point x="59" y="281" type="line"/>
      <point x="73" y="273" type="line"/>
      <point x="53" y="236" type="line" smooth="yes"/>
      <point x="48" y="227"/>
      <point x="34" y="237"/>
      <point x="40" y="245" type="curve" smooth="yes"/>
      <point x="161" y="409" type="line"/>
    </contour>
    <contour>
      <point x="74" y="403" type="line"/>
      <point x="54" y="239" type="line" smooth="yes"/>
      <point x="53" y="233"/>
      <point x="38" y="246"/>
      <point x="44" y="248" type="curve" smooth="yes"/>
      <point x="165" y="285" type="line"/>
      <point x="169" y="269" type="line"/>
      <point x="48" y="232" type="line" smooth="yes"/>
      <point x="43" y="231"/>
      <point x="37" y="235"/>
      <point x="38" y="241" type="curve" smooth="yes"/>
      <point x="58" y="405" type="line"/>
    </contour>
    <contour>
      <point x="47" y="-8" type="line" smooth="yes"/>
      <point x="41" y="-8"/>
      <point x="38" y="-2"/>
      <point x="39" y="3" type="curve" smooth="yes"/>
      <point x="52" y="38"/>
      <point x="57" y="86"/>
      <point x="58" y="277" type="curve"/>
      <point x="66" y="269" type="line"/>
      <point x="17" y="269" type="line" smooth="yes"/>
      <point x="13" y="269"/>
      <point x="9" y="273"/>
      <point x="9" y="277" type="curve"/>
      <point x="9" y="404" type="line"/>
      <point x="9" y="408"/>
      <point x="13" y="412"/>
      <point x="17" y="412" type="curve" smooth="yes"/>
      <point x="66" y="412" type="line"/>
      <point x="58" y="404" type="line"/>
      <point x="57" y="595"/>
      <point x="52" y="642"/>
      <point x="39" y="677" type="curve" smooth="yes"/>
      <point x="38" y="682"/>
      <point x="41" y="688"/>
      <point x="47" y="688" type="curve" smooth="yes"/>
      <point x="227" y="688" type="line" smooth="yes"/>
      <point x="371" y="688"/>
      <point x="477" y="552"/>
      <point x="477" y="341" type="curve" smooth="yes"/>
      <point x="477" y="129"/>
      <point x="371" y="-8"/>
      <point x="227" y="-8" type="curve" smooth="yes"/>
    </contour>
    <contour>
      <point x="220" y="547" type="curve" smooth="yes"/>
      <point x="170" y="547" type="line"/>
      <point x="178" y="555" type="line"/>
      <point x="177" y="518"/>
      <point x="176" y="469"/>
      <point x="175" y="404" type="curve"/>
      <point x="167" y="412" type="line"/>
      <point x="258" y="412" type="line" smooth="yes"/>
      <point x="262" y="412"/>
      <point x="266" y="408"/>
      <point x="266" y="404" type="curve" smooth="yes"/>
      <point x="266" y="277" type="line" smooth="yes"/>
      <point x="266" y="273"/>
      <point x="262" y="269"/>
      <point x="258" y="269" type="curve" smooth="yes"/>
      <point x="167" y="269" type="line"/>
      <point x="175" y="277" type="line"/>
      <point x="176" y="211"/>
      <point x="177" y="162"/>
      <point x="178" y="125" type="curve"/>
      <point x="170" y="133" type="line"/>
      <point x="220" y="133" type="line" smooth="yes"/>
      <point x="303" y="133"/>
      <point x="354" y="216"/>
      <point x="354" y="341" type="curve" smooth="yes"/>
      <point x="354" y="465"/>
      <point x="303" y="547"/>
    </contour>
    <contour>
      <point x="47" y="8" type="line"/>
      <point x="227" y="8" type="line" smooth="yes"/>
      <point x="363" y="8"/>
      <point x="461" y="139"/>
      <point x="461" y="341" type="curve" smooth="yes"/>
      <point x="461" y="542"/>
      <point x="363" y="672"/>
      <point x="227" y="672" type="curve" smooth="yes"/>
      <point x="47" y="672" type="line"/>
      <point x="55" y="683" type="line"/>
      <point x="68" y="646"/>
      <point x="73" y="599"/>
      <point x="74" y="404" type="curve" smooth="yes"/>
      <point x="74" y="400"/>
      <point x="70" y="396"/>
      <point x="66" y="396" type="curve" smooth="yes"/>
      <point x="17" y="396" type="line"/>
      <point x="25" y="404" type="line"/>
      <point x="25" y="277" type="line"/>
      <point x="17" y="285" type="line"/>
      <point x="66" y="285" type="line" smooth="yes"/>
      <point x="70" y="285"/>
      <point x="74" y="281"/>
      <point x="74" y="277" type="curve" smooth="yes"/>
      <point x="73" y="82"/>
      <point x="68" y="34"/>
      <point x="55" y="-3" type="curve"/>
    </contour>
    <contour>
      <point x="220" y="563" type="line" smooth="yes"/>
      <point x="311" y="563"/>
      <point x="370" y="477"/>
      <point x="370" y="341" type="curve" smooth="yes"/>
      <point x="370" y="204"/>
      <point x="311" y="117"/>
      <point x="220" y="117" type="curve" smooth="yes"/>
      <point x="170" y="117" type="line" smooth="yes"/>
      <point x="166" y="117"/>
      <point x="162" y="120"/>
      <point x="162" y="125" type="curve" smooth="yes"/>
      <point x="161" y="162"/>
      <point x="160" y="211"/>
      <point x="159" y="277" type="curve" smooth="yes"/>
      <point x="159" y="281"/>
      <point x="163" y="285"/>
      <point x="167" y="285" type="curve" smooth="yes"/>
      <point x="258" y="285" type="line"/>
      <point x="250" y="277" type="line"/>
      <point x="250" y="404" type="line"/>
      <point x="258" y="396" type="line"/>
      <point x="167" y="396" type="line" smooth="yes"/>
      <point x="163" y="396"/>
      <point x="159" y="400"/>
      <point x="159" y="404" type="curve" smooth="yes"/>
      <point x="160" y="469"/>
      <point x="161" y="518"/>
      <point x="162" y="555" type="curve" smooth="yes"/>
      <point x="162" y="560"/>
      <point x="166" y="563"/>
      <point x="170" y="563" type="curve" smooth="yes"/>
    </contour>
  </outline>
</glyph>
<glyph name="multiply" format="2">
  <advance width="379"/>
  <unicode hex="00D7"/>
  <outline>
    <contour>
      <point x="201" y="77" type="line"/>
      <point x="112" y="203" type="line"/>
      <point x="112" y="203"/>
      <point x="112" y="203"/>
      <point x="112" y="203" type="curve"/>
      <point x="23" y="329" type="line"/>
      <point x="37" y="339" type="line"/>
      <point x="126" y="213" type="line"/>
      <point x="126" y="213"/>
      <point x="126" y="213"/>
      <point x="126" y="213" type="curve"/>
      <point x="215" y="87" type="line"/>
    </contour>
    <contour>
      <point x="215" y="329" type="line"/>
      <point x="126" y="203" type="line"/>
      <point x="126" y="203"/>
      <point x="126" y="203"/>
      <point x="126" y="203" type="curve"/>
      <point x="37" y="77" type="line"/>
      <point x="23" y="87" type="line"/>
      <point x="112" y="213" type="line"/>
      <point x="112" y="213"/>
      <point x="112" y="213"/>
      <point x="112" y="213" type="curve"/>
      <point x="201" y="339" type="line"/>
    </contour>
    <contour>
      <point x="102" y="80" type="line"/>
      <point x="31" y="74" type="line" smooth="yes"/>
      <point x="26" y="74"/>
      <point x="22" y="78"/>
      <point x="22" y="82" type="curve" smooth="yes"/>
      <point x="26" y="183" type="line"/>
      <point x="42" y="183" type="line"/>
      <point x="38" y="82" type="line" smooth="yes"/>
      <point x="38" y="77"/>
      <point x="25" y="90"/>
      <point x="29" y="90" type="curve" smooth="yes"/>
      <point x="100" y="96" type="line"/>
    </contour>
    <contour>
      <point x="286" y="525" type="line"/>
      <point x="216" y="331" type="line" smooth="yes"/>
      <point x="213" y="324"/>
      <point x="197" y="336"/>
      <point x="203" y="340" type="curve" smooth="yes"/>
      <point x="340" y="439" type="line"/>
      <point x="350" y="427" type="line"/>
      <point x="213" y="328" type="line" smooth="yes"/>
      <point x="206" y="323"/>
      <point x="198" y="329"/>
      <point x="200" y="337" type="curve" smooth="yes"/>
      <point x="270" y="531" type="line"/>
    </contour>
    <contour>
      <point x="350" y="177" type="line"/>
      <point x="213" y="76" type="line" smooth="yes"/>
      <point x="206" y="71"/>
      <point x="199" y="89"/>
      <point x="207" y="90" type="curve" smooth="yes"/>
      <point x="277" y="96" type="line"/>
      <point x="279" y="80" type="line"/>
      <point x="209" y="74" type="line" smooth="yes"/>
      <point x="201" y="73"/>
      <point x="197" y="84"/>
      <point x="203" y="88" type="curve" smooth="yes"/>
      <point x="340" y="189" type="line"/>
    </contour>
    <contour>
      <point x="42" y="433" type="line"/>
      <point x="38" y="334" type="line" smooth="yes"/>
      <point x="38" y="325"/>
      <point x="19" y="328"/>
      <point x="22" y="337" type="curve" smooth="yes"/>
      <point x="93" y="531" type="line"/>
      <point x="109" y="525" type="line"/>
      <point x="38" y="331" type="line" smooth="yes"/>
      <point x="34" y="323"/>
      <point x="22" y="325"/>
      <point x="22" y="334" type="curve" smooth="yes"/>
      <point x="26" y="433" type="line"/>
    </contour>
    <contour>
      <point x="198" y="400" type="line"/>
      <point x="127" y="205" type="line" smooth="yes"/>
      <point x="125" y="200"/>
      <point x="113" y="216"/>
      <point x="118" y="216" type="curve" smooth="yes"/>
      <point x="189" y="221" type="line"/>
      <point x="191" y="205" type="line"/>
      <point x="120" y="200" type="line" smooth="yes"/>
      <point x="114" y="200"/>
      <point x="110" y="205"/>
      <point x="111" y="211" type="curve" smooth="yes"/>
      <point x="182" y="406" type="line"/>
    </contour>
    <contour>
      <point x="131" y="308" type="line"/>
      <point x="127" y="208" type="line" smooth="yes"/>
      <point x="127" y="201"/>
      <point x="109" y="211"/>
      <point x="114" y="214" type="curve" smooth="yes"/>
      <point x="252" y="314" type="line"/>
      <point x="262" y="302" type="line"/>
      <point x="124" y="202" type="line" smooth="yes"/>
      <point x="118" y="198"/>
      <point x="111" y="202"/>
      <point x="111" y="208" type="curve" smooth="yes"/>
      <point x="115" y="308" type="line"/>
    </contour>
    <contour>
      <point x="108" y="83" type="line" smooth="yes"/>
      <point x="104" y="79"/>
      <point x="98" y="79"/>
      <point x="94" y="83" type="curve" smooth="yes"/>
      <point x="27" y="178" type="line" smooth="yes"/>
      <point x="26" y="181"/>
      <point x="26" y="185"/>
      <point x="27" y="188" type="curve" smooth="yes"/>
      <point x="116" y="313" type="line"/>
      <point x="116" y="303" type="line"/>
      <point x="27" y="428" type="line" smooth="yes"/>
      <point x="26" y="431"/>
      <point x="26" y="435"/>
      <point x="27" y="438" type="curve" smooth="yes"/>
      <point x="94" y="533" type="line" smooth="yes"/>
      <point x="98" y="537"/>
      <point x="104" y="537"/>
      <point x="108" y="533" type="curve" smooth="yes"/>
      <point x="197" y="408" type="line"/>
      <point x="183" y="408" type="line"/>
      <point x="271" y="533" type="line" smooth="yes"/>
      <point x="275" y="537"/>
      <point x="281" y="537"/>
      <point x="285" y="533" type="curve" smooth="yes"/>
      <point x="352" y="438" type="line" smooth="yes"/>
      <point x="353" y="435"/>
      <point x="353" y="431"/>
      <point x="352" y="428" type="curve" smooth="yes"/>
      <point x="264" y="303" type="line"/>
      <point x="264" y="313" type="line"/>
      <point x="352" y="188" type="line" smooth="yes"/>
      <point x="353" y="185"/>
      <point x="353" y="181"/>
      <point x="352" y="178" type="curve" smooth="yes"/>
      <point x="285" y="83" type="line" smooth="yes"/>
      <point x="281" y="79"/>
      <point x="275" y="79"/>
      <point x="271" y="83" type="curve" smooth="yes"/>
      <point x="183" y="208" type="line"/>
      <point x="197" y="208" type="line"/>
    </contour>
    <contour>
      <point x="94" y="93" type="line"/>
      <point x="183" y="218" type="line" smooth="yes"/>
      <point x="187" y="222"/>
      <point x="193" y="222"/>
      <point x="197" y="218" type="curve" smooth="yes"/>
      <point x="285" y="93" type="line"/>
      <point x="271" y="93" type="line"/>
      <point x="338" y="188" type="line"/>
      <point x="338" y="178" type="line"/>
      <point x="250" y="303" type="line" smooth="yes"/>
      <point x="249" y="306"/>
      <point x="249" y="310"/>
      <point x="250" y="313" type="curve" smooth="yes"/>
      <point x="338" y="438" type="line"/>
      <point x="338" y="428" type="line"/>
      <point x="271" y="523" type="line"/>
      <point x="285" y="523" type="line"/>
      <point x="197" y="398" type="line" smooth="yes"/>
      <point x="193" y="394"/>
      <point x="187" y="394"/>
      <point x="183" y="398" type="curve" smooth="yes"/>
      <point x="94" y="523" type="line"/>
      <point x="108" y="523" type="line"/>
      <point x="41" y="428" type="line"/>
      <point x="41" y="438" type="line"/>
      <point x="130" y="313" type="line" smooth="yes"/>
      <point x="131" y="310"/>
      <point x="131" y="306"/>
      <point x="130" y="303" type="curve" smooth="yes"/>
      <point x="41" y="178" type="line"/>
      <point x="41" y="188" type="line"/>
      <point x="108" y="93" type="line"/>
    </contour>
  </outline>
</glyph>
<glyph name="OE" format="2">
  <advance width="657"/>
  <unicode hex="0152"/>
  <outline>
    <contour>
      <point x="472" y="242" type="line"/>
      <point x="308" y="242" type="line"/>
      <point x="308" y="258" type="line"/>
      <point x="472" y="258" type="line"/>
    </contour>
    <contour>
      <point x="612" y="676" type="line"/>
      <point x="498" y="507" type="line" smooth="yes"/>
      <point x="494" y="501"/>
      <point x="483" y="518"/>
      <point x="490" y="519" type="curve" smooth="yes"/>
      <point x="604" y="532" type="line"/>
      <point x="606" y="516" type="line"/>
      <point x="492" y="503" type="line" smooth="yes"/>
      <point x="485" y="502"/>
      <point x="481" y="510"/>
      <point x="484" y="515" type="curve" smooth="yes"/>
      <point x="598" y="684" type="line"/>
    </contour>
    <contour>
      <point x="625" y="162" type="line"/>
      <point x="496" y="-35" type="line" smooth="yes"/>
      <point x="492" y="-42"/>
      <point x="480" y="-25"/>
      <point x="487" y="-23" type="curve" smooth="yes"/>
      <point x="602" y="8" type="line"/>
      <point x="606" y="-8" type="line"/>
      <point x="491" y="-39" type="line" smooth="yes"/>
      <point x="484" y="-41"/>
      <point x="478" y="-33"/>
      <point x="482" y="-27" type="curve" smooth="yes"/>
      <point x="611" y="170" type="line"/>
    </contour>
    <contour>
      <point x="593" y="428" type="line"/>
      <point x="479" y="246" type="line" smooth="yes"/>
      <point x="475" y="240"/>
      <point x="464" y="257"/>
      <point x="471" y="258" type="curve" smooth="yes"/>
      <point x="585" y="277" type="line"/>
      <point x="587" y="261" type="line"/>
      <point x="473" y="242" type="line" smooth="yes"/>
      <point x="467" y="241"/>
      <point x="462" y="248"/>
      <point x="465" y="254" type="curve" smooth="yes"/>
      <point x="579" y="436" type="line"/>
    </contour>
    <contour>
      <point x="435" y="405" type="line"/>
      <point x="314" y="245" type="line" smooth="yes"/>
      <point x="310" y="239"/>
      <point x="298" y="255"/>
      <point x="305" y="258" type="curve" smooth="yes"/>
      <point x="426" y="298" type="line"/>
      <point x="432" y="282" type="line"/>
      <point x="311" y="242" type="line" smooth="yes"/>
      <point x="303" y="240"/>
      <point x="297" y="249"/>
      <point x="302" y="255" type="curve" smooth="yes"/>
      <point x="423" y="415" type="line"/>
    </contour>
    <contour>
      <point x="490" y="-39" type="line"/>
      <point x="440" y="-45"/>
      <point x="359" y="-46"/>
      <point x="308" y="-46" type="curve"/>
      <point x="308" y="-46"/>
      <point x="308" y="-46"/>
      <point x="308" y="-46" type="curve"/>
      <point x="202" y="-46" type="line"/>
      <point x="202" y="-46"/>
      <point x="202" y="-46"/>
      <point x="202" y="-46" type="curve"/>
      <point x="84" y="-46"/>
      <point x="1" y="66"/>
      <point x="1" y="239" type="curve"/>
      <point x="1" y="239"/>
      <point x="1" y="239"/>
      <point x="1" y="239" type="curve"/>
      <point x="1" y="413"/>
      <point x="84" y="526"/>
      <point x="202" y="526" type="curve"/>
      <point x="202" y="526"/>
      <point x="202" y="526"/>
      <point x="202" y="526" type="curve"/>
      <point x="308" y="526" type="line"/>
      <point x="308" y="526"/>
      <point x="308" y="526"/>
      <point x="308" y="526" type="curve"/>
      <point x="357" y="526"/>
      <point x="442" y="524"/>
      <point x="492" y="519" type="curve"/>
      <point x="490" y="503" type="line"/>
      <point x="440" y="508"/>
      <point x="357" y="510"/>
      <point x="308" y="510" type="curve"/>
      <point x="308" y="510"/>
      <point x="308" y="510"/>
      <point x="308" y="510" type="curve"/>
      <point x="202" y="510" type="line"/>
      <point x="202" y="510"/>
      <point x="202" y="510"/>
      <point x="202" y="510" type="curve"/>
      <point x="92" y="510"/>
      <point x="17" y="403"/>
      <point x="17" y="239" type="curve"/>
      <point x="17" y="239"/>
      <point x="17" y="239"/>
      <point x="17" y="239" type="curve"/>
      <point x="17" y="76"/>
      <point x="92" y="-30"/>
      <point x="202" y="-30" type="curve"/>
      <point x="202" y="-30"/>
      <point x="202" y="-30"/>
      <point x="202" y="-30" type="curve"/>
      <point x="308" y="-30" type="line"/>
      <point x="308" y="-30"/>
      <point x="308" y="-30"/>
      <point x="308" y="-30" type="curve"/>
      <point x="359" y="-30"/>
      <point x="438" y="-29"/>
      <point x="488" y="-23" type="curve"/>
    </contour>
    <contour>
      <point x="316" y="518" type="line"/>
      <point x="316" y="-38" type="line"/>
      <point x="300" y="-38" type="line"/>
      <point x="300" y="518" type="line"/>
    </contour>
    <contour>
      <point x="332" y="552" type="line"/>
      <point x="315" y="515" type="line" smooth="yes"/>
      <point x="312" y="508"/>
      <point x="299" y="524"/>
      <point x="306" y="526" type="curve" smooth="yes"/>
      <point x="430" y="563" type="line"/>
      <point x="434" y="547" type="line"/>
      <point x="310" y="510" type="line" smooth="yes"/>
      <point x="304" y="508"/>
      <point x="298" y="515"/>
      <point x="301" y="521" type="curve" smooth="yes"/>
      <point x="318" y="558" type="line"/>
    </contour>
    <contour>
      <point x="438" y="120" type="line"/>
      <point x="314" y="-43" type="line" smooth="yes"/>
      <point x="309" y="-49"/>
      <point x="299" y="-45"/>
      <point x="300" y="-37" type="curve" smooth="yes"/>
      <point x="317" y="126" type="line"/>
      <point x="333" y="124" type="line"/>
      <point x="316" y="-39" type="line" smooth="yes"/>
      <point x="315" y="-47"/>
      <point x="297" y="-40"/>
      <point x="302" y="-33" type="curve" smooth="yes"/>
      <point x="426" y="130" type="line"/>
    </contour>
    <contour>
      <point x="276" y="133" type="curve" smooth="yes"/>
      <point x="325" y="133" type="line"/>
      <point x="317" y="125" type="line"/>
      <point x="319" y="172"/>
      <point x="320" y="237"/>
      <point x="320" y="331" type="curve" smooth="yes"/>
      <point x="320" y="435"/>
      <point x="319" y="505"/>
      <point x="317" y="555" type="curve"/>
      <point x="325" y="547" type="line"/>
      <point x="276" y="547" type="line" smooth="yes"/>
      <point x="192" y="547"/>
      <point x="142" y="464"/>
      <point x="142" y="339" type="curve" smooth="yes"/>
      <point x="142" y="215"/>
      <point x="192" y="133"/>
    </contour>
    <contour>
      <point x="597" y="680" type="line"/>
      <point x="605" y="672" type="line"/>
      <point x="269" y="672" type="line" smooth="yes"/>
      <point x="133" y="672"/>
      <point x="34" y="541"/>
      <point x="34" y="339" type="curve" smooth="yes"/>
      <point x="34" y="138"/>
      <point x="133" y="8"/>
      <point x="269" y="8" type="curve" smooth="yes"/>
      <point x="604" y="8" type="line"/>
      <point x="596" y="1" type="line"/>
      <point x="610" y="167" type="line"/>
      <point x="624" y="161" type="line"/>
      <point x="598" y="131"/>
      <point x="563" y="114"/>
      <point x="432" y="117" type="curve" smooth="yes"/>
      <point x="428" y="117"/>
      <point x="424" y="121"/>
      <point x="424" y="125" type="curve" smooth="yes"/>
      <point x="423" y="165"/>
      <point x="422" y="218"/>
      <point x="421" y="290" type="curve" smooth="yes"/>
      <point x="421" y="294"/>
      <point x="425" y="298"/>
      <point x="429" y="298" type="curve" smooth="yes"/>
      <point x="547" y="297"/>
      <point x="569" y="291"/>
      <point x="591" y="276" type="curve"/>
      <point x="578" y="269" type="line"/>
      <point x="578" y="432" type="line"/>
      <point x="591" y="426" type="line"/>
      <point x="569" y="409"/>
      <point x="547" y="403"/>
      <point x="429" y="402" type="curve" smooth="yes"/>
      <point x="425" y="402"/>
      <point x="421" y="406"/>
      <point x="421" y="410" type="curve" smooth="yes"/>
      <point x="422" y="472"/>
      <point x="423" y="519"/>
      <point x="424" y="555" type="curve" smooth="yes"/>
      <point x="424" y="559"/>
      <point x="428" y="563"/>
      <point x="432" y="563" type="curve" smooth="yes"/>
      <point x="557" y="566"/>
      <point x="586" y="548"/>
      <point x="610" y="530" type="curve"/>
      <point x="597" y="524" type="line"/>
    </contour>
    <contour>
      <point x="276" y="117" type="line" smooth="yes"/>
      <point x="184" y="117"/>
      <point x="126" y="203"/>
      <point x="126" y="339" type="curve" smooth="yes"/>
      <point x="126" y="476"/>
      <point x="184" y="563"/>
      <point x="276" y="563" type="curve" smooth="yes"/>
      <point x="325" y="563" type="line" smooth="yes"/>
      <point x="329" y="563"/>
      <point x="333" y="560"/>
      <point x="333" y="555" type="curve" smooth="yes"/>
      <point x="335" y="505"/>
      <point x="336" y="435"/>
      <point x="336" y="331" type="curve" smooth="yes"/>
      <point x="336" y="237"/>
      <point x="335" y="172"/>
      <point x="333" y="125" type="curve" smooth="yes"/>
      <point x="333" y="120"/>
      <point x="329" y="117"/>
      <point x="325" y="117" type="curve" smooth="yes"/>
    </contour>
    <contour>
      <point x="613" y="680" type="curve" smooth="yes"/>
      <point x="613" y="524" type="line" smooth="yes"/>
      <point x="613" y="517"/>
      <point x="606" y="514"/>
      <point x="600" y="518" type="curve" smooth="yes"/>
      <point x="578" y="534"/>
      <point x="551" y="550"/>
      <point x="432" y="547" type="curve"/>
      <point x="440" y="555" type="line"/>
      <point x="439" y="519"/>
      <point x="438" y="472"/>
      <point x="437" y="410" type="curve"/>
      <point x="429" y="418" type="line"/>
      <point x="536" y="419"/>
      <point x="561" y="423"/>
      <point x="581" y="438" type="curve" smooth="yes"/>
      <point x="586" y="442"/>
      <point x="594" y="439"/>
      <point x="594" y="432" type="curve" smooth="yes"/>
      <point x="594" y="269" type="line" smooth="yes"/>
      <point x="594" y="262"/>
      <point x="587" y="259"/>
      <point x="581" y="262" type="curve" smooth="yes"/>
      <point x="561" y="277"/>
      <point x="537" y="281"/>
      <point x="429" y="282" type="curve"/>
      <point x="437" y="290" type="line"/>
      <point x="438" y="218"/>
      <point x="439" y="165"/>
      <point x="440" y="125" type="curve"/>
      <point x="432" y="133" type="line"/>
      <point x="553" y="130"/>
      <point x="588" y="143"/>
      <point x="612" y="171" type="curve" smooth="yes"/>
      <point x="617" y="177"/>
      <point x="627" y="173"/>
      <point x="626" y="165" type="curve" smooth="yes"/>
      <point x="612" y="-1" type="line" smooth="yes"/>
      <point x="612" y="-5"/>
      <point x="608" y="-8"/>
      <point x="604" y="-8" type="curve" smooth="yes"/>
      <point x="269" y="-8" type="line" smooth="yes"/>
      <point x="125" y="-8"/>
      <point x="18" y="128"/>
      <point x="18" y="339" type="curve" smooth="yes"/>
      <point x="18" y="551"/>
      <point x="125" y="688"/>
      <point x="269" y="688" type="curve" smooth="yes"/>
      <point x="605" y="688" type="line" smooth="yes"/>
      <point x="609" y="688"/>
      <point x="613" y="684"/>
    </contour>
  </outline>
</glyph>
<glyph name="circumflex" format="2">
  <advance width="398"/>
  <unicode hex="02C6"/>
  <outline>
    <contour>
      <point x="66" y="545" type="line"/>
      <point x="122" y="619" type="line" smooth="yes"/>
      <point x="125" y="623"/>
      <point x="131" y="623"/>
      <point x="134" y="619" type="curve" smooth="yes"/>
      <point x="190" y="545" type="line"/>
      <point x="178" y="535" type="line"/>
      <point x="122" y="609" type="line" smooth="yes"/>
      <point x="118" y="613"/>
      <point x="138" y="613"/>
      <point x="134" y="609" type="curve" smooth="yes"/>
      <point x="78" y="535" type="line"/>
    </contour>
    <contour>
      <point x="159" y="577" type="line"/>
      <point x="76" y="533" type="line" smooth="yes"/>
      <point x="72" y="531"/>
      <point x="67" y="532"/>
      <point x="65" y="536" type="curve" smooth="yes"/>
      <point x="43" y="580" type="line"/>
      <point x="57" y="588" type="line"/>
      <point x="79" y="544" type="line" smooth="yes"/>
      <point x="81" y="540"/>
      <point x="64" y="545"/>
      <point x="68" y="547" type="curve" smooth="yes"/>
      <point x="151" y="591" type="line"/>
    </contour>
    <contour>
      <point x="350" y="576" type="line"/>
      <point x="186" y="532" type="line" smooth="yes"/>
      <point x="178" y="530"/>
      <point x="172" y="541"/>
      <point x="179" y="546" type="curve" smooth="yes"/>
      <point x="238" y="590" type="line"/>
      <point x="248" y="578" type="line"/>
      <point x="189" y="534" type="line" smooth="yes"/>
      <point x="182" y="528"/>
      <point x="173" y="545"/>
      <point x="182" y="548" type="curve" smooth="yes"/>
      <point x="346" y="592" type="line"/>
    </contour>
    <contour>
      <point x="207" y="782" type="line"/>
      <point x="135" y="611" type="line" smooth="yes"/>
      <point x="133" y="604"/>
      <point x="119" y="619"/>
      <point x="125" y="622" type="curve" smooth="yes"/>
      <point x="196" y="647" type="line"/>
      <point x="202" y="631" type="line"/>
      <point x="131" y="606" type="line" smooth="yes"/>
      <point x="124" y="604"/>
      <point x="118" y="611"/>
      <point x="121" y="617" type="curve" smooth="yes"/>
      <point x="193" y="788" type="line"/>
    </contour>
    <contour>
      <point x="243" y="576" type="line" smooth="yes"/>
      <point x="241" y="576"/>
      <point x="238" y="577"/>
      <point x="237" y="579" type="curve" smooth="yes"/>
      <point x="193" y="634" type="line"/>
      <point x="205" y="634" type="line"/>
      <point x="161" y="579" type="line" smooth="yes"/>
      <point x="160" y="577"/>
      <point x="157" y="576"/>
      <point x="155" y="576" type="curve" smooth="yes"/>
      <point x="50" y="576" type="line" smooth="yes"/>
      <point x="43" y="576"/>
      <point x="40" y="584"/>
      <point x="44" y="589" type="curve" smooth="yes"/>
      <point x="194" y="790" type="line" smooth="yes"/>
      <point x="197" y="794"/>
      <point x="203" y="794"/>
      <point x="206" y="790" type="curve" smooth="yes"/>
      <point x="354" y="589" type="line" smooth="yes"/>
      <point x="358" y="583"/>
      <point x="355" y="576"/>
      <point x="348" y="576" type="curve" smooth="yes"/>
    </contour>
    <contour>
      <point x="243" y="592" type="line"/>
      <point x="348" y="592" type="line"/>
      <point x="342" y="579" type="line"/>
      <point x="194" y="780" type="line"/>
      <point x="206" y="780" type="line"/>
      <point x="56" y="579" type="line"/>
      <point x="50" y="592" type="line"/>
      <point x="155" y="592" type="line"/>
      <point x="149" y="589" type="line"/>
      <point x="193" y="644" type="line" smooth="yes"/>
      <point x="196" y="648"/>
      <point x="202" y="648"/>
      <point x="205" y="644" type="curve" smooth="yes"/>
      <point x="249" y="589" type="line"/>
    </contour>
  </outline>
</glyph>
<glyph name="tilde" format="2">
  <advance width="399"/>
  <unicode hex="02DC"/>
  <outline>
    <contour>
      <point x="119" y="571" type="line"/>
      <point x="18" y="523" type="line" smooth="yes"/>
      <point x="11" y="519"/>
      <point x="3" y="529"/>
      <point x="9" y="535" type="curve" smooth="yes"/>
      <point x="50" y="583" type="line"/>
      <point x="62" y="573" type="line"/>
      <point x="21" y="525" type="line" smooth="yes"/>
      <point x="15" y="518"/>
      <point x="4" y="534"/>
      <point x="12" y="537" type="curve" smooth="yes"/>
      <point x="113" y="585" type="line"/>
    </contour>
    <contour>
      <point x="291" y="772" type="line"/>
      <point x="251" y="620" type="line" smooth="yes"/>
      <point x="248" y="611"/>
      <point x="231" y="619"/>
      <point x="236" y="626" type="curve" smooth="yes"/>
      <point x="336" y="778" type="line"/>
      <point x="350" y="770" type="line"/>
      <point x="250" y="618" type="line" smooth="yes"/>
      <point x="245" y="610"/>
      <point x="233" y="615"/>
      <point x="235" y="624" type="curve" smooth="yes"/>
      <point x="275" y="776" type="line"/>
    </contour>
    <contour>
      <point x="251" y="622" type="line"/>
      <point x="248" y="553"/>
      <point x="221" y="525"/>
      <point x="187" y="525" type="curve"/>
      <point x="187" y="525"/>
      <point x="187" y="525"/>
      <point x="187" y="525" type="curve"/>
      <point x="138" y="525"/>
      <point x="110" y="606"/>
      <point x="70" y="606" type="curve"/>
      <point x="70" y="606"/>
      <point x="70" y="606"/>
      <point x="70" y="606" type="curve"/>
      <point x="43" y="606"/>
      <point x="27" y="581"/>
      <point x="23" y="529" type="curve"/>
      <point x="7" y="531" type="line"/>
      <point x="11" y="595"/>
      <point x="37" y="622"/>
      <point x="70" y="622" type="curve"/>
      <point x="70" y="622"/>
      <point x="70" y="622"/>
      <point x="70" y="622" type="curve"/>
      <point x="120" y="622"/>
      <point x="148" y="541"/>
      <point x="187" y="541" type="curve"/>
      <point x="187" y="541"/>
      <point x="187" y="541"/>
      <point x="187" y="541" type="curve"/>
      <point x="215" y="541"/>
      <point x="232" y="567"/>
      <point x="235" y="622" type="curve"/>
    </contour>
    <contour>
      <point x="275" y="774" type="curve" smooth="yes"/>
      <point x="275" y="778"/>
      <point x="279" y="782"/>
      <point x="283" y="782" type="curve" smooth="yes"/>
      <point x="343" y="782" type="line" smooth="yes"/>
      <point x="347" y="782"/>
      <point x="351" y="779"/>
      <point x="351" y="775" type="curve" smooth="yes"/>
      <point x="365" y="627"/>
      <point x="325" y="566"/>
      <point x="261" y="566" type="curve" smooth="yes"/>
      <point x="200" y="566"/>
      <point x="174" y="642"/>
      <point x="145" y="642" type="curve" smooth="yes"/>
      <point x="132" y="642"/>
      <point x="125" y="620"/>
      <point x="124" y="578" type="curve" smooth="yes"/>
      <point x="124" y="573"/>
      <point x="120" y="570"/>
      <point x="116" y="570" type="curve" smooth="yes"/>
      <point x="56" y="570" type="line" smooth="yes"/>
      <point x="52" y="570"/>
      <point x="48" y="573"/>
      <point x="48" y="577" type="curve" smooth="yes"/>
      <point x="34" y="725"/>
      <point x="74" y="786"/>
      <point x="137" y="786" type="curve" smooth="yes"/>
      <point x="201" y="786"/>
      <point x="226" y="700"/>
      <point x="254" y="700" type="curve" smooth="yes"/>
      <point x="267" y="700"/>
      <point x="275" y="728"/>
    </contour>
    <contour>
      <point x="291" y="774" type="line"/>
      <point x="291" y="704"/>
      <point x="274" y="684"/>
      <point x="254" y="684" type="curve" smooth="yes"/>
      <point x="218" y="684"/>
      <point x="188" y="770"/>
      <point x="137" y="770" type="curve" smooth="yes"/>
      <point x="82" y="770"/>
      <point x="52" y="709"/>
      <point x="64" y="579" type="curve"/>
      <point x="56" y="586" type="line"/>
      <point x="116" y="586" type="line"/>
      <point x="108" y="578" type="line"/>
      <point x="109" y="642"/>
      <point x="125" y="658"/>
      <point x="145" y="658" type="curve" smooth="yes"/>
      <point x="181" y="658"/>
      <point x="212" y="582"/>
      <point x="261" y="582" type="curve" smooth="yes"/>
      <point x="317" y="582"/>
      <point x="347" y="643"/>
      <point x="335" y="773" type="curve"/>
      <point x="343" y="766" type="line"/>
      <point x="283" y="766" type="line"/>
    </contour>
  </outline>
</glyph>
<glyph name="quoteleft" format="2">
  <advance width="194"/>
  <unicode hex="2018"/>
  <outline>
    <contour>
      <point x="182" y="685" type="line"/>
      <point x="100" y="589"/>
      <point x="48" y="468"/>
      <point x="27" y="359" type="curve"/>
      <point x="11" y="363" type="line"/>
      <point x="32" y="474"/>
      <point x="86" y="597"/>
      <point x="170" y="695" type="curve"/>
    </contour>
    <contour>
      <point x="153" y="391" type="line"/>
      <point x="21" y="353" type="line" smooth="yes"/>
      <point x="15" y="351"/>
      <point x="9" y="358"/>
      <point x="11" y="364" type="curve" smooth="yes"/>
      <point x="25" y="402" type="line"/>
      <point x="41" y="396" type="line"/>
      <point x="27" y="358" type="line" smooth="yes"/>
      <point x="24" y="352"/>
      <point x="10" y="367"/>
      <point x="17" y="369" type="curve" smooth="yes"/>
      <point x="149" y="407" type="line"/>
    </contour>
    <contour>
      <point x="151" y="407" type="line"/>
      <point x="143" y="397" type="line"/>
      <point x="126" y="488"/>
      <point x="127" y="572"/>
      <point x="168" y="693" type="curve"/>
      <point x="179" y="683" type="line"/>
      <point x="69" y="634"/>
      <point x="34" y="507"/>
      <point x="41" y="400" type="curve"/>
      <point x="33" y="407" type="line"/>
    </contour>
    <contour>
      <point x="151" y="391" type="curve" smooth="yes"/>
      <point x="33" y="391" type="line" smooth="yes"/>
      <point x="29" y="391"/>
      <point x="25" y="394"/>
      <point x="25" y="398" type="curve" smooth="yes"/>
      <point x="18" y="513"/>
      <point x="56" y="646"/>
      <point x="173" y="697" type="curve" smooth="yes"/>
      <point x="179" y="700"/>
      <point x="186" y="694"/>
      <point x="184" y="687" type="curve" smooth="yes"/>
      <point x="143" y="570"/>
      <point x="142" y="488"/>
      <point x="159" y="401" type="curve" smooth="yes"/>
      <point x="160" y="396"/>
      <point x="156" y="391"/>
    </contour>
  </outline>
</glyph>
<glyph name="guilsinglleft" format="2">
  <advance width="306"/>
  <unicode hex="2039"/>
  <outline>
    <contour>
      <point x="284" y="576" type="line"/>
      <point x="200" y="423"/>
      <point x="117" y="302"/>
      <point x="27" y="198" type="curve" smooth="yes"/>
      <point x="24" y="194"/>
      <point x="20" y="212"/>
      <point x="25" y="210" type="curve" smooth="yes"/>
      <point x="115" y="161"/>
      <point x="198" y="103"/>
      <point x="282" y="32" type="curve"/>
      <point x="272" y="20" type="line"/>
      <point x="188" y="91"/>
      <point x="107" y="147"/>
      <point x="17" y="196" type="curve" smooth="yes"/>
      <point x="13" y="198"/>
      <point x="12" y="204"/>
      <point x="15" y="208" type="curve" smooth="yes"/>
      <point x="105" y="312"/>
      <point x="186" y="431"/>
      <point x="270" y="584" type="curve"/>
    </contour>
    <contour>
      <point x="12" y="304" type="line"/>
      <point x="29" y="204" type="line" smooth="yes"/>
      <point x="30" y="199"/>
      <point x="12" y="207"/>
      <point x="17" y="210" type="curve" smooth="yes"/>
      <point x="177" y="310" type="line"/>
      <point x="185" y="296" type="line"/>
      <point x="25" y="196" type="line" smooth="yes"/>
      <point x="20" y="193"/>
      <point x="14" y="196"/>
      <point x="13" y="202" type="curve" smooth="yes"/>
      <point x="-4" y="302" type="line"/>
    </contour>
    <contour>
      <point x="188" y="300" type="curve"/>
      <point x="188" y="306" type="line"/>
      <point x="223" y="233"/>
      <point x="259" y="140"/>
      <point x="285" y="28" type="curve" smooth="yes"/>
      <point x="287" y="19"/>
      <point x="276" y="14"/>
      <point x="271" y="21" type="curve" smooth="yes"/>
      <point x="189" y="135"/>
      <point x="103" y="217"/>
      <point x="-1" y="297" type="curve" smooth="yes"/>
      <point x="-5" y="300"/>
      <point x="-5" y="306"/>
      <point x="-1" y="309" type="curve" smooth="yes"/>
      <point x="103" y="389"/>
      <point x="189" y="471"/>
      <point x="271" y="585" type="curve" smooth="yes"/>
      <point x="276" y="592"/>
      <point x="287" y="587"/>
      <point x="285" y="578" type="curve" smooth="yes"/>
      <point x="259" y="466"/>
      <point x="223" y="373"/>
    </contour>
    <contour>
      <point x="174" y="306" type="curve" smooth="yes"/>
      <point x="209" y="379"/>
      <point x="243" y="471"/>
      <point x="269" y="582" type="curve"/>
      <point x="283" y="575" type="line"/>
      <point x="201" y="461"/>
      <point x="114" y="377"/>
      <point x="9" y="297" type="curve"/>
      <point x="9" y="309" type="line"/>
      <point x="114" y="229"/>
      <point x="201" y="145"/>
      <point x="283" y="31" type="curve"/>
      <point x="269" y="24" type="line"/>
      <point x="243" y="135"/>
      <point x="209" y="227"/>
      <point x="174" y="300" type="curve" smooth="yes"/>
      <point x="173" y="302"/>
      <point x="173" y="304"/>
    </contour>
  </outline>
</glyph>
